#N canvas 732 132 1423 1261 10;
#X declare -lib iemmatrix;
#X obj 321 233 unpack 0 0 0 0;
#X floatatom 321 256 3 0 0 0 - - -;
#X floatatom 348 256 3 0 0 0 - - -;
#X floatatom 375 256 3 0 0 0 - - -;
#X floatatom 402 256 3 0 0 0 - - -;
#X text 428 256 (Server IP Address);
#X obj 227 20 loadbang;
#N canvas 623 127 1152 950 get-web-state 0;
#X msg 160 372 connect www.polartide.org 80;
#X msg -8 499 disconnect;
#X obj 77 406 pp GET;
#X obj 77 372 symbol;
#X obj 157 115 sel 1;
#X obj 157 86 tgl 15 0 empty empty empty 17 7 0 10 -262144 -1 -1 1
1;
#X obj 151 244 spigot;
#X obj 184 211 tgl 15 0 empty empty empty 17 7 0 10 -262144 -1 -1 1
1;
#X obj 110 148 t b b;
#X msg 137 178 1;
#X text 180 85 << stream on/off;
#X obj 93 773 outlet;
#X obj -116 804 outlet;
#X obj 319 39 route stream rate;
#X obj 319 -3 inlet;
#X obj 430 368 loadbang;
#X msg 430 437 verbosity \$1;
#X obj 430 411 tgl 15 0 empty empty empty 17 7 0 10 -262144 -1 -1 0
1;
#X msg 430 391 0;
#X obj 184 157 t f b;
#X floatatom 422 752 5 0 0 0 - - -;
#X text 64 837 delay needs to be longer than the maximum disconnect
time;
#X text 95 861 50ms seems to work \, 100 is probably safe;
#X text -249 39 tcpclient might have some try routine where if the
internet goes out it keeps trying?;
#X obj -155 640 t b b l;
#X obj 110 313 t s b;
#X msg 138 626 stop;
#N canvas 778 567 450 300 thru 0;
#X obj 111 79 inlet;
#X obj 111 110 outlet;
#X connect 0 0 1 0;
#X restore 544 853 pd thru;
#N canvas 778 567 450 300 thru 0;
#X obj 111 79 inlet;
#X obj 111 110 outlet;
#X connect 0 0 1 0;
#X restore 544 176 pd thru;
#X text 198 632 repeat if connection fails;
#X obj 280 522 route blocked;
#X msg 307 591 unblock;
#X obj 280 555 t b b;
#X obj 160 416 t a b;
#X obj 111 582 sel 1 0;
#X obj -56 601 == 0;
#X obj -56 632 + 1;
#X obj -56 672 gate 2 1;
#X obj -56 709 t b b;
#N canvas 589 482 450 300 report 0;
#X obj -8234 94 time ___;
#X obj -8234 11 inlet;
#X obj -8234 136 sprintf time: %i:%i:%i;
#X obj -8234 67 once;
#X obj -8138 7 inlet;
#X obj -8084 93 time ___;
#X obj -8234 205 outlet;
#X obj -8084 135 sprintf cleared at: %i:%i:%i;
#X obj -8084 66 once;
#X obj -8137 35 t b;
#X obj -8235 37 t b;
#X connect 0 0 2 0;
#X connect 0 1 2 1;
#X connect 0 2 2 2;
#X connect 1 0 10 0;
#X connect 2 0 6 0;
#X connect 3 0 0 0;
#X connect 4 0 9 0;
#X connect 5 0 7 0;
#X connect 5 1 7 1;
#X connect 5 2 7 2;
#X connect 7 0 6 0;
#X connect 8 0 5 0;
#X connect 9 0 8 0;
#X connect 9 0 3 1;
#X connect 10 0 3 0;
#X connect 10 0 8 1;
#X restore 206 737 pd report _error;
#X obj 206 763 print connection_error;
#N canvas 1021 370 450 300 report 0;
#X obj -8234 94 time ___;
#X obj -8234 11 inlet;
#X obj -8234 136 sprintf time: %i:%i:%i;
#X obj -8234 47 once;
#X obj -8181 13 inlet;
#X obj -8084 93 time ___;
#X obj -8234 205 outlet;
#X obj -8084 135 sprintf cleared at: %i:%i:%i;
#X obj -8124 52 once;
#X connect 0 0 2 0;
#X connect 0 1 2 1;
#X connect 0 2 2 2;
#X connect 1 0 3 0;
#X connect 1 0 8 1;
#X connect 2 0 6 0;
#X connect 3 0 0 0;
#X connect 4 0 3 1;
#X connect 4 0 8 0;
#X connect 5 0 7 0;
#X connect 5 1 7 1;
#X connect 5 2 7 2;
#X connect 7 0 6 0;
#X connect 8 0 5 0;
#X restore -56 739 pd report _error;
#X obj -57 770 print disconnect_error;
#X obj 187 656 delay 5000;
#N canvas 589 482 450 300 report 0;
#X obj -8234 94 time ___;
#X obj -8234 11 inlet;
#X obj -8234 136 sprintf time: %i:%i:%i;
#X obj -8138 7 inlet;
#X obj -8084 93 time ___;
#X obj -8234 205 outlet;
#X obj -8084 135 sprintf cleared at: %i:%i:%i;
#X obj -8084 66 once;
#X obj -8137 35 t b;
#X obj -8235 37 t b;
#X obj -8234 67 once 1;
#X connect 0 0 2 0;
#X connect 0 1 2 1;
#X connect 0 2 2 2;
#X connect 1 0 9 0;
#X connect 2 0 5 0;
#X connect 3 0 8 0;
#X connect 4 0 6 0;
#X connect 4 1 6 1;
#X connect 4 2 6 2;
#X connect 6 0 5 0;
#X connect 7 0 4 0;
#X connect 8 0 7 0;
#X connect 8 0 10 1;
#X connect 9 0 7 1;
#X connect 9 0 10 0;
#X connect 10 0 0 0;
#X restore -234 172 pd report _error;
#X obj -46 149 delay 5000;
#X obj -234 198 print tcp_output_error;
#X obj 77 472 t a b;
#X msg -128 103 stop;
#X obj -155 558 t a b;
#X obj 111 607 t b b;
#X obj 187 700 t b b b;
#X obj -91 213 gate 2 2;
#X obj 372 809 delay 100;
#X obj 77 546 net/tcpclient;
#X obj -155 612 net/httpreceive;
#X obj 77 446 net/httpreq;
#X msg 110 282 symbol http://www.polartide.org/bellstate.php;
#X connect 0 0 33 0;
#X connect 1 0 54 0;
#X connect 2 0 56 0;
#X connect 3 0 2 0;
#X connect 4 0 8 0;
#X connect 4 1 19 0;
#X connect 5 0 4 0;
#X connect 6 0 57 0;
#X connect 7 0 6 1;
#X connect 8 0 57 0;
#X connect 8 1 9 0;
#X connect 9 0 7 0;
#X connect 13 0 5 0;
#X connect 13 1 53 1;
#X connect 14 0 13 0;
#X connect 15 0 18 0;
#X connect 16 0 54 0;
#X connect 17 0 16 0;
#X connect 18 0 17 0;
#X connect 19 0 7 0;
#X connect 19 1 1 0;
#X connect 20 0 53 1;
#X connect 24 0 37 1;
#X connect 24 1 1 0;
#X connect 24 2 12 0;
#X connect 25 0 3 1;
#X connect 25 1 0 0;
#X connect 26 0 39 1;
#X connect 26 0 43 0;
#X connect 27 0 28 0;
#X connect 30 0 32 0;
#X connect 31 0 54 0;
#X connect 32 0 53 0;
#X connect 32 1 31 0;
#X connect 33 0 54 0;
#X connect 33 1 43 0;
#X connect 34 0 50 0;
#X connect 35 0 36 0;
#X connect 36 0 37 0;
#X connect 36 0 52 0;
#X connect 37 0 38 0;
#X connect 37 1 41 1;
#X connect 37 1 53 0;
#X connect 38 0 37 1;
#X connect 38 0 41 0;
#X connect 38 1 1 0;
#X connect 39 0 40 0;
#X connect 41 0 42 0;
#X connect 43 0 51 0;
#X connect 44 0 46 0;
#X connect 45 0 44 0;
#X connect 45 0 52 1;
#X connect 47 0 54 0;
#X connect 47 1 45 0;
#X connect 48 0 45 0;
#X connect 48 0 44 1;
#X connect 49 0 55 0;
#X connect 49 1 48 0;
#X connect 50 0 3 0;
#X connect 50 1 26 0;
#X connect 51 0 53 0;
#X connect 51 1 39 0;
#X connect 51 2 1 0;
#X connect 52 0 3 0;
#X connect 52 1 6 0;
#X connect 53 0 6 0;
#X connect 54 0 49 0;
#X connect 54 1 11 0;
#X connect 54 2 34 0;
#X connect 54 2 35 0;
#X connect 54 3 30 0;
#X connect 55 0 24 0;
#X connect 56 0 47 0;
#X connect 57 0 25 0;
#X restore 227 165 pd get-web-state;
#X msg 227 126 stream \$1;
#X obj 227 88 tgl 15 0 empty empty empty 17 7 0 10 -262144 -1 -1 1
1;
#X msg 227 52 1;
#X text 250 85 << on/off;
#X obj 27 226 timer;
#X obj 27 203 t b b;
#X obj 603 179 time ___;
#X obj 603 257 print start;
#X obj 603 221 sprintf time started: %i:%i:%i;
#X obj 820 181 time ___;
#X obj 603 151 sel 1 0;
#X obj 820 259 print end;
#X obj 820 223 sprintf time ended: %i:%i:%i;
#X floatatom 27 318 5 0 0 0 - - -;
#X obj -19 244 mean;
#X floatatom -19 317 5 0 0 0 - - -;
#X obj -19 289 spigot;
#X obj 28 288 spigot;
#X obj 353 170 tgl 15 0 empty empty empty 17 7 0 10 -262144 -1 -1 1
1;
#X obj 226 289 spigot;
#X obj 320 195 spigot;
#X text 375 166 << monitor values;
#X obj -102 1053 s StreamSet;
#X msg 108 973 disconnect;
#X msg -86 877 mpeg 44100 64 1 4;
#X msg 23 1030 shoutcast;
#X msg 86 916 connect rpu.somafm.com 9191;
#X msg -102 915 passwd polar:polarfeedpoint;
#N canvas 663 203 1616 1046 bell 0;
#X msg 404 531 hit 0;
#X msg 187 415 users \$1;
#X obj 186 368 hsl 128 15 0 1 0 0 empty empty empty -2 -8 0 10 -262144
-1 -1 0 1;
#X obj 510 633 modalBarUI~;
#X obj 472 414 bng 15 250 50 0 empty empty empty 17 7 0 10 -262144
-1 -1;
#X msg -83 490 b \$1;
#X floatatom -82 391 5 0 0 0 - - -;
#X text -118 373 choose your bell;
#X obj 404 503 pipe 2;
#X floatatom 211 396 5 0 0 0 - - -;
#X obj 183 334 clip 0 1;
#X msg 741 506 hit 1;
#X msg 680 503 hit 0;
#X obj 700 399 bng 15 250 50 0 empty empty empty 17 7 0 10 -262144
-1 -1;
#X obj 683 363 sel 0 1;
#X obj 639 546 modalBarUI~;
#X msg 407 291 users \$1;
#X obj 401 141 hsl 128 15 0 1 0 0 empty empty empty -2 -8 0 10 -262144
-1 -1 0 1;
#X msg 926 512 b \$1;
#X floatatom 1013 77 5 0 0 0 - - -;
#X text 977 59 choose your bell;
#X floatatom 763 436 5 0 0 0 - - -;
#X floatatom 441 479 5 0 0 0 - - -;
#X obj 484 509 f 2;
#X msg 485 541 hit \$1;
#X floatatom 496 481 5 0 0 0 - - -;
#X text -171 623 maybe add something that will be directly linked with
user click \, which influences the wave pattern process which creates
variation in the strike pattern;
#X obj 999 209 t f f;
#X obj 400 110 clip 0 1;
#X obj 472 437 t b b;
#X obj 701 743 outlet~;
#X obj 677 12 inlet;
#X obj 683 433 t b b;
#X msg 895 35 /level \$1;
#X obj 899 4 hsl 128 15 0 1 0 0 empty empty empty -2 -8 0 10 -262144
-1 -1 0 1;
#X obj 183 304 + 0.009;
#X obj 681 477 pipe 2;
#X obj 680 55 OSCroute /level /click /bell;
#N canvas 591 321 1223 668 temp_random_pendulum 0;
#X obj 181 256 metro 100;
#X obj 181 226 tgl 15 0 empty empty empty 17 7 0 10 -262144 -1 -1 0
1;
#X obj 130 348 metro 100;
#X obj 130 321 tgl 15 0 empty empty empty 17 7 0 10 -262144 -1 -1 0
1;
#X obj 130 378 decide;
#X floatatom 280 242 5 0 0 0 - - -;
#X floatatom 282 276 5 0 0 0 - - -;
#X obj 181 133 t b b;
#X msg 181 191 0;
#X msg 219 191 1;
#X obj 181 280 random 773;
#X obj 180 314 + 25;
#X obj 181 163 del 500;
#X obj 174 90 inlet;
#X obj 143 478 outlet;
#X connect 0 0 10 0;
#X connect 1 0 0 0;
#X connect 1 0 3 0;
#X connect 2 0 4 0;
#X connect 3 0 2 0;
#X connect 4 0 14 0;
#X connect 5 0 10 1;
#X connect 6 0 11 1;
#X connect 7 0 12 0;
#X connect 7 1 9 0;
#X connect 8 0 1 0;
#X connect 9 0 1 0;
#X connect 10 0 11 0;
#X connect 11 0 2 1;
#X connect 12 0 8 0;
#X connect 13 0 7 0;
#X restore 656 290 pd temp_random_pendulum;
#X connect 0 0 3 0;
#X connect 1 0 3 0;
#X connect 2 0 1 0;
#X connect 2 0 9 0;
#X connect 3 1 30 0;
#X connect 4 0 29 0;
#X connect 5 0 3 0;
#X connect 6 0 5 0;
#X connect 8 0 0 0;
#X connect 10 0 2 0;
#X connect 11 0 15 0;
#X connect 12 0 15 0;
#X connect 13 0 32 0;
#X connect 14 0 4 0;
#X connect 14 1 13 0;
#X connect 15 1 30 0;
#X connect 16 0 15 0;
#X connect 17 0 16 0;
#X connect 17 0 35 0;
#X connect 18 0 15 0;
#X connect 18 0 3 0;
#X connect 19 0 18 0;
#X connect 21 0 36 1;
#X connect 22 0 8 1;
#X connect 23 0 24 0;
#X connect 24 0 3 0;
#X connect 25 0 23 1;
#X connect 28 0 17 0;
#X connect 29 0 8 0;
#X connect 29 1 23 0;
#X connect 31 0 37 0;
#X connect 32 0 36 0;
#X connect 32 1 11 0;
#X connect 33 0 37 0;
#X connect 34 0 33 0;
#X connect 35 0 10 0;
#X connect 36 0 12 0;
#X connect 37 0 28 0;
#X connect 37 1 38 0;
#X connect 37 2 18 0;
#X connect 38 0 14 0;
#X restore 886 908 pd bell;
#X obj 1048 620 hsl 128 15 0 1 0 0 empty empty empty -2 -8 0 10 -262144
-1 -1 0 1;
#X obj 1044 652 * 10;
#X msg 919 874 /bell 0;
#X msg 886 817 /click bang;
#X msg 799 821 /level \$1;
#X obj 919 847 loadbang;
#X obj 886 787 change;
#N canvas 883 204 1373 833 bell 0;
#X msg 404 531 hit 0;
#X msg 187 415 users \$1;
#X obj 186 368 hsl 128 15 0 1 0 0 empty empty empty -2 -8 0 10 -262144
-1 -1 0 1;
#X obj 510 633 modalBarUI~;
#X obj 472 414 bng 15 250 50 0 empty empty empty 17 7 0 10 -262144
-1 -1;
#X msg -83 490 b \$1;
#X floatatom -82 391 5 0 0 0 - - -;
#X text -118 373 choose your bell;
#X obj 404 503 pipe 2;
#X floatatom 211 396 5 0 0 0 - - -;
#X obj 183 334 clip 0 1;
#X msg 741 506 hit 1;
#X msg 680 503 hit 0;
#X obj 700 399 bng 15 250 50 0 empty empty empty 17 7 0 10 -262144
-1 -1;
#X obj 683 363 sel 0 1;
#X obj 639 546 modalBarUI~;
#X msg 407 291 users \$1;
#X obj 401 141 hsl 128 15 0 1 0 0 empty empty empty -2 -8 0 10 -262144
-1 -1 0 1;
#X msg 926 512 b \$1;
#X floatatom 1013 77 5 0 0 0 - - -;
#X text 977 59 choose your bell;
#X floatatom 763 436 5 0 0 0 - - -;
#X floatatom 441 479 5 0 0 0 - - -;
#X obj 484 509 f 2;
#X msg 485 541 hit \$1;
#X floatatom 496 481 5 0 0 0 - - -;
#X text -171 623 maybe add something that will be directly linked with
user click \, which influences the wave pattern process which creates
variation in the strike pattern;
#X obj 999 209 t f f;
#X obj 400 110 clip 0 1;
#X obj 472 437 t b b;
#X obj 701 743 outlet~;
#X obj 677 12 inlet;
#X obj 683 433 t b b;
#X msg 895 35 /level \$1;
#X obj 899 4 hsl 128 15 0 1 0 0 empty empty empty -2 -8 0 10 -262144
-1 -1 0 1;
#X obj 183 304 + 0.009;
#X obj 681 477 pipe 2;
#X obj 680 55 OSCroute /level /click /bell;
#N canvas 591 321 1223 668 temp_random_pendulum 0;
#X obj 181 256 metro 100;
#X obj 181 226 tgl 15 0 empty empty empty 17 7 0 10 -262144 -1 -1 0
1;
#X obj 130 348 metro 100;
#X obj 130 321 tgl 15 0 empty empty empty 17 7 0 10 -262144 -1 -1 0
1;
#X obj 130 378 decide;
#X floatatom 280 242 5 0 0 0 - - -;
#X floatatom 282 276 5 0 0 0 - - -;
#X obj 181 133 t b b;
#X msg 181 191 0;
#X msg 219 191 1;
#X obj 181 280 random 773;
#X obj 180 314 + 25;
#X obj 181 163 del 500;
#X obj 174 90 inlet;
#X obj 143 478 outlet;
#X connect 0 0 10 0;
#X connect 1 0 0 0;
#X connect 1 0 3 0;
#X connect 2 0 4 0;
#X connect 3 0 2 0;
#X connect 4 0 14 0;
#X connect 5 0 10 1;
#X connect 6 0 11 1;
#X connect 7 0 12 0;
#X connect 7 1 9 0;
#X connect 8 0 1 0;
#X connect 9 0 1 0;
#X connect 10 0 11 0;
#X connect 11 0 2 1;
#X connect 12 0 8 0;
#X connect 13 0 7 0;
#X restore 656 290 pd temp_random_pendulum;
#X connect 0 0 3 0;
#X connect 1 0 3 0;
#X connect 2 0 1 0;
#X connect 2 0 9 0;
#X connect 3 1 30 0;
#X connect 4 0 29 0;
#X connect 5 0 3 0;
#X connect 6 0 5 0;
#X connect 8 0 0 0;
#X connect 10 0 2 0;
#X connect 11 0 15 0;
#X connect 12 0 15 0;
#X connect 13 0 32 0;
#X connect 14 0 4 0;
#X connect 14 1 13 0;
#X connect 15 1 30 0;
#X connect 16 0 15 0;
#X connect 17 0 16 0;
#X connect 17 0 35 0;
#X connect 18 0 15 0;
#X connect 18 0 3 0;
#X connect 19 0 18 0;
#X connect 21 0 36 1;
#X connect 22 0 8 1;
#X connect 23 0 24 0;
#X connect 24 0 3 0;
#X connect 25 0 23 1;
#X connect 28 0 17 0;
#X connect 29 0 8 0;
#X connect 29 1 23 0;
#X connect 31 0 37 0;
#X connect 32 0 36 0;
#X connect 32 1 11 0;
#X connect 33 0 37 0;
#X connect 34 0 33 0;
#X connect 35 0 10 0;
#X connect 36 0 12 0;
#X connect 37 0 28 0;
#X connect 37 1 38 0;
#X connect 37 2 18 0;
#X connect 38 0 14 0;
#X restore 1083 905 pd bell;
#X msg 1083 814 /click bang;
#X msg 996 818 /level \$1;
#X obj 1116 844 loadbang;
#X obj 1083 784 change;
#X msg 1116 871 /bell 1;
#X obj 1027 435 print;
#X msg -21 614 \$1 \$1 \$1 \$1;
#X floatatom -21 591 5 0 0 2 - - -;
#X obj -19 462 vsl 15 50 -100 0 0 0 empty empty empty 0 -9 0 10 -262144
-1 -1 3600 1;
#X text -127 437 master gain (db);
#X obj -19 524 db2v;
#X floatatom -19 435 5 0 0 0 - - -;
#X obj -21 642 mtx_diag 0 0 0 0;
#X floatatom 960 109 5 0 0 0 - - -;
#X text 988 72 % cpu;
#X obj 960 69 dsp;
#X obj 960 49 tgl 15 0 empty empty dsp_ON/OFF 2 -8 0 10 -225271 -42246
-90881 1 1;
#X floatatom 973 89 5 0 0 0 - - -;
#X obj -19 368 loadbang;
#X msg -19 402 -100;
#X obj 310 764 dac~ 3 4 5 6;
#X obj 279 719 iemmatrix/mtx_mul~ 4 4 20;
#N canvas 476 484 1632 585 pendulum_bell 0;
#X msg 157 211 hit 1;
#X msg 202 242 hit 0;
#X obj 199 175 bng 15 250 50 0 empty empty empty 17 7 0 10 -262144
-1 -1;
#X obj 202 211 pipe 2;
#X obj 265 332 bellPend~;
#X obj 85 169 bng 15 250 50 0 empty empty empty 17 7 0 10 -262144 -1
-1;
#X text 109 167 hit me;
#X msg 34 238 poke 1;
#X msg 85 237 poke 0;
#X obj 85 205 pipe 10;
#X obj 267 12 inlet;
#X obj 290 438 outlet~;
#X obj 348 439 outlet~;
#X obj 268 75 route poke hit;
#X obj 290 399 *~ 20;
#X obj 348 397 *~ 20;
#X msg 398 231 hit 0;
#X obj 504 333 modalBarUI~;
#X obj 466 114 bng 15 250 50 0 empty empty empty 17 7 0 10 -262144
-1 -1;
#X obj 398 203 pipe 2;
#X floatatom 435 179 5 0 0 0 - - -;
#X obj 478 209 f 2;
#X msg 479 241 hit \$1;
#X floatatom 490 181 5 0 0 0 - - -;
#X obj 466 137 t b b;
#X obj 267 45 route pendulum bar;
#X obj 635 63 route hit;
#X connect 0 0 4 0;
#X connect 1 0 4 0;
#X connect 2 0 0 0;
#X connect 2 0 3 0;
#X connect 3 0 1 0;
#X connect 4 1 14 0;
#X connect 4 2 15 0;
#X connect 5 0 7 0;
#X connect 5 0 9 0;
#X connect 7 0 4 0;
#X connect 8 0 4 0;
#X connect 9 0 8 0;
#X connect 10 0 25 0;
#X connect 13 0 5 0;
#X connect 13 1 2 0;
#X connect 13 2 4 0;
#X connect 14 0 11 0;
#X connect 15 0 12 0;
#X connect 16 0 17 0;
#X connect 17 1 14 0;
#X connect 17 1 15 0;
#X connect 18 0 24 0;
#X connect 19 0 16 0;
#X connect 20 0 19 1;
#X connect 21 0 22 0;
#X connect 22 0 17 0;
#X connect 23 0 21 1;
#X connect 24 0 19 0;
#X connect 24 1 21 0;
#X connect 25 0 13 0;
#X connect 25 1 26 0;
#X connect 26 0 18 0;
#X connect 26 1 17 0;
#X restore 137 597 pd pendulum_bell;
#N canvas 475 207 473 529 iter2 0;
#X obj 121 169 until;
#X obj 121 199 list append;
#X obj 157 127 t b l;
#X obj 237 190 bang;
#X obj 121 230 list split 2;
#X obj 115 303 outlet;
#X obj 156 41 inlet;
#X obj 157 85 list split 8;
#X obj 342 169 outlet;
#X connect 0 0 1 0;
#X connect 1 0 4 0;
#X connect 2 0 0 0;
#X connect 2 1 1 1;
#X connect 3 0 0 1;
#X connect 4 0 5 0;
#X connect 4 1 1 1;
#X connect 4 2 3 0;
#X connect 6 0 7 0;
#X connect 7 0 2 0;
#X connect 7 1 8 0;
#X restore 1027 386 pd iter2;
#X floatatom 1084 442 5 0 0 0 - - -;
#N canvas 1319 220 1254 791 parse 0;
#X obj 519 135 symbol2list;
#X obj 519 107 mrpeach/str to_symbol;
#X obj 519 176 unpack f f f f f f f f f;
#X obj 518 59 inlet;
#X msg 46 301 clicks \$1;
#X msg 124 301 level \$1;
#X obj 91 360 pp kerg;
#X msg 201 301 clicks \$1;
#X msg 279 301 level \$1;
#X obj 246 360 pp ganm;
#X msg 363 303 clicks \$1;
#X msg 441 303 level \$1;
#X obj 408 362 pp ve19;
#X msg 516 303 clicks \$1;
#X msg 594 303 level \$1;
#X obj 561 362 pp reyk;
#X msg 659 302 wave \$1;
#X obj 675 493 outlet;
#X connect 0 0 2 0;
#X connect 1 0 0 0;
#X connect 2 0 4 0;
#X connect 2 1 5 0;
#X connect 2 2 7 0;
#X connect 2 3 8 0;
#X connect 2 4 10 0;
#X connect 2 5 11 0;
#X connect 2 6 13 0;
#X connect 2 7 14 0;
#X connect 2 8 16 0;
#X connect 3 0 1 0;
#X connect 4 0 6 0;
#X connect 5 0 6 0;
#X connect 6 0 17 0;
#X connect 7 0 9 0;
#X connect 8 0 9 0;
#X connect 9 0 17 0;
#X connect 10 0 12 0;
#X connect 11 0 12 0;
#X connect 12 0 17 0;
#X connect 13 0 15 0;
#X connect 14 0 15 0;
#X connect 15 0 17 0;
#X connect 16 0 17 0;
#X restore 226 242 pd parse;
#X obj -56 94 import iemmatrix;
#N canvas 90 629 904 621 pendulum_bell 0;
#X msg 348 198 hit 1;
#X msg 393 229 hit 0;
#X obj 390 162 bng 15 250 50 0 empty empty empty 17 7 0 10 -262144
-1 -1;
#X obj 393 198 pipe 2;
#X obj 456 287 bellPend~;
#X obj 276 156 bng 15 250 50 0 empty empty empty 17 7 0 10 -262144
-1 -1;
#X text 300 154 hit me;
#X msg 225 225 poke 1;
#X msg 276 224 poke 0;
#X obj 276 192 pipe 10;
#X obj 367 61 inlet;
#X obj 481 388 outlet~;
#X obj 539 391 outlet~;
#X obj 367 94 route poke hit;
#X obj 481 333 *~ 20;
#X obj 539 332 *~ 20;
#X connect 0 0 4 0;
#X connect 1 0 4 0;
#X connect 2 0 0 0;
#X connect 2 0 3 0;
#X connect 3 0 1 0;
#X connect 4 1 14 0;
#X connect 4 2 15 0;
#X connect 5 0 7 0;
#X connect 5 0 9 0;
#X connect 7 0 4 0;
#X connect 8 0 4 0;
#X connect 9 0 8 0;
#X connect 10 0 13 0;
#X connect 13 0 5 0;
#X connect 13 1 2 0;
#X connect 13 2 4 0;
#X connect 14 0 11 0;
#X connect 15 0 12 0;
#X restore 252 599 pd pendulum_bell;
#N canvas 90 629 904 621 pendulum_bell 0;
#X msg 348 198 hit 1;
#X msg 393 229 hit 0;
#X obj 390 162 bng 15 250 50 0 empty empty empty 17 7 0 10 -262144
-1 -1;
#X obj 393 198 pipe 2;
#X obj 456 319 bellPend~;
#X obj 276 156 bng 15 250 50 0 empty empty empty 17 7 0 10 -262144
-1 -1;
#X text 300 154 hit me;
#X msg 225 225 poke 1;
#X msg 276 224 poke 0;
#X obj 276 192 pipe 10;
#X obj 367 61 inlet;
#X obj 481 388 outlet~;
#X obj 539 391 outlet~;
#X obj 367 94 route poke hit;
#X obj 540 358 *~ 20;
#X obj 478 354 *~ 20;
#X connect 0 0 4 0;
#X connect 1 0 4 0;
#X connect 2 0 0 0;
#X connect 2 0 3 0;
#X connect 3 0 1 0;
#X connect 4 1 15 0;
#X connect 4 2 14 0;
#X connect 5 0 7 0;
#X connect 5 0 9 0;
#X connect 7 0 4 0;
#X connect 8 0 4 0;
#X connect 9 0 8 0;
#X connect 10 0 13 0;
#X connect 13 0 5 0;
#X connect 13 1 2 0;
#X connect 13 2 4 0;
#X connect 14 0 12 0;
#X connect 15 0 11 0;
#X restore 364 598 pd pendulum_bell;
#N canvas 90 629 904 621 pendulum_bell 0;
#X msg 348 198 hit 1;
#X msg 393 229 hit 0;
#X obj 390 162 bng 15 250 50 0 empty empty empty 17 7 0 10 -262144
-1 -1;
#X obj 393 198 pipe 2;
#X obj 456 319 bellPend~;
#X obj 276 156 bng 15 250 50 0 empty empty empty 17 7 0 10 -262144
-1 -1;
#X text 300 154 hit me;
#X msg 225 225 poke 1;
#X msg 276 224 poke 0;
#X obj 276 192 pipe 10;
#X obj 367 61 inlet;
#X obj 482 430 outlet~;
#X obj 540 433 outlet~;
#X obj 367 94 route poke hit;
#X obj 484 374 *~ 20;
#X obj 535 374 *~ 20;
#X connect 0 0 4 0;
#X connect 1 0 4 0;
#X connect 2 0 0 0;
#X connect 2 0 3 0;
#X connect 3 0 1 0;
#X connect 4 1 14 0;
#X connect 4 2 15 0;
#X connect 5 0 7 0;
#X connect 5 0 9 0;
#X connect 7 0 4 0;
#X connect 8 0 4 0;
#X connect 9 0 8 0;
#X connect 10 0 13 0;
#X connect 13 0 5 0;
#X connect 13 1 2 0;
#X connect 13 2 4 0;
#X connect 14 0 11 0;
#X connect 15 0 12 0;
#X restore 484 598 pd pendulum_bell;
#X floatatom 579 444 5 0 0 0 - - -;
#X obj 226 329 route kerg ganm ve19 reyk wave;
#N canvas 468 268 1766 1052 kerg 0;
#X obj 117 -537 route clicks level;
#X obj 117 -567 inlet;
#X obj 67 -294 change;
#X obj 67 -244 t b;
#X msg 169 -205 users \$1;
#X obj 172 -251 hsl 128 15 0.001 1 0 0 empty empty empty -2 -8 0 10
-262144 -1 -1 1163 1;
#X text 240 -206 0.0001 - 1;
#X obj 169 -444 change;
#X floatatom 226 -392 5 0 0 0 - - -;
#X obj 226 -431 f 1;
#X obj 228 -478 bng 15 250 50 0 empty empty empty 17 7 0 10 -262144
-1 -1;
#X obj 169 -379 / 12;
#X msg 949 -202 users \$1;
#X obj 948 -249 hsl 128 15 0 1 0 0 empty empty empty -2 -8 0 10 -262144
-1 -1 1289 1;
#X msg 861 -177 b \$1;
#X floatatom 862 -276 5 0 0 0 - - -;
#X text 826 -294 choose your bell;
#X floatatom 973 -221 5 0 0 0 - - -;
#X obj 169 91 outlet;
#X obj 169 6 pp pendulum;
#X obj 857 52 pp bar;
#X obj 135 -275 bng 15 250 50 0 empty empty empty 17 7 0 10 -262144
-1 -1;
#X obj 966 -343 + 0.009;
#X obj 346 -351 vsl 15 128 5 200 0 0 empty empty empty 0 -9 0 10 -262144
-1 -1 6700 1;
#X msg 346 -210 amp \$1;
#X obj 420 -346 vsl 15 128 0.9999 1 0 0 empty empty empty 0 -9 0 10
-262144 -1 -1 10400 1;
#X msg 420 -207 que \$1;
#X obj 493 -347 vsl 15 128 0 10 0 0 empty empty empty 0 -9 0 10 -262144
-1 -1 900 1;
#X msg 493 -204 fre \$1;
#X msg 598 -195 clapper \$1;
#X text 326 -373 5 - 200;
#X text 388 -373 0.9999 - 1;
#X text 478 -374 0 - 10;
#X obj 623 -117 loadbang;
#X msg 489 -66 fre 0.708661;
#X obj 487 -101 pp set;
#X msg 426 -64 que 0.999982;
#X obj 426 -98 pp set;
#X msg 349 -67 amp 107.874;
#X obj 348 -102 pp set;
#X msg 38 -112 pendulum poke bang \, bar hit bang;
#X msg 624 -64 b 0;
#X connect 0 0 2 0;
#X connect 0 1 7 0;
#X connect 0 1 9 1;
#X connect 1 0 0 0;
#X connect 2 0 3 0;
#X connect 3 0 40 0;
#X connect 4 0 19 0;
#X connect 5 0 4 0;
#X connect 7 0 11 0;
#X connect 9 0 8 0;
#X connect 9 0 11 0;
#X connect 10 0 9 0;
#X connect 11 0 5 0;
#X connect 11 0 22 0;
#X connect 12 0 20 0;
#X connect 13 0 12 0;
#X connect 13 0 17 0;
#X connect 14 0 20 0;
#X connect 15 0 14 0;
#X connect 19 0 18 0;
#X connect 20 0 18 0;
#X connect 21 0 3 0;
#X connect 22 0 13 0;
#X connect 23 0 24 0;
#X connect 24 0 39 0;
#X connect 25 0 26 0;
#X connect 26 0 37 0;
#X connect 27 0 28 0;
#X connect 28 0 35 0;
#X connect 33 0 34 0;
#X connect 33 0 36 0;
#X connect 33 0 38 0;
#X connect 33 0 41 0;
#X connect 34 0 19 0;
#X connect 35 0 34 0;
#X connect 36 0 19 0;
#X connect 37 0 36 0;
#X connect 38 0 19 0;
#X connect 39 0 38 0;
#X connect 40 0 18 0;
#X connect 41 0 20 0;
#X restore 138 554 pd kerg mapping;
#N canvas 412 510 1023 680 ganm 0;
#X obj 117 -537 route clicks level;
#X obj 117 -567 inlet;
#X obj 67 -294 change;
#X obj 67 -244 t b;
#X obj 169 37 outlet;
#X msg 169 -205 users \$1;
#X obj 172 -251 hsl 128 15 0.001 1 0 0 empty empty empty -2 -8 0 10
-262144 -1 -1 2447 1;
#X obj 435 -344 vsl 15 128 5 200 0 0 empty empty empty 0 -9 0 10 -262144
-1 -1 0 1;
#X msg 435 -203 amp \$1;
#X obj 509 -339 vsl 15 128 0.9999 1 0 0 empty empty empty 0 -9 0 10
-262144 -1 -1 0 1;
#X msg 509 -200 que \$1;
#X obj 582 -340 vsl 15 128 0 10 0 0 empty empty empty 0 -9 0 10 -262144
-1 -1 0 1;
#X msg 582 -197 fre \$1;
#X msg 687 -188 clapper \$1;
#X text 240 -206 0.0001 - 1;
#X text 415 -366 5 - 200;
#X text 477 -366 0.9999 - 1;
#X text 567 -367 0 - 10;
#X obj 169 -379 / 10;
#X obj 169 -444 change;
#X floatatom 226 -392 5 0 0 0 - - -;
#X obj 226 -431 f 1;
#X obj 228 -478 bng 15 250 50 0 empty empty empty 17 7 0 10 -262144
-1 -1;
#X msg 67 -204 poke bang;
#X obj 839 -103 loadbang;
#X msg 578 -59;
#X obj 576 -94 pp set;
#X msg 515 -57;
#X obj 515 -91 pp set;
#X msg 438 -60;
#X obj 437 -95 pp set;
#X connect 0 0 2 0;
#X connect 0 1 19 0;
#X connect 0 1 21 1;
#X connect 1 0 0 0;
#X connect 2 0 3 0;
#X connect 3 0 23 0;
#X connect 5 0 4 0;
#X connect 6 0 5 0;
#X connect 7 0 8 0;
#X connect 8 0 4 0;
#X connect 8 0 30 0;
#X connect 9 0 10 0;
#X connect 10 0 4 0;
#X connect 10 0 28 0;
#X connect 11 0 12 0;
#X connect 12 0 4 0;
#X connect 12 0 26 0;
#X connect 13 0 4 0;
#X connect 18 0 6 0;
#X connect 19 0 18 0;
#X connect 21 0 18 0;
#X connect 21 0 20 0;
#X connect 22 0 21 0;
#X connect 23 0 4 0;
#X connect 24 0 25 0;
#X connect 24 0 27 0;
#X connect 24 0 29 0;
#X connect 25 0 4 0;
#X connect 26 0 25 0;
#X connect 27 0 4 0;
#X connect 28 0 27 0;
#X connect 29 0 4 0;
#X connect 30 0 29 0;
#X restore 253 556 pd ganm mapping;
#N canvas 238 563 1023 680 ve19 0;
#X obj 117 -537 route clicks level;
#X obj 117 -567 inlet;
#X obj 67 -294 change;
#X obj 67 -244 t b;
#X obj 169 -31 outlet;
#X msg 169 -205 users \$1;
#X obj 172 -251 hsl 128 15 0.001 1 0 0 empty empty empty -2 -8 0 10
-262144 -1 -1 184 1;
#X obj 435 -344 vsl 15 128 5 200 0 0 empty empty empty 0 -9 0 10 -262144
-1 -1 0 1;
#X msg 435 -203 amp \$1;
#X obj 509 -339 vsl 15 128 0.9999 1 0 0 empty empty empty 0 -9 0 10
-262144 -1 -1 0 1;
#X msg 509 -200 que \$1;
#X obj 582 -340 vsl 15 128 0 10 0 0 empty empty empty 0 -9 0 10 -262144
-1 -1 0 1;
#X msg 582 -197 fre \$1;
#X msg 687 -188 clapper \$1;
#X text 240 -206 0.0001 - 1;
#X text 415 -366 5 - 200;
#X text 477 -366 0.9999 - 1;
#X text 567 -367 0 - 10;
#X obj 169 -379 / 10;
#X obj 169 -444 change;
#X floatatom 226 -392 5 0 0 0 - - -;
#X obj 226 -431 f 1;
#X obj 228 -478 bng 15 250 50 0 empty empty empty 17 7 0 10 -262144
-1 -1;
#X msg 67 -204 poke bang;
#X connect 0 0 2 0;
#X connect 0 1 19 0;
#X connect 0 1 21 1;
#X connect 1 0 0 0;
#X connect 2 0 3 0;
#X connect 3 0 23 0;
#X connect 5 0 4 0;
#X connect 6 0 5 0;
#X connect 7 0 8 0;
#X connect 8 0 4 0;
#X connect 9 0 10 0;
#X connect 10 0 4 0;
#X connect 11 0 12 0;
#X connect 12 0 4 0;
#X connect 13 0 4 0;
#X connect 18 0 6 0;
#X connect 19 0 18 0;
#X connect 21 0 18 0;
#X connect 21 0 20 0;
#X connect 22 0 21 0;
#X connect 23 0 4 0;
#X restore 365 555 pd ve19 mapping;
#N canvas 238 563 1023 680 reyk 0;
#X obj 117 -537 route clicks level;
#X obj 117 -567 inlet;
#X obj 67 -294 change;
#X obj 67 -244 t b;
#X obj 169 -31 outlet;
#X msg 169 -205 users \$1;
#X obj 172 -251 hsl 128 15 0.001 1 0 0 empty empty empty -2 -8 0 10
-262144 -1 -1 3452 1;
#X obj 435 -344 vsl 15 128 5 200 0 0 empty empty empty 0 -9 0 10 -262144
-1 -1 12700 1;
#X msg 435 -203 amp \$1;
#X obj 509 -339 vsl 15 128 0.9999 1 0 0 empty empty empty 0 -9 0 10
-262144 -1 -1 0 1;
#X msg 509 -200 que \$1;
#X obj 582 -340 vsl 15 128 0 10 0 0 empty empty empty 0 -9 0 10 -262144
-1 -1 300 1;
#X msg 582 -197 fre \$1;
#X msg 687 -188 clapper \$1;
#X text 240 -206 0.0001 - 1;
#X text 415 -366 5 - 200;
#X text 477 -366 0.9999 - 1;
#X text 567 -367 0 - 10;
#X obj 169 -379 / 10;
#X obj 169 -444 change;
#X floatatom 226 -392 5 0 0 0 - - -;
#X obj 226 -431 f 1;
#X obj 228 -478 bng 15 250 50 0 empty empty empty 17 7 0 10 -262144
-1 -1;
#X msg 67 -204 poke bang;
#X connect 0 0 2 0;
#X connect 0 1 19 0;
#X connect 0 1 21 1;
#X connect 1 0 0 0;
#X connect 2 0 3 0;
#X connect 3 0 23 0;
#X connect 5 0 4 0;
#X connect 6 0 5 0;
#X connect 7 0 8 0;
#X connect 8 0 4 0;
#X connect 9 0 10 0;
#X connect 10 0 4 0;
#X connect 11 0 12 0;
#X connect 12 0 4 0;
#X connect 13 0 4 0;
#X connect 18 0 6 0;
#X connect 19 0 18 0;
#X connect 21 0 18 0;
#X connect 21 0 20 0;
#X connect 22 0 21 0;
#X connect 23 0 4 0;
#X restore 485 555 pd reyk mapping;
#X obj 328 872 mp3cast~;
#X obj 179 820 +~;
#X obj 424 806 +~;
#X obj 325 827 r StreamSet;
#X connect 0 0 1 0;
#X connect 0 1 2 0;
#X connect 0 2 3 0;
#X connect 0 3 4 0;
#X connect 6 0 10 0;
#X connect 7 0 13 0;
#X connect 7 0 70 0;
#X connect 7 1 28 0;
#X connect 8 0 7 0;
#X connect 9 0 8 0;
#X connect 9 0 18 0;
#X connect 10 0 9 0;
#X connect 12 0 22 0;
#X connect 12 0 25 0;
#X connect 13 0 12 0;
#X connect 13 1 12 1;
#X connect 14 0 16 0;
#X connect 14 1 16 1;
#X connect 14 2 16 2;
#X connect 16 0 15 0;
#X connect 17 0 20 0;
#X connect 17 1 20 1;
#X connect 17 2 20 2;
#X connect 18 0 14 0;
#X connect 18 1 17 0;
#X connect 20 0 19 0;
#X connect 22 0 24 0;
#X connect 24 0 23 0;
#X connect 25 0 21 0;
#X connect 26 0 24 1;
#X connect 26 0 25 1;
#X connect 26 0 27 1;
#X connect 26 0 28 1;
#X connect 27 0 76 0;
#X connect 28 0 0 0;
#X connect 31 0 30 0;
#X connect 32 0 30 0;
#X connect 33 0 30 0;
#X connect 34 0 30 0;
#X connect 35 0 30 0;
#X connect 37 0 38 0;
#X connect 39 0 36 0;
#X connect 40 0 36 0;
#X connect 41 0 36 0;
#X connect 42 0 39 0;
#X connect 43 0 40 0;
#X connect 45 0 44 0;
#X connect 46 0 44 0;
#X connect 47 0 49 0;
#X connect 48 0 45 0;
#X connect 49 0 44 0;
#X connect 51 0 57 0;
#X connect 52 0 51 0;
#X connect 53 0 55 0;
#X connect 55 0 52 0;
#X connect 56 0 53 0;
#X connect 57 0 66 0;
#X connect 60 0 58 0;
#X connect 60 1 62 0;
#X connect 61 0 60 0;
#X connect 63 0 64 0;
#X connect 64 0 56 0;
#X connect 66 0 65 0;
#X connect 66 0 82 0;
#X connect 66 1 65 1;
#X connect 66 1 82 1;
#X connect 66 2 65 2;
#X connect 66 2 83 0;
#X connect 66 3 65 3;
#X connect 66 3 83 1;
#X connect 67 0 66 1;
#X connect 67 1 66 1;
#X connect 68 0 50 0;
#X connect 68 1 69 0;
#X connect 70 0 27 0;
#X connect 72 0 66 2;
#X connect 72 1 66 2;
#X connect 73 0 66 3;
#X connect 73 1 66 3;
#X connect 74 0 66 4;
#X connect 74 1 66 4;
#X connect 76 0 77 0;
#X connect 76 1 78 0;
#X connect 76 2 79 0;
#X connect 76 3 80 0;
#X connect 76 4 75 0;
#X connect 77 0 67 0;
#X connect 78 0 72 0;
#X connect 79 0 73 0;
#X connect 80 0 74 0;
#X connect 82 0 81 0;
#X connect 83 0 81 1;
#X connect 84 0 81 0;
