#N canvas 622 117 1423 950 10;
#X declare -lib iemmatrix;
#X obj -102 1053 s StreamSet;
#X msg 108 973 disconnect;
#X msg -86 847 mpeg 44100 64 1 4;
#X msg 23 1030 shoutcast;
#X msg 86 916 connect rpu.somafm.com 9191;
#X msg -102 915 passwd polar:polarfeedpoint;
#N canvas 663 203 1616 1046 bell 0;
#X msg 404 531 hit 0;
#X msg 187 415 users \$1;
#X obj 186 368 hsl 128 15 0 1 0 0 empty empty empty -2 -8 0 10 -262144
-1 -1 0 1;
#X obj 510 633 modalBarUI~;
#X obj 472 414 bng 15 250 50 0 empty empty empty 17 7 0 10 -262144
-1 -1;
#X msg -83 490 b \$1;
#X floatatom -82 391 5 0 0 0 - - -;
#X text -118 373 choose your bell;
#X obj 404 503 pipe 2;
#X floatatom 211 396 5 0 0 0 - - -;
#X obj 183 334 clip 0 1;
#X msg 741 506 hit 1;
#X msg 680 503 hit 0;
#X obj 700 399 bng 15 250 50 0 empty empty empty 17 7 0 10 -262144
-1 -1;
#X obj 683 363 sel 0 1;
#X obj 639 546 modalBarUI~;
#X msg 407 291 users \$1;
#X obj 401 141 hsl 128 15 0 1 0 0 empty empty empty -2 -8 0 10 -262144
-1 -1 0 1;
#X msg 926 512 b \$1;
#X floatatom 1013 77 5 0 0 0 - - -;
#X text 977 59 choose your bell;
#X floatatom 763 436 5 0 0 0 - - -;
#X floatatom 441 479 5 0 0 0 - - -;
#X obj 484 509 f 2;
#X msg 485 541 hit \$1;
#X floatatom 496 481 5 0 0 0 - - -;
#X text -171 623 maybe add something that will be directly linked with
user click \, which influences the wave pattern process which creates
variation in the strike pattern;
#X obj 999 209 t f f;
#X obj 400 110 clip 0 1;
#X obj 472 437 t b b;
#X obj 701 743 outlet~;
#X obj 677 12 inlet;
#X obj 683 433 t b b;
#X msg 895 35 /level \$1;
#X obj 899 4 hsl 128 15 0 1 0 0 empty empty empty -2 -8 0 10 -262144
-1 -1 0 1;
#X obj 183 304 + 0.009;
#X obj 681 477 pipe 2;
#X obj 680 55 OSCroute /level /click /bell;
#N canvas 591 321 1223 668 temp_random_pendulum 0;
#X obj 181 256 metro 100;
#X obj 181 226 tgl 15 0 empty empty empty 17 7 0 10 -262144 -1 -1 0
1;
#X obj 130 348 metro 100;
#X obj 130 321 tgl 15 0 empty empty empty 17 7 0 10 -262144 -1 -1 0
1;
#X obj 130 378 decide;
#X floatatom 280 242 5 0 0 0 - - -;
#X floatatom 282 276 5 0 0 0 - - -;
#X obj 181 133 t b b;
#X msg 181 191 0;
#X msg 219 191 1;
#X obj 181 280 random 773;
#X obj 180 314 + 25;
#X obj 181 163 del 500;
#X obj 174 90 inlet;
#X obj 143 478 outlet;
#X connect 0 0 10 0;
#X connect 1 0 0 0;
#X connect 1 0 3 0;
#X connect 2 0 4 0;
#X connect 3 0 2 0;
#X connect 4 0 14 0;
#X connect 5 0 10 1;
#X connect 6 0 11 1;
#X connect 7 0 12 0;
#X connect 7 1 9 0;
#X connect 8 0 1 0;
#X connect 9 0 1 0;
#X connect 10 0 11 0;
#X connect 11 0 2 1;
#X connect 12 0 8 0;
#X connect 13 0 7 0;
#X restore 656 290 pd temp_random_pendulum;
#X connect 0 0 3 0;
#X connect 1 0 3 0;
#X connect 2 0 1 0;
#X connect 2 0 9 0;
#X connect 3 1 30 0;
#X connect 4 0 29 0;
#X connect 5 0 3 0;
#X connect 6 0 5 0;
#X connect 8 0 0 0;
#X connect 10 0 2 0;
#X connect 11 0 15 0;
#X connect 12 0 15 0;
#X connect 13 0 32 0;
#X connect 14 0 4 0;
#X connect 14 1 13 0;
#X connect 15 1 30 0;
#X connect 16 0 15 0;
#X connect 17 0 16 0;
#X connect 17 0 35 0;
#X connect 18 0 15 0;
#X connect 18 0 3 0;
#X connect 19 0 18 0;
#X connect 21 0 36 1;
#X connect 22 0 8 1;
#X connect 23 0 24 0;
#X connect 24 0 3 0;
#X connect 25 0 23 1;
#X connect 28 0 17 0;
#X connect 29 0 8 0;
#X connect 29 1 23 0;
#X connect 31 0 37 0;
#X connect 32 0 36 0;
#X connect 32 1 11 0;
#X connect 33 0 37 0;
#X connect 34 0 33 0;
#X connect 35 0 10 0;
#X connect 36 0 12 0;
#X connect 37 0 28 0;
#X connect 37 1 38 0;
#X connect 37 2 18 0;
#X connect 38 0 14 0;
#X restore 886 908 pd bell;
#X msg 919 874 /bell 0;
#X msg 886 817 /click bang;
#X msg 799 821 /level \$1;
#X obj 919 847 loadbang;
#X obj 886 787 change;
#N canvas 883 204 1373 833 bell 0;
#X msg 404 531 hit 0;
#X msg 187 415 users \$1;
#X obj 186 368 hsl 128 15 0 1 0 0 empty empty empty -2 -8 0 10 -262144
-1 -1 0 1;
#X obj 510 633 modalBarUI~;
#X obj 472 414 bng 15 250 50 0 empty empty empty 17 7 0 10 -262144
-1 -1;
#X msg -83 490 b \$1;
#X floatatom -82 391 5 0 0 0 - - -;
#X text -118 373 choose your bell;
#X obj 404 503 pipe 2;
#X floatatom 211 396 5 0 0 0 - - -;
#X obj 183 334 clip 0 1;
#X msg 741 506 hit 1;
#X msg 680 503 hit 0;
#X obj 700 399 bng 15 250 50 0 empty empty empty 17 7 0 10 -262144
-1 -1;
#X obj 683 363 sel 0 1;
#X obj 639 546 modalBarUI~;
#X msg 407 291 users \$1;
#X obj 401 141 hsl 128 15 0 1 0 0 empty empty empty -2 -8 0 10 -262144
-1 -1 0 1;
#X msg 926 512 b \$1;
#X floatatom 1013 77 5 0 0 0 - - -;
#X text 977 59 choose your bell;
#X floatatom 763 436 5 0 0 0 - - -;
#X floatatom 441 479 5 0 0 0 - - -;
#X obj 484 509 f 2;
#X msg 485 541 hit \$1;
#X floatatom 496 481 5 0 0 0 - - -;
#X text -171 623 maybe add something that will be directly linked with
user click \, which influences the wave pattern process which creates
variation in the strike pattern;
#X obj 999 209 t f f;
#X obj 400 110 clip 0 1;
#X obj 472 437 t b b;
#X obj 701 743 outlet~;
#X obj 677 12 inlet;
#X obj 683 433 t b b;
#X msg 895 35 /level \$1;
#X obj 899 4 hsl 128 15 0 1 0 0 empty empty empty -2 -8 0 10 -262144
-1 -1 0 1;
#X obj 183 304 + 0.009;
#X obj 681 477 pipe 2;
#X obj 680 55 OSCroute /level /click /bell;
#N canvas 591 321 1223 668 temp_random_pendulum 0;
#X obj 181 256 metro 100;
#X obj 181 226 tgl 15 0 empty empty empty 17 7 0 10 -262144 -1 -1 0
1;
#X obj 130 348 metro 100;
#X obj 130 321 tgl 15 0 empty empty empty 17 7 0 10 -262144 -1 -1 0
1;
#X obj 130 378 decide;
#X floatatom 280 242 5 0 0 0 - - -;
#X floatatom 282 276 5 0 0 0 - - -;
#X obj 181 133 t b b;
#X msg 181 191 0;
#X msg 219 191 1;
#X obj 181 280 random 773;
#X obj 180 314 + 25;
#X obj 181 163 del 500;
#X obj 174 90 inlet;
#X obj 143 478 outlet;
#X connect 0 0 10 0;
#X connect 1 0 0 0;
#X connect 1 0 3 0;
#X connect 2 0 4 0;
#X connect 3 0 2 0;
#X connect 4 0 14 0;
#X connect 5 0 10 1;
#X connect 6 0 11 1;
#X connect 7 0 12 0;
#X connect 7 1 9 0;
#X connect 8 0 1 0;
#X connect 9 0 1 0;
#X connect 10 0 11 0;
#X connect 11 0 2 1;
#X connect 12 0 8 0;
#X connect 13 0 7 0;
#X restore 656 290 pd temp_random_pendulum;
#X connect 0 0 3 0;
#X connect 1 0 3 0;
#X connect 2 0 1 0;
#X connect 2 0 9 0;
#X connect 3 1 30 0;
#X connect 4 0 29 0;
#X connect 5 0 3 0;
#X connect 6 0 5 0;
#X connect 8 0 0 0;
#X connect 10 0 2 0;
#X connect 11 0 15 0;
#X connect 12 0 15 0;
#X connect 13 0 32 0;
#X connect 14 0 4 0;
#X connect 14 1 13 0;
#X connect 15 1 30 0;
#X connect 16 0 15 0;
#X connect 17 0 16 0;
#X connect 17 0 35 0;
#X connect 18 0 15 0;
#X connect 18 0 3 0;
#X connect 19 0 18 0;
#X connect 21 0 36 1;
#X connect 22 0 8 1;
#X connect 23 0 24 0;
#X connect 24 0 3 0;
#X connect 25 0 23 1;
#X connect 28 0 17 0;
#X connect 29 0 8 0;
#X connect 29 1 23 0;
#X connect 31 0 37 0;
#X connect 32 0 36 0;
#X connect 32 1 11 0;
#X connect 33 0 37 0;
#X connect 34 0 33 0;
#X connect 35 0 10 0;
#X connect 36 0 12 0;
#X connect 37 0 28 0;
#X connect 37 1 38 0;
#X connect 37 2 18 0;
#X connect 38 0 14 0;
#X restore 1083 905 pd bell;
#X msg 1083 814 /click bang;
#X msg 996 818 /level \$1;
#X obj 1116 844 loadbang;
#X obj 1083 784 change;
#X msg 1116 871 /bell 1;
#X msg 34 366 \$1 \$1 \$1 \$1;
#X floatatom 34 343 5 0 0 2 - - -;
#X obj 36 214 vsl 15 50 -100 0 0 0 empty empty empty 0 -9 0 10 -262144
-1 -1 0 1;
#X text -72 189 master gain (db);
#X obj 36 276 db2v;
#X floatatom 36 187 5 0 0 0 - - -;
#X obj 34 394 mtx_diag 0 0 0 0;
#X floatatom 960 109 5 0 0 0 - - -;
#X text 988 72 % cpu;
#X obj 960 69 dsp;
#X obj 960 49 tgl 15 0 empty empty dsp_ON/OFF 2 -8 0 10 -225271 -42246
-90881 0 1;
#X floatatom 973 89 5 0 0 0 - - -;
#X obj 36 120 loadbang;
#X msg 36 154 -100;
#X obj 365 516 dac~ 3 4 5 6;
#X obj 334 471 iemmatrix/mtx_mul~ 4 4 20;
#N canvas 476 484 1632 585 pendulum_bell 0;
#X msg 157 211 hit 1;
#X msg 202 242 hit 0;
#X obj 199 175 bng 15 250 50 0 empty empty empty 17 7 0 10 -262144
-1 -1;
#X obj 202 211 pipe 2;
#X obj 265 332 bellPend~;
#X obj 85 169 bng 15 250 50 0 empty empty empty 17 7 0 10 -262144 -1
-1;
#X text 109 167 hit me;
#X msg 34 238 poke 1;
#X msg 85 237 poke 0;
#X obj 85 205 pipe 10;
#X obj 267 12 inlet;
#X obj 290 438 outlet~;
#X obj 348 439 outlet~;
#X obj 268 75 route poke hit;
#X obj 290 399 *~ 20;
#X obj 348 397 *~ 20;
#X msg 398 231 hit 0;
#X obj 504 333 modalBarUI~;
#X obj 466 114 bng 15 250 50 0 empty empty empty 17 7 0 10 -262144
-1 -1;
#X obj 398 203 pipe 2;
#X floatatom 435 179 5 0 0 0 - - -;
#X obj 478 209 f 2;
#X msg 479 241 hit \$1;
#X floatatom 490 181 5 0 0 0 - - -;
#X obj 466 137 t b b;
#X obj 267 45 route pendulum bar;
#X obj 635 63 route hit;
#X connect 0 0 4 0;
#X connect 1 0 4 0;
#X connect 2 0 0 0;
#X connect 2 0 3 0;
#X connect 3 0 1 0;
#X connect 4 1 14 0;
#X connect 4 2 15 0;
#X connect 5 0 7 0;
#X connect 5 0 9 0;
#X connect 7 0 4 0;
#X connect 8 0 4 0;
#X connect 9 0 8 0;
#X connect 10 0 25 0;
#X connect 13 0 5 0;
#X connect 13 1 2 0;
#X connect 13 2 4 0;
#X connect 14 0 11 0;
#X connect 15 0 12 0;
#X connect 16 0 17 0;
#X connect 17 1 14 0;
#X connect 17 1 15 0;
#X connect 18 0 24 0;
#X connect 19 0 16 0;
#X connect 20 0 19 1;
#X connect 21 0 22 0;
#X connect 22 0 17 0;
#X connect 23 0 21 1;
#X connect 24 0 19 0;
#X connect 24 1 21 0;
#X connect 25 0 13 0;
#X connect 25 1 26 0;
#X connect 26 0 18 0;
#X connect 26 1 17 0;
#X restore 192 349 pd pendulum_bell;
#N canvas 517 324 1254 791 parse 0;
#X obj 502 215 unpack f f f f f f f f f;
#X obj 502 81 inlet;
#X msg 46 301 clicks \$1;
#X msg 124 301 level \$1;
#X obj 91 360 pp kerg;
#X msg 201 301 clicks \$1;
#X msg 279 301 level \$1;
#X obj 246 360 pp ganm;
#X msg 363 303 clicks \$1;
#X msg 441 303 level \$1;
#X obj 408 362 pp ve19;
#X msg 516 303 clicks \$1;
#X msg 594 303 level \$1;
#X obj 561 362 pp reyk;
#X msg 659 302 wave \$1;
#X obj 675 493 outlet;
#X obj 165 213 print;
#X obj 502 117 OSCroute /data;
#X obj 502 157 fromsymbol;
#X connect 0 0 2 0;
#X connect 0 1 3 0;
#X connect 0 2 5 0;
#X connect 0 3 6 0;
#X connect 0 4 8 0;
#X connect 0 5 9 0;
#X connect 0 6 11 0;
#X connect 0 7 12 0;
#X connect 0 8 14 0;
#X connect 1 0 17 0;
#X connect 2 0 4 0;
#X connect 3 0 4 0;
#X connect 4 0 15 0;
#X connect 5 0 7 0;
#X connect 6 0 7 0;
#X connect 7 0 15 0;
#X connect 8 0 10 0;
#X connect 9 0 10 0;
#X connect 10 0 15 0;
#X connect 11 0 13 0;
#X connect 12 0 13 0;
#X connect 13 0 15 0;
#X connect 14 0 15 0;
#X connect 17 0 18 0;
#X connect 18 0 0 0;
#X restore 281 176 pd parse;
#X obj 27 442 import iemmatrix;
#N canvas 90 629 904 621 pendulum_bell 0;
#X msg 348 198 hit 1;
#X msg 393 229 hit 0;
#X obj 390 162 bng 15 250 50 0 empty empty empty 17 7 0 10 -262144
-1 -1;
#X obj 393 198 pipe 2;
#X obj 456 287 bellPend~;
#X obj 276 156 bng 15 250 50 0 empty empty empty 17 7 0 10 -262144
-1 -1;
#X text 300 154 hit me;
#X msg 225 225 poke 1;
#X msg 276 224 poke 0;
#X obj 276 192 pipe 10;
#X obj 367 61 inlet;
#X obj 481 388 outlet~;
#X obj 539 391 outlet~;
#X obj 367 94 route poke hit;
#X obj 481 333 *~ 20;
#X obj 539 332 *~ 20;
#X connect 0 0 4 0;
#X connect 1 0 4 0;
#X connect 2 0 0 0;
#X connect 2 0 3 0;
#X connect 3 0 1 0;
#X connect 4 1 14 0;
#X connect 4 2 15 0;
#X connect 5 0 7 0;
#X connect 5 0 9 0;
#X connect 7 0 4 0;
#X connect 8 0 4 0;
#X connect 9 0 8 0;
#X connect 10 0 13 0;
#X connect 13 0 5 0;
#X connect 13 1 2 0;
#X connect 13 2 4 0;
#X connect 14 0 11 0;
#X connect 15 0 12 0;
#X restore 307 351 pd pendulum_bell;
#N canvas 90 629 904 621 pendulum_bell 0;
#X msg 348 198 hit 1;
#X msg 393 229 hit 0;
#X obj 390 162 bng 15 250 50 0 empty empty empty 17 7 0 10 -262144
-1 -1;
#X obj 393 198 pipe 2;
#X obj 456 319 bellPend~;
#X obj 276 156 bng 15 250 50 0 empty empty empty 17 7 0 10 -262144
-1 -1;
#X text 300 154 hit me;
#X msg 225 225 poke 1;
#X msg 276 224 poke 0;
#X obj 276 192 pipe 10;
#X obj 367 61 inlet;
#X obj 481 388 outlet~;
#X obj 539 391 outlet~;
#X obj 367 94 route poke hit;
#X obj 540 358 *~ 20;
#X obj 478 354 *~ 20;
#X connect 0 0 4 0;
#X connect 1 0 4 0;
#X connect 2 0 0 0;
#X connect 2 0 3 0;
#X connect 3 0 1 0;
#X connect 4 1 15 0;
#X connect 4 2 14 0;
#X connect 5 0 7 0;
#X connect 5 0 9 0;
#X connect 7 0 4 0;
#X connect 8 0 4 0;
#X connect 9 0 8 0;
#X connect 10 0 13 0;
#X connect 13 0 5 0;
#X connect 13 1 2 0;
#X connect 13 2 4 0;
#X connect 14 0 12 0;
#X connect 15 0 11 0;
#X restore 419 350 pd pendulum_bell;
#N canvas 90 629 904 621 pendulum_bell 0;
#X msg 348 198 hit 1;
#X msg 393 229 hit 0;
#X obj 390 162 bng 15 250 50 0 empty empty empty 17 7 0 10 -262144
-1 -1;
#X obj 393 198 pipe 2;
#X obj 456 319 bellPend~;
#X obj 276 156 bng 15 250 50 0 empty empty empty 17 7 0 10 -262144
-1 -1;
#X text 300 154 hit me;
#X msg 225 225 poke 1;
#X msg 276 224 poke 0;
#X obj 276 192 pipe 10;
#X obj 367 61 inlet;
#X obj 482 430 outlet~;
#X obj 540 433 outlet~;
#X obj 367 94 route poke hit;
#X obj 484 374 *~ 20;
#X obj 535 374 *~ 20;
#X connect 0 0 4 0;
#X connect 1 0 4 0;
#X connect 2 0 0 0;
#X connect 2 0 3 0;
#X connect 3 0 1 0;
#X connect 4 1 14 0;
#X connect 4 2 15 0;
#X connect 5 0 7 0;
#X connect 5 0 9 0;
#X connect 7 0 4 0;
#X connect 8 0 4 0;
#X connect 9 0 8 0;
#X connect 10 0 13 0;
#X connect 13 0 5 0;
#X connect 13 1 2 0;
#X connect 13 2 4 0;
#X connect 14 0 11 0;
#X connect 15 0 12 0;
#X restore 539 350 pd pendulum_bell;
#X floatatom 692 343 5 0 0 0 - - -;
#X obj 281 213 route kerg ganm ve19 reyk wave;
#N canvas 468 268 1766 1052 kerg 0;
#X obj 117 -537 route clicks level;
#X obj 117 -567 inlet;
#X obj 67 -294 change;
#X obj 67 -244 t b;
#X msg 169 -205 users \$1;
#X obj 172 -251 hsl 128 15 0.001 1 0 0 empty empty empty -2 -8 0 10
-262144 -1 -1 1371 1;
#X text 240 -206 0.0001 - 1;
#X obj 169 -444 change;
#X floatatom 226 -392 5 0 0 0 - - -;
#X obj 226 -431 f 1;
#X obj 228 -478 bng 15 250 50 0 empty empty empty 17 7 0 10 -262144
-1 -1;
#X obj 169 -379 / 12;
#X msg 949 -202 users \$1;
#X obj 948 -249 hsl 128 15 0 1 0 0 empty empty empty -2 -8 0 10 -262144
-1 -1 1496 1;
#X msg 861 -177 b \$1;
#X floatatom 862 -276 5 0 0 0 - - -;
#X text 826 -294 choose your bell;
#X floatatom 973 -221 5 0 0 0 - - -;
#X obj 169 91 outlet;
#X obj 169 6 pp pendulum;
#X obj 857 52 pp bar;
#X obj 135 -275 bng 15 250 50 0 empty empty empty 17 7 0 10 -262144
-1 -1;
#X obj 966 -343 + 0.009;
#X obj 346 -351 vsl 15 128 5 200 0 0 empty empty empty 0 -9 0 10 -262144
-1 -1 0 1;
#X msg 346 -210 amp \$1;
#X obj 420 -346 vsl 15 128 0.9999 1 0 0 empty empty empty 0 -9 0 10
-262144 -1 -1 0 1;
#X msg 420 -207 que \$1;
#X obj 493 -347 vsl 15 128 0 10 0 0 empty empty empty 0 -9 0 10 -262144
-1 -1 0 1;
#X msg 493 -204 fre \$1;
#X msg 598 -195 clapper \$1;
#X text 326 -373 5 - 200;
#X text 388 -373 0.9999 - 1;
#X text 478 -374 0 - 10;
#X obj 623 -117 loadbang;
#X msg 489 -66 fre 0.708661;
#X obj 487 -101 pp set;
#X msg 426 -64 que 0.999982;
#X obj 426 -98 pp set;
#X msg 349 -67 amp 107.874;
#X obj 348 -102 pp set;
#X msg 38 -112 pendulum poke bang \, bar hit bang;
#X msg 624 -64 b 0;
#X connect 0 0 2 0;
#X connect 0 1 7 0;
#X connect 0 1 9 1;
#X connect 1 0 0 0;
#X connect 2 0 3 0;
#X connect 3 0 40 0;
#X connect 4 0 19 0;
#X connect 5 0 4 0;
#X connect 7 0 11 0;
#X connect 9 0 8 0;
#X connect 9 0 11 0;
#X connect 10 0 9 0;
#X connect 11 0 5 0;
#X connect 11 0 22 0;
#X connect 12 0 20 0;
#X connect 13 0 12 0;
#X connect 13 0 17 0;
#X connect 14 0 20 0;
#X connect 15 0 14 0;
#X connect 19 0 18 0;
#X connect 20 0 18 0;
#X connect 21 0 3 0;
#X connect 22 0 13 0;
#X connect 23 0 24 0;
#X connect 24 0 39 0;
#X connect 25 0 26 0;
#X connect 26 0 37 0;
#X connect 27 0 28 0;
#X connect 28 0 35 0;
#X connect 33 0 34 0;
#X connect 33 0 36 0;
#X connect 33 0 38 0;
#X connect 33 0 41 0;
#X connect 34 0 19 0;
#X connect 35 0 34 0;
#X connect 36 0 19 0;
#X connect 37 0 36 0;
#X connect 38 0 19 0;
#X connect 39 0 38 0;
#X connect 40 0 18 0;
#X connect 41 0 20 0;
#X restore 193 306 pd kerg mapping;
#N canvas 412 510 1023 680 ganm 0;
#X obj 117 -537 route clicks level;
#X obj 117 -567 inlet;
#X obj 67 -294 change;
#X obj 67 -244 t b;
#X obj 169 37 outlet;
#X msg 169 -205 users \$1;
#X obj 172 -251 hsl 128 15 0.001 1 0 0 empty empty empty -2 -8 0 10
-262144 -1 -1 2226 1;
#X obj 435 -344 vsl 15 128 5 200 0 0 empty empty empty 0 -9 0 10 -262144
-1 -1 0 1;
#X msg 435 -203 amp \$1;
#X obj 509 -339 vsl 15 128 0.9999 1 0 0 empty empty empty 0 -9 0 10
-262144 -1 -1 0 1;
#X msg 509 -200 que \$1;
#X obj 582 -340 vsl 15 128 0 10 0 0 empty empty empty 0 -9 0 10 -262144
-1 -1 0 1;
#X msg 582 -197 fre \$1;
#X msg 687 -188 clapper \$1;
#X text 240 -206 0.0001 - 1;
#X text 415 -366 5 - 200;
#X text 477 -366 0.9999 - 1;
#X text 567 -367 0 - 10;
#X obj 169 -379 / 10;
#X obj 169 -444 change;
#X floatatom 226 -392 5 0 0 0 - - -;
#X obj 226 -431 f 1;
#X obj 228 -478 bng 15 250 50 0 empty empty empty 17 7 0 10 -262144
-1 -1;
#X msg 67 -204 poke bang;
#X obj 839 -103 loadbang;
#X msg 578 -59;
#X obj 576 -94 pp set;
#X msg 515 -57;
#X obj 515 -91 pp set;
#X msg 438 -60;
#X obj 437 -95 pp set;
#X connect 0 0 2 0;
#X connect 0 1 19 0;
#X connect 0 1 21 1;
#X connect 1 0 0 0;
#X connect 2 0 3 0;
#X connect 3 0 23 0;
#X connect 5 0 4 0;
#X connect 6 0 5 0;
#X connect 7 0 8 0;
#X connect 8 0 4 0;
#X connect 8 0 30 0;
#X connect 9 0 10 0;
#X connect 10 0 4 0;
#X connect 10 0 28 0;
#X connect 11 0 12 0;
#X connect 12 0 4 0;
#X connect 12 0 26 0;
#X connect 13 0 4 0;
#X connect 18 0 6 0;
#X connect 19 0 18 0;
#X connect 21 0 18 0;
#X connect 21 0 20 0;
#X connect 22 0 21 0;
#X connect 23 0 4 0;
#X connect 24 0 25 0;
#X connect 24 0 27 0;
#X connect 24 0 29 0;
#X connect 25 0 4 0;
#X connect 26 0 25 0;
#X connect 27 0 4 0;
#X connect 28 0 27 0;
#X connect 29 0 4 0;
#X connect 30 0 29 0;
#X restore 308 308 pd ganm mapping;
#N canvas 238 563 1023 680 ve19 0;
#X obj 117 -537 route clicks level;
#X obj 117 -567 inlet;
#X obj 67 -294 change;
#X obj 67 -244 t b;
#X obj 169 -31 outlet;
#X msg 169 -205 users \$1;
#X obj 172 -251 hsl 128 15 0.001 1 0 0 empty empty empty -2 -8 0 10
-262144 -1 -1 0 1;
#X obj 435 -344 vsl 15 128 5 200 0 0 empty empty empty 0 -9 0 10 -262144
-1 -1 0 1;
#X msg 435 -203 amp \$1;
#X obj 509 -339 vsl 15 128 0.9999 1 0 0 empty empty empty 0 -9 0 10
-262144 -1 -1 0 1;
#X msg 509 -200 que \$1;
#X obj 582 -340 vsl 15 128 0 10 0 0 empty empty empty 0 -9 0 10 -262144
-1 -1 0 1;
#X msg 582 -197 fre \$1;
#X msg 687 -188 clapper \$1;
#X text 240 -206 0.0001 - 1;
#X text 415 -366 5 - 200;
#X text 477 -366 0.9999 - 1;
#X text 567 -367 0 - 10;
#X obj 169 -379 / 10;
#X obj 169 -444 change;
#X floatatom 226 -392 5 0 0 0 - - -;
#X obj 226 -431 f 1;
#X obj 228 -478 bng 15 250 50 0 empty empty empty 17 7 0 10 -262144
-1 -1;
#X msg 67 -204 poke bang;
#X connect 0 0 2 0;
#X connect 0 1 19 0;
#X connect 0 1 21 1;
#X connect 1 0 0 0;
#X connect 2 0 3 0;
#X connect 3 0 23 0;
#X connect 5 0 4 0;
#X connect 6 0 5 0;
#X connect 7 0 8 0;
#X connect 8 0 4 0;
#X connect 9 0 10 0;
#X connect 10 0 4 0;
#X connect 11 0 12 0;
#X connect 12 0 4 0;
#X connect 13 0 4 0;
#X connect 18 0 6 0;
#X connect 19 0 18 0;
#X connect 21 0 18 0;
#X connect 21 0 20 0;
#X connect 22 0 21 0;
#X connect 23 0 4 0;
#X restore 420 307 pd ve19 mapping;
#N canvas 238 563 1023 680 reyk 0;
#X obj 117 -537 route clicks level;
#X obj 117 -567 inlet;
#X obj 67 -294 change;
#X obj 67 -244 t b;
#X obj 169 -31 outlet;
#X msg 169 -205 users \$1;
#X obj 172 -251 hsl 128 15 0.001 1 0 0 empty empty empty -2 -8 0 10
-262144 -1 -1 1725 1;
#X obj 435 -344 vsl 15 128 5 200 0 0 empty empty empty 0 -9 0 10 -262144
-1 -1 0 1;
#X msg 435 -203 amp \$1;
#X obj 509 -339 vsl 15 128 0.9999 1 0 0 empty empty empty 0 -9 0 10
-262144 -1 -1 0 1;
#X msg 509 -200 que \$1;
#X obj 582 -340 vsl 15 128 0 10 0 0 empty empty empty 0 -9 0 10 -262144
-1 -1 0 1;
#X msg 582 -197 fre \$1;
#X msg 687 -188 clapper \$1;
#X text 240 -206 0.0001 - 1;
#X text 415 -366 5 - 200;
#X text 477 -366 0.9999 - 1;
#X text 567 -367 0 - 10;
#X obj 169 -379 / 10;
#X obj 169 -444 change;
#X floatatom 226 -392 5 0 0 0 - - -;
#X obj 226 -431 f 1;
#X obj 228 -478 bng 15 250 50 0 empty empty empty 17 7 0 10 -262144
-1 -1;
#X msg 67 -204 poke bang;
#X connect 0 0 2 0;
#X connect 0 1 19 0;
#X connect 0 1 21 1;
#X connect 1 0 0 0;
#X connect 2 0 3 0;
#X connect 3 0 23 0;
#X connect 5 0 4 0;
#X connect 6 0 5 0;
#X connect 7 0 8 0;
#X connect 8 0 4 0;
#X connect 9 0 10 0;
#X connect 10 0 4 0;
#X connect 11 0 12 0;
#X connect 12 0 4 0;
#X connect 13 0 4 0;
#X connect 18 0 6 0;
#X connect 19 0 18 0;
#X connect 21 0 18 0;
#X connect 21 0 20 0;
#X connect 22 0 21 0;
#X connect 23 0 4 0;
#X restore 540 307 pd reyk mapping;
#X obj 383 624 mp3cast~;
#X obj 234 572 +~;
#X obj 479 558 +~;
#X obj 380 579 r StreamSet;
#X obj 281 126 mrpeach/unpackOSC;
#X obj 281 98 mrpeach/udpreceive 12000;
#X msg 840 372;
#X msg 877 374;
#X msg 974 373;
#X msg 1011 375;
#X connect 1 0 0 0;
#X connect 2 0 0 0;
#X connect 3 0 0 0;
#X connect 4 0 0 0;
#X connect 5 0 0 0;
#X connect 7 0 6 0;
#X connect 8 0 6 0;
#X connect 9 0 6 0;
#X connect 10 0 7 0;
#X connect 11 0 8 0;
#X connect 13 0 12 0;
#X connect 14 0 12 0;
#X connect 15 0 17 0;
#X connect 16 0 13 0;
#X connect 17 0 12 0;
#X connect 18 0 24 0;
#X connect 19 0 18 0;
#X connect 20 0 22 0;
#X connect 22 0 19 0;
#X connect 23 0 20 0;
#X connect 24 0 33 0;
#X connect 27 0 25 0;
#X connect 27 1 29 0;
#X connect 28 0 27 0;
#X connect 30 0 31 0;
#X connect 31 0 23 0;
#X connect 33 0 32 0;
#X connect 33 0 47 0;
#X connect 33 1 32 1;
#X connect 33 1 47 1;
#X connect 33 2 32 2;
#X connect 33 2 48 0;
#X connect 33 3 32 3;
#X connect 33 3 48 1;
#X connect 34 0 33 1;
#X connect 34 1 33 1;
#X connect 35 0 41 0;
#X connect 37 0 33 2;
#X connect 37 1 33 2;
#X connect 38 0 33 3;
#X connect 38 1 33 3;
#X connect 39 0 33 4;
#X connect 39 1 33 4;
#X connect 41 0 42 0;
#X connect 41 1 43 0;
#X connect 41 2 44 0;
#X connect 41 3 45 0;
#X connect 41 4 40 0;
#X connect 42 0 34 0;
#X connect 43 0 37 0;
#X connect 44 0 38 0;
#X connect 45 0 39 0;
#X connect 47 0 46 0;
#X connect 48 0 46 1;
#X connect 49 0 46 0;
#X connect 50 0 35 0;
#X connect 51 0 50 0;
