#N canvas 632 227 1157 851 10;
#X declare -lib iemmatrix;
#X obj 356 265 vsl 15 50 -100 0 0 0 empty empty empty 0 -9 0 10 -262144
-1 -1 4400 1;
#X floatatom 356 236 5 0 0 0 - - -;
#X floatatom -44 434 5 0 0 0 - - -;
#X text -16 397 % cpu;
#X obj -44 394 dsp;
#X obj -44 374 tgl 15 0 empty empty dsp_ON/OFF 2 -8 0 10 -225271 -42246
-90881 0 1;
#X floatatom -31 414 5 0 0 0 - - -;
#X obj 242 111 loadbang;
#X msg 356 213 -100;
#X obj 612 410 import iemmatrix;
#X msg 21 -22;
#X msg 58 -23;
#X msg 185 -26;
#X msg 221 -27;
#X msg 353 -25;
#X msg 390 -25;
#X msg 537 -29;
#X msg 574 -27;
#N canvas 1108 670 1095 455 mp3_cast 0;
#X obj 625 -18593 s StreamSet;
#X msg 835 -18673 disconnect;
#X msg 641 -18799 mpeg 44100 64 1 4;
#X msg 750 -18616 shoutcast;
#X msg 813 -18730 connect rpu.somafm.com 9191;
#X msg 625 -18731 passwd polar:polarfeedpoint;
#X obj 221 -18636 mp3cast~;
#X obj 159 -18679 +~;
#X obj 319 -18683 +~;
#X obj 218 -18681 r StreamSet;
#X obj 97 -18793 inlet~;
#X obj 147 -18793 inlet~;
#X obj 197 -18793 inlet~;
#X obj 247 -18793 inlet~;
#X obj 297 -18793 inlet~;
#X obj 347 -18793 inlet~;
#X obj 397 -18793 inlet~;
#X obj 447 -18793 inlet~;
#X connect 1 0 0 0;
#X connect 2 0 0 0;
#X connect 3 0 0 0;
#X connect 4 0 0 0;
#X connect 5 0 0 0;
#X connect 7 0 6 0;
#X connect 8 0 6 1;
#X connect 9 0 6 0;
#X restore 428 520 pd mp3_cast;
#X obj 229 523 dac~ 3 4 5 6 7 8 9 10;
#X text 376 283 bells gain (db);
#X obj 242 215 vsl 20 100 -100 0 0 0 empty empty empty 0 -9 0 10 -262144
-1 -1 9200 1;
#X floatatom 242 188 5 0 0 0 - - -;
#X msg 242 155 -100;
#X text 134 190 master gain (db);
#X obj 492 267 vsl 15 50 -100 0 0 0 empty empty empty 0 -9 0 10 -262144
-1 -1 3900 1;
#X floatatom 492 240 5 0 0 0 - - -;
#X msg 492 207 -100;
#X msg 356 341 bells_gain \$1;
#X text 516 272 oil gain (db);
#X obj 622 269 vsl 15 50 -100 0 0 0 empty empty empty 0 -9 0 10 -262144
-1 -1 4500 1;
#X floatatom 622 242 5 0 0 0 - - -;
#X msg 622 209 -100;
#X msg 242 341 master_gain \$1;
#N canvas 1020 327 697 404 _________________________________________________________
0;
#N canvas 1147 294 1203 540 water_bells 0;
#X obj 136 176 db2v;
#N canvas 785 709 450 300 8ch_diag 0;
#X floatatom 81 90 5 0 0 2 - - -;
#X obj 81 141 mtx_diag 0 0 0 0 0 0 0 0;
#X msg 81 113 \$1 \$1 \$1 \$1 \$1 \$1 \$1 \$1;
#X obj 81 40 inlet;
#X obj 81 189 outlet;
#X connect 0 0 2 0;
#X connect 1 0 4 0;
#X connect 2 0 1 0;
#X connect 3 0 0 0;
#X restore 135 210 pd 8ch_diag;
#X obj 255 382 iemmatrix/mtx_mul~ 8 8 20 ____________________________________________________________
;
#N canvas 426 644 1632 585 belle 0;
#X msg 157 211 hit 1;
#X msg 202 242 hit 0;
#X obj 199 175 bng 15 250 50 0 empty empty empty 17 7 0 10 -262144
-1 -1;
#X obj 202 211 pipe 2;
#X obj 265 332 bellPend~;
#X obj 85 169 bng 15 250 50 0 empty empty empty 17 7 0 10 -262144 -1
-1;
#X text 109 167 hit me;
#X msg 34 238 poke 1;
#X msg 85 237 poke 0;
#X obj 85 205 pipe 10;
#X obj 267 12 inlet;
#X obj 290 438 outlet~;
#X obj 348 439 outlet~;
#X obj 268 75 route poke hit;
#X obj 290 399 *~ 20;
#X obj 348 397 *~ 20;
#X msg 398 231 hit 0;
#X obj 504 333 modalBarUI~;
#X obj 466 114 bng 15 250 50 0 empty empty empty 17 7 0 10 -262144
-1 -1;
#X obj 398 203 pipe 2;
#X floatatom 435 179 5 0 0 0 - - -;
#X obj 478 209 f 2;
#X msg 479 241 hit \$1;
#X floatatom 490 181 5 0 0 0 - - -;
#X obj 466 137 t b b;
#X obj 267 45 route pendulum bar;
#X obj 635 63 route hit;
#X connect 0 0 4 0;
#X connect 1 0 4 0;
#X connect 2 0 0 0;
#X connect 2 0 3 0;
#X connect 3 0 1 0;
#X connect 4 1 14 0;
#X connect 4 2 15 0;
#X connect 5 0 7 0;
#X connect 5 0 9 0;
#X connect 7 0 4 0;
#X connect 8 0 4 0;
#X connect 9 0 8 0;
#X connect 10 0 25 0;
#X connect 13 0 5 0;
#X connect 13 1 2 0;
#X connect 13 2 4 0;
#X connect 14 0 11 0;
#X connect 15 0 12 0;
#X connect 16 0 17 0;
#X connect 17 1 14 0;
#X connect 17 1 15 0;
#X connect 18 0 24 0;
#X connect 19 0 16 0;
#X connect 20 0 19 1;
#X connect 21 0 22 0;
#X connect 22 0 17 0;
#X connect 23 0 21 1;
#X connect 24 0 19 0;
#X connect 24 1 21 0;
#X connect 25 0 13 0;
#X connect 25 1 26 0;
#X connect 26 0 18 0;
#X connect 26 1 17 0;
#X restore 248 248 pd belle;
#X obj 420 74 inlet;
#X text 637 335 << speaker array 1-8 (re-route here for bells based
on speaker setup);
#X obj 255 433 outlet~;
#X obj 305 433 outlet~;
#X obj 355 433 outlet~;
#X obj 407 433 outlet~;
#X obj 457 433 outlet~;
#X obj 507 433 outlet~;
#X obj 559 433 outlet~;
#X obj 609 433 outlet~;
#X obj 967 160 outlet;
#X text 935 187 delegation outlet;
#X obj 419 112 route bells_gain kerg ganm ve19 reyk;
#N canvas 426 644 1632 585 belle 0;
#X msg 157 211 hit 1;
#X msg 202 242 hit 0;
#X obj 199 175 bng 15 250 50 0 empty empty empty 17 7 0 10 -262144
-1 -1;
#X obj 202 211 pipe 2;
#X obj 265 332 bellPend~;
#X obj 85 169 bng 15 250 50 0 empty empty empty 17 7 0 10 -262144 -1
-1;
#X text 109 167 hit me;
#X msg 34 238 poke 1;
#X msg 85 237 poke 0;
#X obj 85 205 pipe 10;
#X obj 267 12 inlet;
#X obj 290 438 outlet~;
#X obj 348 439 outlet~;
#X obj 268 75 route poke hit;
#X obj 290 399 *~ 20;
#X obj 348 397 *~ 20;
#X msg 398 231 hit 0;
#X obj 504 333 modalBarUI~;
#X obj 466 114 bng 15 250 50 0 empty empty empty 17 7 0 10 -262144
-1 -1;
#X obj 398 203 pipe 2;
#X floatatom 435 179 5 0 0 0 - - -;
#X obj 478 209 f 2;
#X msg 479 241 hit \$1;
#X floatatom 490 181 5 0 0 0 - - -;
#X obj 466 137 t b b;
#X obj 267 45 route pendulum bar;
#X obj 635 63 route hit;
#X connect 0 0 4 0;
#X connect 1 0 4 0;
#X connect 2 0 0 0;
#X connect 2 0 3 0;
#X connect 3 0 1 0;
#X connect 4 1 14 0;
#X connect 4 2 15 0;
#X connect 5 0 7 0;
#X connect 5 0 9 0;
#X connect 7 0 4 0;
#X connect 8 0 4 0;
#X connect 9 0 8 0;
#X connect 10 0 25 0;
#X connect 13 0 5 0;
#X connect 13 1 2 0;
#X connect 13 2 4 0;
#X connect 14 0 11 0;
#X connect 15 0 12 0;
#X connect 16 0 17 0;
#X connect 17 1 14 0;
#X connect 17 1 15 0;
#X connect 18 0 24 0;
#X connect 19 0 16 0;
#X connect 20 0 19 1;
#X connect 21 0 22 0;
#X connect 22 0 17 0;
#X connect 23 0 21 1;
#X connect 24 0 19 0;
#X connect 24 1 21 0;
#X connect 25 0 13 0;
#X connect 25 1 26 0;
#X connect 26 0 18 0;
#X connect 26 1 17 0;
#X restore 363 250 pd belle;
#N canvas 426 644 1632 585 belle 0;
#X msg 157 211 hit 1;
#X msg 202 242 hit 0;
#X obj 199 175 bng 15 250 50 0 empty empty empty 17 7 0 10 -262144
-1 -1;
#X obj 202 211 pipe 2;
#X obj 265 332 bellPend~;
#X obj 85 169 bng 15 250 50 0 empty empty empty 17 7 0 10 -262144 -1
-1;
#X text 109 167 hit me;
#X msg 34 238 poke 1;
#X msg 85 237 poke 0;
#X obj 85 205 pipe 10;
#X obj 267 12 inlet;
#X obj 290 438 outlet~;
#X obj 348 439 outlet~;
#X obj 268 75 route poke hit;
#X obj 290 399 *~ 20;
#X obj 348 397 *~ 20;
#X msg 398 231 hit 0;
#X obj 504 333 modalBarUI~;
#X obj 466 114 bng 15 250 50 0 empty empty empty 17 7 0 10 -262144
-1 -1;
#X obj 398 203 pipe 2;
#X floatatom 435 179 5 0 0 0 - - -;
#X obj 478 209 f 2;
#X msg 479 241 hit \$1;
#X floatatom 490 181 5 0 0 0 - - -;
#X obj 466 137 t b b;
#X obj 267 45 route pendulum bar;
#X obj 635 63 route hit;
#X connect 0 0 4 0;
#X connect 1 0 4 0;
#X connect 2 0 0 0;
#X connect 2 0 3 0;
#X connect 3 0 1 0;
#X connect 4 1 14 0;
#X connect 4 2 15 0;
#X connect 5 0 7 0;
#X connect 5 0 9 0;
#X connect 7 0 4 0;
#X connect 8 0 4 0;
#X connect 9 0 8 0;
#X connect 10 0 25 0;
#X connect 13 0 5 0;
#X connect 13 1 2 0;
#X connect 13 2 4 0;
#X connect 14 0 11 0;
#X connect 15 0 12 0;
#X connect 16 0 17 0;
#X connect 17 1 14 0;
#X connect 17 1 15 0;
#X connect 18 0 24 0;
#X connect 19 0 16 0;
#X connect 20 0 19 1;
#X connect 21 0 22 0;
#X connect 22 0 17 0;
#X connect 23 0 21 1;
#X connect 24 0 19 0;
#X connect 24 1 21 0;
#X connect 25 0 13 0;
#X connect 25 1 26 0;
#X connect 26 0 18 0;
#X connect 26 1 17 0;
#X restore 472 248 pd belle;
#N canvas 426 644 1632 585 belle 0;
#X msg 157 211 hit 1;
#X msg 202 242 hit 0;
#X obj 199 175 bng 15 250 50 0 empty empty empty 17 7 0 10 -262144
-1 -1;
#X obj 202 211 pipe 2;
#X obj 265 332 bellPend~;
#X obj 85 169 bng 15 250 50 0 empty empty empty 17 7 0 10 -262144 -1
-1;
#X text 109 167 hit me;
#X msg 34 238 poke 1;
#X msg 85 237 poke 0;
#X obj 85 205 pipe 10;
#X obj 267 12 inlet;
#X obj 290 438 outlet~;
#X obj 348 439 outlet~;
#X obj 268 75 route poke hit;
#X obj 290 399 *~ 20;
#X obj 348 397 *~ 20;
#X msg 398 231 hit 0;
#X obj 504 333 modalBarUI~;
#X obj 466 114 bng 15 250 50 0 empty empty empty 17 7 0 10 -262144
-1 -1;
#X obj 398 203 pipe 2;
#X floatatom 435 179 5 0 0 0 - - -;
#X obj 478 209 f 2;
#X msg 479 241 hit \$1;
#X floatatom 490 181 5 0 0 0 - - -;
#X obj 466 137 t b b;
#X obj 267 45 route pendulum bar;
#X obj 635 63 route hit;
#X connect 0 0 4 0;
#X connect 1 0 4 0;
#X connect 2 0 0 0;
#X connect 2 0 3 0;
#X connect 3 0 1 0;
#X connect 4 1 14 0;
#X connect 4 2 15 0;
#X connect 5 0 7 0;
#X connect 5 0 9 0;
#X connect 7 0 4 0;
#X connect 8 0 4 0;
#X connect 9 0 8 0;
#X connect 10 0 25 0;
#X connect 13 0 5 0;
#X connect 13 1 2 0;
#X connect 13 2 4 0;
#X connect 14 0 11 0;
#X connect 15 0 12 0;
#X connect 16 0 17 0;
#X connect 17 1 14 0;
#X connect 17 1 15 0;
#X connect 18 0 24 0;
#X connect 19 0 16 0;
#X connect 20 0 19 1;
#X connect 21 0 22 0;
#X connect 22 0 17 0;
#X connect 23 0 21 1;
#X connect 24 0 19 0;
#X connect 24 1 21 0;
#X connect 25 0 13 0;
#X connect 25 1 26 0;
#X connect 26 0 18 0;
#X connect 26 1 17 0;
#X restore 588 250 pd belle;
#N canvas 1134 314 1389 945 ganm 0;
#X obj 352 -498 route clicks level;
#X obj 352 -528 inlet;
#X obj 404 -375 change;
#X floatatom 461 -323 5 0 0 0 - - -;
#X obj 461 -362 f 1;
#X obj 463 -409 bng 15 250 50 0 empty empty empty 17 7 0 10 -262144
-1 -1;
#X obj 407 222 outlet;
#X obj 40 -144 bng 15 250 50 0 empty empty empty 17 7 0 10 -262144
-1 -1;
#X obj 527 -211 + 0.009;
#X msg 88 -109 pendulum poke bang \, bar hit bang;
#X obj 404 -270 expr ($f1 + 4) / 8;
#X obj 181 -428 change;
#X obj 208 -366 delta;
#X obj 208 -329 - 1;
#X msg 527 -179 bar users \$1;
#N canvas 575 148 1433 977 level_check_and_defaults 0;
#X msg 180 -74 users \$1;
#X obj 183 -120 hsl 128 15 0.001 1 0 0 empty empty empty -2 -8 0 10
-262144 -1 -1 9295 1;
#X text 251 -75 0.0001 - 1;
#X msg 1057 -21 users \$1;
#X obj 1060 -83 hsl 128 15 0 1 0 0 empty empty empty -2 -8 0 10 -262144
-1 -1 9412 1;
#X msg 978 -13 b \$1;
#X floatatom 978 -42 5 0 0 0 - - -;
#X text 942 -60 choose your bell;
#X floatatom 1085 -55 5 0 0 0 - - -;
#X obj 180 137 pp pendulum;
#X obj 981 416 pp bar;
#X obj 357 -120 vsl 15 128 5 200 0 0 empty empty empty 0 -9 0 10 -262144
-1 -1 6700 1;
#X msg 357 21 amp \$1;
#X obj 431 -115 vsl 15 128 0.9999 1 0 0 empty empty empty 0 -9 0 10
-262144 -1 -1 10414 1;
#X msg 431 24 que \$1;
#X obj 523 -116 vsl 15 128 0 10 0 0 empty empty empty 0 -9 0 10 -262144
-1 -1 0 1;
#X msg 523 27 fre \$1;
#X msg 604 28 clapper \$1;
#X text 366 50 5 - 200;
#X text 441 51 0.9999 - 1;
#X text 545 55 0 - 10;
#X obj 704 189 loadbang;
#X msg 589 226 que 0.999982;
#X obj 589 192 pp set;
#X msg 512 223 amp 107.874;
#X obj 511 188 pp set;
#X msg 766 234 b 0;
#N canvas 1381 385 450 300 thru 0;
#X obj 96 64 inlet;
#X obj 94 98 outlet;
#X connect 0 0 1 0;
#X restore 810 -262 pd thru;
#N canvas 1381 385 450 300 thru 0;
#X obj 96 64 inlet;
#X obj 94 98 outlet;
#X connect 0 0 1 0;
#X restore 827 343 pd thru;
#X floatatom 108 -74 5 0 0 0 - - -;
#X text 64 -53 current value;
#X text 1131 -60 current value;
#X msg 692 233 fre 0;
#X obj 213 -207 route pendulum bar;
#X obj 213 -172 route users amp que fre;
#X obj 763 301 pp bar;
#X obj 975 -121 route b users;
#X obj 214 -314 inlet;
#X obj 180 494 outlet;
#X text 686 149 defaults;
#X obj 510 310 pp pendulum;
#X msg 567 543 que 0.999982;
#X msg 486 544 amp 107.874;
#X text 561 511 backup defaults;
#X connect 0 0 9 0;
#X connect 1 0 0 0;
#X connect 1 0 29 0;
#X connect 3 0 10 0;
#X connect 4 0 3 0;
#X connect 4 0 8 0;
#X connect 5 0 10 0;
#X connect 6 0 5 0;
#X connect 9 0 38 0;
#X connect 10 0 38 0;
#X connect 11 0 12 0;
#X connect 12 0 25 0;
#X connect 12 0 9 0;
#X connect 13 0 14 0;
#X connect 14 0 23 0;
#X connect 14 0 9 0;
#X connect 15 0 16 0;
#X connect 16 0 9 0;
#X connect 21 0 32 0;
#X connect 21 0 22 0;
#X connect 21 0 24 0;
#X connect 21 0 26 0;
#X connect 22 0 40 0;
#X connect 23 0 22 0;
#X connect 24 0 40 0;
#X connect 25 0 24 0;
#X connect 26 0 35 0;
#X connect 27 0 33 0;
#X connect 28 0 27 0;
#X connect 32 0 40 0;
#X connect 33 0 34 0;
#X connect 33 1 36 0;
#X connect 34 0 1 0;
#X connect 34 1 11 0;
#X connect 34 2 13 0;
#X connect 34 3 15 0;
#X connect 35 0 28 0;
#X connect 36 0 6 0;
#X connect 36 1 4 0;
#X connect 37 0 33 0;
#X connect 40 0 28 0;
#X restore 402 -71 pd level_check_and_defaults;
#X msg 208 -291 pendulum fre \$1;
#X floatatom 358 -236 5 0 0 0 - - -;
#X msg 402 -175 pendulum users \$1;
#X obj 181 -395 t b f;
#X connect 0 0 11 0;
#X connect 0 1 2 0;
#X connect 0 1 4 1;
#X connect 1 0 0 0;
#X connect 2 0 10 0;
#X connect 4 0 3 0;
#X connect 4 0 10 0;
#X connect 5 0 4 0;
#X connect 7 0 9 0;
#X connect 8 0 14 0;
#X connect 9 0 6 0;
#X connect 10 0 8 0;
#X connect 10 0 18 0;
#X connect 10 0 17 0;
#X connect 11 0 19 0;
#X connect 12 0 13 0;
#X connect 13 0 16 0;
#X connect 14 0 15 0;
#X connect 15 0 6 0;
#X connect 16 0 15 0;
#X connect 18 0 15 0;
#X connect 19 0 9 0;
#X connect 19 1 12 0;
#X restore 364 185 pd ganm mapping;
#N canvas 280 323 743 901 kerg 0;
#X obj 352 -498 route clicks level;
#X obj 352 -528 inlet;
#X obj 404 -375 change;
#X floatatom 461 -323 5 0 0 0 - - -;
#X obj 461 -362 f 1;
#X obj 463 -409 bng 15 250 50 0 empty empty empty 17 7 0 10 -262144
-1 -1;
#X obj 407 222 outlet;
#X obj 40 -144 bng 15 250 50 0 empty empty empty 17 7 0 10 -262144
-1 -1;
#X obj 527 -211 + 0.009;
#X msg 141 -119 pendulum poke bang \, bar hit bang;
#X obj 404 -270 expr ($f1 + 4) / 8;
#X obj 181 -428 change;
#X obj 208 -366 delta;
#X obj 208 -329 - 1;
#X msg 527 -179 bar users \$1;
#N canvas 575 148 1433 977 level_check_and_defaults 0;
#X msg 180 -74 users \$1;
#X obj 183 -120 hsl 128 15 0.001 1 0 0 empty empty empty -2 -8 0 10
-262144 -1 -1 8419 1;
#X text 251 -75 0.0001 - 1;
#X msg 1057 -21 users \$1;
#X obj 1060 -83 hsl 128 15 0 1 0 0 empty empty empty -2 -8 0 10 -262144
-1 -1 8538 1;
#X msg 978 -13 b \$1;
#X floatatom 978 -42 5 0 0 0 - - -;
#X text 942 -60 choose your bell;
#X floatatom 1085 -55 5 0 0 0 - - -;
#X obj 180 137 pp pendulum;
#X obj 981 416 pp bar;
#X obj 357 -120 vsl 15 128 5 200 0 0 empty empty empty 0 -9 0 10 -262144
-1 -1 6900 1;
#X msg 357 21 amp \$1;
#X obj 431 -115 vsl 15 128 0.9999 1 0 0 empty empty empty 0 -9 0 10
-262144 -1 -1 10414 1;
#X msg 431 24 que \$1;
#X obj 523 -116 vsl 15 128 0 10 0 0 empty empty empty 0 -9 0 10 -262144
-1 -1 0 1;
#X msg 523 27 fre \$1;
#X msg 604 28 clapper \$1;
#X text 366 50 5 - 200;
#X text 441 51 0.9999 - 1;
#X text 545 55 0 - 10;
#X obj 704 189 loadbang;
#X msg 589 226 que 0.999982;
#X obj 589 192 pp set;
#X msg 512 223 amp 110.945;
#X obj 511 188 pp set;
#X msg 766 234 b 0;
#N canvas 1381 385 450 300 thru 0;
#X obj 96 64 inlet;
#X obj 94 98 outlet;
#X connect 0 0 1 0;
#X restore 810 -262 pd thru;
#N canvas 1381 385 450 300 thru 0;
#X obj 96 64 inlet;
#X obj 94 98 outlet;
#X connect 0 0 1 0;
#X restore 827 343 pd thru;
#X floatatom 108 -74 5 0 0 0 - - -;
#X text 64 -53 current value;
#X text 1131 -60 current value;
#X msg 692 233 fre 0;
#X obj 213 -207 route pendulum bar;
#X obj 213 -172 route users amp que fre;
#X obj 763 301 pp bar;
#X obj 975 -121 route b users;
#X obj 214 -314 inlet;
#X obj 180 494 outlet;
#X text 686 149 defaults;
#X obj 510 310 pp pendulum;
#X msg 567 543 que 0.999982;
#X msg 486 544 amp 107.874;
#X text 561 511 backup defaults;
#X connect 0 0 9 0;
#X connect 1 0 0 0;
#X connect 1 0 29 0;
#X connect 3 0 10 0;
#X connect 4 0 3 0;
#X connect 4 0 8 0;
#X connect 5 0 10 0;
#X connect 6 0 5 0;
#X connect 9 0 38 0;
#X connect 10 0 38 0;
#X connect 11 0 12 0;
#X connect 12 0 25 0;
#X connect 12 0 9 0;
#X connect 13 0 14 0;
#X connect 14 0 23 0;
#X connect 14 0 9 0;
#X connect 15 0 16 0;
#X connect 16 0 9 0;
#X connect 21 0 32 0;
#X connect 21 0 22 0;
#X connect 21 0 24 0;
#X connect 21 0 26 0;
#X connect 22 0 40 0;
#X connect 23 0 22 0;
#X connect 24 0 40 0;
#X connect 25 0 24 0;
#X connect 26 0 35 0;
#X connect 27 0 33 0;
#X connect 28 0 27 0;
#X connect 32 0 40 0;
#X connect 33 0 34 0;
#X connect 33 1 36 0;
#X connect 34 0 1 0;
#X connect 34 1 11 0;
#X connect 34 2 13 0;
#X connect 34 3 15 0;
#X connect 35 0 28 0;
#X connect 36 0 6 0;
#X connect 36 1 4 0;
#X connect 37 0 33 0;
#X connect 40 0 28 0;
#X restore 402 -71 pd level_check_and_defaults;
#X msg 208 -291 pendulum fre \$1;
#X floatatom 358 -236 5 0 0 0 - - -;
#X msg 402 -175 pendulum users \$1;
#X obj 181 -395 t b f;
#X obj 181 -465 route float bang;
#X connect 0 0 20 0;
#X connect 0 1 2 0;
#X connect 0 1 4 1;
#X connect 1 0 0 0;
#X connect 2 0 10 0;
#X connect 4 0 3 0;
#X connect 4 0 10 0;
#X connect 5 0 4 0;
#X connect 7 0 9 0;
#X connect 8 0 14 0;
#X connect 9 0 6 0;
#X connect 10 0 8 0;
#X connect 10 0 18 0;
#X connect 10 0 17 0;
#X connect 11 0 19 0;
#X connect 12 0 13 0;
#X connect 13 0 16 0;
#X connect 14 0 15 0;
#X connect 15 0 6 0;
#X connect 16 0 15 0;
#X connect 18 0 15 0;
#X connect 19 0 9 0;
#X connect 19 1 12 0;
#X connect 20 0 11 0;
#X connect 20 1 9 0;
#X restore 248 188 pd kerg mapping;
#N canvas 630 237 1389 945 ve19 0;
#X obj 352 -498 route clicks level;
#X obj 352 -528 inlet;
#X obj 404 -375 change;
#X floatatom 461 -323 5 0 0 0 - - -;
#X obj 461 -362 f 1;
#X obj 463 -409 bng 15 250 50 0 empty empty empty 17 7 0 10 -262144
-1 -1;
#X obj 407 222 outlet;
#X obj 40 -144 bng 15 250 50 0 empty empty empty 17 7 0 10 -262144
-1 -1;
#X obj 527 -211 + 0.009;
#X msg 88 -109 pendulum poke bang \, bar hit bang;
#X obj 404 -270 expr ($f1 + 4) / 8;
#X obj 181 -428 change;
#X obj 208 -366 delta;
#X obj 208 -329 - 1;
#X msg 527 -179 bar users \$1;
#N canvas 575 148 1433 977 level_check_and_defaults 0;
#X msg 180 -74 users \$1;
#X obj 183 -120 hsl 128 15 0.001 1 0 0 empty empty empty -2 -8 0 10
-262144 -1 -1 6304 1;
#X text 251 -75 0.0001 - 1;
#X msg 1057 -21 users \$1;
#X obj 1060 -83 hsl 128 15 0 1 0 0 empty empty empty -2 -8 0 10 -262144
-1 -1 6425 1;
#X msg 978 -13 b \$1;
#X floatatom 978 -42 5 0 0 0 - - -;
#X text 942 -60 choose your bell;
#X floatatom 1085 -55 5 0 0 0 - - -;
#X obj 180 137 pp pendulum;
#X obj 981 416 pp bar;
#X obj 357 -120 vsl 15 128 5 200 0 0 empty empty empty 0 -9 0 10 -262144
-1 -1 6700 1;
#X msg 357 21 amp \$1;
#X obj 431 -115 vsl 15 128 0.9999 1 0 0 empty empty empty 0 -9 0 10
-262144 -1 -1 10414 1;
#X msg 431 24 que \$1;
#X obj 523 -116 vsl 15 128 0 10 0 0 empty empty empty 0 -9 0 10 -262144
-1 -1 0 1;
#X msg 523 27 fre \$1;
#X msg 604 28 clapper \$1;
#X text 366 50 5 - 200;
#X text 441 51 0.9999 - 1;
#X text 545 55 0 - 10;
#X obj 704 189 loadbang;
#X msg 589 226 que 0.999982;
#X obj 589 192 pp set;
#X msg 512 223 amp 107.874;
#X obj 511 188 pp set;
#X msg 766 234 b 0;
#N canvas 1381 385 450 300 thru 0;
#X obj 96 64 inlet;
#X obj 94 98 outlet;
#X connect 0 0 1 0;
#X restore 810 -262 pd thru;
#N canvas 1381 385 450 300 thru 0;
#X obj 96 64 inlet;
#X obj 94 98 outlet;
#X connect 0 0 1 0;
#X restore 827 343 pd thru;
#X floatatom 108 -74 5 0 0 0 - - -;
#X text 64 -53 current value;
#X text 1131 -60 current value;
#X msg 692 233 fre 0;
#X obj 213 -207 route pendulum bar;
#X obj 213 -172 route users amp que fre;
#X obj 763 301 pp bar;
#X obj 975 -121 route b users;
#X obj 214 -314 inlet;
#X obj 180 494 outlet;
#X text 686 149 defaults;
#X obj 510 310 pp pendulum;
#X msg 567 543 que 0.999982;
#X msg 486 544 amp 107.874;
#X text 561 511 backup defaults;
#X connect 0 0 9 0;
#X connect 1 0 0 0;
#X connect 1 0 29 0;
#X connect 3 0 10 0;
#X connect 4 0 3 0;
#X connect 4 0 8 0;
#X connect 5 0 10 0;
#X connect 6 0 5 0;
#X connect 9 0 38 0;
#X connect 10 0 38 0;
#X connect 11 0 12 0;
#X connect 12 0 25 0;
#X connect 12 0 9 0;
#X connect 13 0 14 0;
#X connect 14 0 23 0;
#X connect 14 0 9 0;
#X connect 15 0 16 0;
#X connect 16 0 9 0;
#X connect 21 0 32 0;
#X connect 21 0 22 0;
#X connect 21 0 24 0;
#X connect 21 0 26 0;
#X connect 22 0 40 0;
#X connect 23 0 22 0;
#X connect 24 0 40 0;
#X connect 25 0 24 0;
#X connect 26 0 35 0;
#X connect 27 0 33 0;
#X connect 28 0 27 0;
#X connect 32 0 40 0;
#X connect 33 0 34 0;
#X connect 33 1 36 0;
#X connect 34 0 1 0;
#X connect 34 1 11 0;
#X connect 34 2 13 0;
#X connect 34 3 15 0;
#X connect 35 0 28 0;
#X connect 36 0 6 0;
#X connect 36 1 4 0;
#X connect 37 0 33 0;
#X connect 40 0 28 0;
#X restore 402 -71 pd level_check_and_defaults;
#X msg 208 -291 pendulum fre \$1;
#X floatatom 358 -236 5 0 0 0 - - -;
#X msg 402 -175 pendulum users \$1;
#X obj 181 -395 t b f;
#X connect 0 0 11 0;
#X connect 0 1 2 0;
#X connect 0 1 4 1;
#X connect 1 0 0 0;
#X connect 2 0 10 0;
#X connect 4 0 3 0;
#X connect 4 0 10 0;
#X connect 5 0 4 0;
#X connect 7 0 9 0;
#X connect 8 0 14 0;
#X connect 9 0 6 0;
#X connect 10 0 8 0;
#X connect 10 0 18 0;
#X connect 10 0 17 0;
#X connect 11 0 19 0;
#X connect 12 0 13 0;
#X connect 13 0 16 0;
#X connect 14 0 15 0;
#X connect 15 0 6 0;
#X connect 16 0 15 0;
#X connect 18 0 15 0;
#X connect 19 0 9 0;
#X connect 19 1 12 0;
#X restore 476 185 pd ve19 mapping;
#N canvas 630 237 1389 945 reyk 0;
#X obj 352 -498 route clicks level;
#X obj 352 -528 inlet;
#X obj 404 -375 change;
#X floatatom 461 -323 5 0 0 0 - - -;
#X obj 461 -362 f 1;
#X obj 463 -409 bng 15 250 50 0 empty empty empty 17 7 0 10 -262144
-1 -1;
#X obj 407 222 outlet;
#X obj 40 -144 bng 15 250 50 0 empty empty empty 17 7 0 10 -262144
-1 -1;
#X obj 527 -211 + 0.009;
#X msg 88 -109 pendulum poke bang \, bar hit bang;
#X obj 404 -270 expr ($f1 + 4) / 8;
#X obj 181 -428 change;
#X obj 208 -366 delta;
#X obj 208 -329 - 1;
#X msg 527 -179 bar users \$1;
#N canvas 575 148 1433 977 level_check_and_defaults 0;
#X msg 180 -74 users \$1;
#X obj 183 -120 hsl 128 15 0.001 1 0 0 empty empty empty -2 -8 0 10
-262144 -1 -1 12700 1;
#X text 251 -75 0.0001 - 1;
#X msg 1057 -21 users \$1;
#X obj 1060 -83 hsl 128 15 0 1 0 0 empty empty empty -2 -8 0 10 -262144
-1 -1 12700 1;
#X msg 978 -13 b \$1;
#X floatatom 978 -42 5 0 0 0 - - -;
#X text 942 -60 choose your bell;
#X floatatom 1085 -55 5 0 0 0 - - -;
#X obj 180 137 pp pendulum;
#X obj 981 416 pp bar;
#X obj 357 -120 vsl 15 128 5 200 0 0 empty empty empty 0 -9 0 10 -262144
-1 -1 6700 1;
#X msg 357 21 amp \$1;
#X obj 431 -115 vsl 15 128 0.9999 1 0 0 empty empty empty 0 -9 0 10
-262144 -1 -1 10414 1;
#X msg 431 24 que \$1;
#X obj 523 -116 vsl 15 128 0 10 0 0 empty empty empty 0 -9 0 10 -262144
-1 -1 0 1;
#X msg 523 27 fre \$1;
#X msg 604 28 clapper \$1;
#X text 366 50 5 - 200;
#X text 441 51 0.9999 - 1;
#X text 545 55 0 - 10;
#X obj 704 189 loadbang;
#X msg 589 226 que 0.999982;
#X obj 589 192 pp set;
#X msg 512 223 amp 107.874;
#X obj 511 188 pp set;
#X msg 766 234 b 0;
#N canvas 1381 385 450 300 thru 0;
#X obj 96 64 inlet;
#X obj 94 98 outlet;
#X connect 0 0 1 0;
#X restore 810 -262 pd thru;
#N canvas 1381 385 450 300 thru 0;
#X obj 96 64 inlet;
#X obj 94 98 outlet;
#X connect 0 0 1 0;
#X restore 827 343 pd thru;
#X floatatom 108 -74 5 0 0 0 - - -;
#X text 64 -53 current value;
#X text 1131 -60 current value;
#X msg 692 233 fre 0;
#X obj 213 -207 route pendulum bar;
#X obj 213 -172 route users amp que fre;
#X obj 763 301 pp bar;
#X obj 975 -121 route b users;
#X obj 214 -314 inlet;
#X obj 180 494 outlet;
#X text 686 149 defaults;
#X obj 510 310 pp pendulum;
#X msg 567 543 que 0.999982;
#X msg 486 544 amp 107.874;
#X text 561 511 backup defaults;
#X connect 0 0 9 0;
#X connect 1 0 0 0;
#X connect 1 0 29 0;
#X connect 3 0 10 0;
#X connect 4 0 3 0;
#X connect 4 0 8 0;
#X connect 5 0 10 0;
#X connect 6 0 5 0;
#X connect 9 0 38 0;
#X connect 10 0 38 0;
#X connect 11 0 12 0;
#X connect 12 0 25 0;
#X connect 12 0 9 0;
#X connect 13 0 14 0;
#X connect 14 0 23 0;
#X connect 14 0 9 0;
#X connect 15 0 16 0;
#X connect 16 0 9 0;
#X connect 21 0 32 0;
#X connect 21 0 22 0;
#X connect 21 0 24 0;
#X connect 21 0 26 0;
#X connect 22 0 40 0;
#X connect 23 0 22 0;
#X connect 24 0 40 0;
#X connect 25 0 24 0;
#X connect 26 0 35 0;
#X connect 27 0 33 0;
#X connect 28 0 27 0;
#X connect 32 0 40 0;
#X connect 33 0 34 0;
#X connect 33 1 36 0;
#X connect 34 0 1 0;
#X connect 34 1 11 0;
#X connect 34 2 13 0;
#X connect 34 3 15 0;
#X connect 35 0 28 0;
#X connect 36 0 6 0;
#X connect 36 1 4 0;
#X connect 37 0 33 0;
#X connect 40 0 28 0;
#X restore 402 -71 pd level_check_and_defaults;
#X msg 208 -291 pendulum fre \$1;
#X floatatom 358 -236 5 0 0 0 - - -;
#X msg 402 -175 pendulum users \$1;
#X obj 181 -395 t b f;
#X connect 0 0 11 0;
#X connect 0 1 2 0;
#X connect 0 1 4 1;
#X connect 1 0 0 0;
#X connect 2 0 10 0;
#X connect 4 0 3 0;
#X connect 4 0 10 0;
#X connect 5 0 4 0;
#X connect 7 0 9 0;
#X connect 8 0 14 0;
#X connect 9 0 6 0;
#X connect 10 0 8 0;
#X connect 10 0 18 0;
#X connect 10 0 17 0;
#X connect 11 0 19 0;
#X connect 12 0 13 0;
#X connect 13 0 16 0;
#X connect 14 0 15 0;
#X connect 15 0 6 0;
#X connect 16 0 15 0;
#X connect 18 0 15 0;
#X connect 19 0 9 0;
#X connect 19 1 12 0;
#X restore 587 189 pd reyk mapping;
#X connect 0 0 1 0;
#X connect 1 0 2 0;
#X connect 2 0 6 0;
#X connect 2 1 7 0;
#X connect 2 2 8 0;
#X connect 2 3 9 0;
#X connect 2 4 10 0;
#X connect 2 5 11 0;
#X connect 2 6 12 0;
#X connect 2 7 13 0;
#X connect 3 0 2 2;
#X connect 3 1 2 3;
#X connect 4 0 16 0;
#X connect 16 0 0 0;
#X connect 16 1 21 0;
#X connect 16 2 20 0;
#X connect 16 3 22 0;
#X connect 16 4 23 0;
#X connect 16 5 14 0;
#X connect 17 0 2 1;
#X connect 17 1 2 8;
#X connect 18 0 2 4;
#X connect 18 1 2 5;
#X connect 19 0 2 6;
#X connect 19 1 2 7;
#X connect 20 0 17 0;
#X connect 21 0 3 0;
#X connect 22 0 18 0;
#X connect 23 0 19 0;
#X restore 80 86 pd water_bells;
#X obj 63 202 outlet~;
#X obj 112 203 outlet~;
#X obj 163 202 outlet~;
#X obj 212 203 outlet~;
#X obj 263 202 outlet~;
#X obj 312 203 outlet~;
#X obj 363 202 outlet~;
#X obj 413 203 outlet~;
#N canvas 750 588 952 485 master_gain 0;
#X obj 126 136 db2v;
#X obj 125 267 iemmatrix/mtx_mul~ 8 8 20 _________________________________
;
#N canvas 785 709 450 300 8ch_diag 0;
#X floatatom 81 90 5 0 0 2 - - -;
#X obj 81 141 mtx_diag 0 0 0 0 0 0 0 0;
#X msg 81 113 \$1 \$1 \$1 \$1 \$1 \$1 \$1 \$1;
#X obj 81 40 inlet;
#X obj 81 189 outlet;
#X connect 0 0 2 0;
#X connect 1 0 4 0;
#X connect 2 0 1 0;
#X connect 3 0 0 0;
#X restore 126 162 pd 8ch_diag;
#X obj 164 217 inlet~;
#X obj 203 238 inlet~;
#X obj 242 217 inlet~;
#X obj 281 238 inlet~;
#X obj 319 207 inlet~;
#X obj 358 228 inlet~;
#X obj 399 207 inlet~;
#X obj 438 228 inlet~;
#X obj 125 327 outlet~;
#X obj 175 299 outlet~;
#X obj 225 327 outlet~;
#X obj 275 299 outlet~;
#X obj 325 327 outlet~;
#X obj 375 299 outlet~;
#X obj 425 327 outlet~;
#X obj 476 299 outlet~;
#X obj 564 73 route master_gain;
#X obj 564 32 inlet;
#X connect 0 0 2 0;
#X connect 1 0 11 0;
#X connect 1 1 12 0;
#X connect 1 2 13 0;
#X connect 1 3 14 0;
#X connect 1 4 15 0;
#X connect 1 5 16 0;
#X connect 1 6 17 0;
#X connect 1 7 18 0;
#X connect 2 0 1 0;
#X connect 3 0 1 1;
#X connect 4 0 1 2;
#X connect 5 0 1 3;
#X connect 6 0 1 4;
#X connect 7 0 1 5;
#X connect 8 0 1 6;
#X connect 9 0 1 7;
#X connect 10 0 1 8;
#X connect 19 0 0 0;
#X connect 20 0 19 0;
#X restore 127 156 pd master_gain _______________________;
#X obj 80 42 inlet;
#N canvas 892 265 1342 814 waves 0;
#X obj 242 -83 db2v;
#N canvas 785 709 450 300 8ch_diag 0;
#X floatatom 81 90 5 0 0 2 - - -;
#X obj 81 141 mtx_diag 0 0 0 0 0 0 0 0;
#X msg 81 113 \$1 \$1 \$1 \$1 \$1 \$1 \$1 \$1;
#X obj 81 40 inlet;
#X obj 81 189 outlet;
#X connect 0 0 2 0;
#X connect 1 0 4 0;
#X connect 2 0 1 0;
#X connect 3 0 0 0;
#X restore 242 -49 pd 8ch_diag;
#X obj 242 246 iemmatrix/mtx_mul~ 8 8 20 ____________________________________________________________
;
#X obj 313 -155 inlet;
#X obj 244 347 outlet~;
#X obj 294 347 outlet~;
#X obj 344 347 outlet~;
#X obj 396 347 outlet~;
#X obj 446 347 outlet~;
#X obj 496 347 outlet~;
#X obj 548 347 outlet~;
#X obj 598 347 outlet~;
#X obj 766 -90 outlet;
#X text 734 -63 delegation outlet;
#X obj 370 2 change;
#X obj 312 -124 route wave_gain wave;
#X obj 880 184 table wavefile;
#X obj 878 -20 soundfiler;
#X msg 878 -76 read -resize /Users/artpractice/Documents/Maldives/code/polartide/audiofiles/ocean-wave-3.wav
wavefile;
#X obj 878 -109 loadbang;
#X obj 878 13 > 0;
#X msg 37 112 loop 0 \, start bang;
#X msg 878 110 read ocean-wave-3.wav to players;
#X obj 878 52 sel 1 0;
#X msg 897 80 might need to reset path to audio file;
#X obj 877 151 print wave-init;
#X text 1014 -119 set path if on a different computer;
#X text 667 336 << adjust hard wired panning here;
#N canvas 652 249 1350 510 wave-cascade 0;
#N canvas 500 485 450 300 waveplayer 0;
#X obj 197 142 spigot;
#X obj 98 114 tabplay~ wavefile;
#X obj 98 28 inlet;
#X obj 98 72 route start loop;
#X obj 98 210 outlet~;
#X obj 230 107 tgl 15 0 empty empty empty 17 7 0 10 -262144 -1 -1 0
1;
#X connect 0 0 1 0;
#X connect 1 0 4 0;
#X connect 1 1 0 0;
#X connect 2 0 3 0;
#X connect 3 0 1 0;
#X connect 3 1 5 0;
#X connect 5 0 0 1;
#X restore 237 151 pd waveplayer;
#N canvas 500 485 450 300 waveplayer 0;
#X obj 197 142 spigot;
#X obj 98 114 tabplay~ wavefile;
#X obj 98 28 inlet;
#X obj 98 72 route start loop;
#X obj 98 210 outlet~;
#X obj 230 107 tgl 15 0 empty empty empty 17 7 0 10 -262144 -1 -1 0
1;
#X connect 0 0 1 0;
#X connect 1 0 4 0;
#X connect 1 1 0 0;
#X connect 2 0 3 0;
#X connect 3 0 1 0;
#X connect 3 1 5 0;
#X connect 5 0 0 1;
#X restore 133 150 pd waveplayer;
#X obj 237 67 del 700;
#X msg 237 119 start bang;
#X obj 133 64 t b b;
#X msg 133 116 start bang;
#N canvas 500 485 450 300 waveplayer 0;
#X obj 197 142 spigot;
#X obj 98 114 tabplay~ wavefile;
#X obj 98 28 inlet;
#X obj 98 72 route start loop;
#X obj 98 210 outlet~;
#X obj 230 107 tgl 15 0 empty empty empty 17 7 0 10 -262144 -1 -1 0
1;
#X connect 0 0 1 0;
#X connect 1 0 4 0;
#X connect 1 1 0 0;
#X connect 2 0 3 0;
#X connect 3 0 1 0;
#X connect 3 1 5 0;
#X connect 5 0 0 1;
#X restore 337 151 pd waveplayer;
#X obj 337 67 del 700;
#X msg 337 119 start bang;
#N canvas 500 485 450 300 waveplayer 0;
#X obj 197 142 spigot;
#X obj 98 114 tabplay~ wavefile;
#X obj 98 28 inlet;
#X obj 98 72 route start loop;
#X obj 98 210 outlet~;
#X obj 230 107 tgl 15 0 empty empty empty 17 7 0 10 -262144 -1 -1 0
1;
#X connect 0 0 1 0;
#X connect 1 0 4 0;
#X connect 1 1 0 0;
#X connect 2 0 3 0;
#X connect 3 0 1 0;
#X connect 3 1 5 0;
#X connect 5 0 0 1;
#X restore 437 151 pd waveplayer;
#X obj 437 67 del 700;
#X msg 437 119 start bang;
#N canvas 500 485 450 300 waveplayer 0;
#X obj 197 142 spigot;
#X obj 98 114 tabplay~ wavefile;
#X obj 98 28 inlet;
#X obj 98 72 route start loop;
#X obj 98 210 outlet~;
#X obj 230 107 tgl 15 0 empty empty empty 17 7 0 10 -262144 -1 -1 0
1;
#X connect 0 0 1 0;
#X connect 1 0 4 0;
#X connect 1 1 0 0;
#X connect 2 0 3 0;
#X connect 3 0 1 0;
#X connect 3 1 5 0;
#X connect 5 0 0 1;
#X restore 637 151 pd waveplayer;
#N canvas 500 485 450 300 waveplayer 0;
#X obj 197 142 spigot;
#X obj 98 114 tabplay~ wavefile;
#X obj 98 28 inlet;
#X obj 98 72 route start loop;
#X obj 98 210 outlet~;
#X obj 230 107 tgl 15 0 empty empty empty 17 7 0 10 -262144 -1 -1 0
1;
#X connect 0 0 1 0;
#X connect 1 0 4 0;
#X connect 1 1 0 0;
#X connect 2 0 3 0;
#X connect 3 0 1 0;
#X connect 3 1 5 0;
#X connect 5 0 0 1;
#X restore 533 150 pd waveplayer;
#X obj 637 67 del 700;
#X msg 637 119 start bang;
#X msg 533 116 start bang;
#N canvas 500 485 450 300 waveplayer 0;
#X obj 197 142 spigot;
#X obj 98 114 tabplay~ wavefile;
#X obj 98 28 inlet;
#X obj 98 72 route start loop;
#X obj 98 210 outlet~;
#X obj 230 107 tgl 15 0 empty empty empty 17 7 0 10 -262144 -1 -1 0
1;
#X connect 0 0 1 0;
#X connect 1 0 4 0;
#X connect 1 1 0 0;
#X connect 2 0 3 0;
#X connect 3 0 1 0;
#X connect 3 1 5 0;
#X connect 5 0 0 1;
#X restore 737 151 pd waveplayer;
#X obj 737 67 del 700;
#X msg 737 119 start bang;
#N canvas 500 485 450 300 waveplayer 0;
#X obj 197 142 spigot;
#X obj 98 114 tabplay~ wavefile;
#X obj 98 28 inlet;
#X obj 98 72 route start loop;
#X obj 98 210 outlet~;
#X obj 230 107 tgl 15 0 empty empty empty 17 7 0 10 -262144 -1 -1 0
1;
#X connect 0 0 1 0;
#X connect 1 0 4 0;
#X connect 1 1 0 0;
#X connect 2 0 3 0;
#X connect 3 0 1 0;
#X connect 3 1 5 0;
#X connect 5 0 0 1;
#X restore 837 151 pd waveplayer;
#X obj 837 67 del 700;
#X msg 837 119 start bang;
#X obj 533 64 del 700;
#X obj 133 21 inlet;
#X obj 133 180 outlet~;
#X obj 237 180 outlet~;
#X obj 337 180 outlet~;
#X obj 437 180 outlet~;
#X obj 533 180 outlet~;
#X obj 637 180 outlet~;
#X obj 737 180 outlet~;
#X obj 837 180 outlet~;
#X connect 0 0 26 0;
#X connect 1 0 25 0;
#X connect 2 0 3 0;
#X connect 2 0 7 0;
#X connect 3 0 0 0;
#X connect 4 0 5 0;
#X connect 4 1 2 0;
#X connect 5 0 1 0;
#X connect 6 0 27 0;
#X connect 7 0 8 0;
#X connect 7 0 10 0;
#X connect 8 0 6 0;
#X connect 9 0 28 0;
#X connect 10 0 11 0;
#X connect 10 0 23 0;
#X connect 11 0 9 0;
#X connect 12 0 30 0;
#X connect 13 0 29 0;
#X connect 14 0 15 0;
#X connect 14 0 18 0;
#X connect 15 0 12 0;
#X connect 16 0 13 0;
#X connect 17 0 31 0;
#X connect 18 0 19 0;
#X connect 18 0 21 0;
#X connect 19 0 17 0;
#X connect 20 0 32 0;
#X connect 21 0 22 0;
#X connect 22 0 20 0;
#X connect 23 0 16 0;
#X connect 23 0 14 0;
#X connect 24 0 4 0;
#X restore 415 149 pd wave-cascade;
#X obj 416 71 t b;
#X obj 444 11 bng 15 250 50 0 empty empty empty 17 7 0 10 -262144 -1
-1;
#X obj 314 153 env~;
#X floatatom 314 187 5 0 0 0 - - -;
#X obj 370 -30 route float bang;
#X connect 0 0 1 0;
#X connect 1 0 2 0;
#X connect 2 0 4 0;
#X connect 2 1 5 0;
#X connect 2 2 6 0;
#X connect 2 3 7 0;
#X connect 2 4 8 0;
#X connect 2 5 9 0;
#X connect 2 6 10 0;
#X connect 2 7 11 0;
#X connect 3 0 15 0;
#X connect 14 0 29 0;
#X connect 15 0 0 0;
#X connect 15 1 33 0;
#X connect 15 2 12 0;
#X connect 17 0 20 0;
#X connect 18 0 17 0;
#X connect 19 0 18 0;
#X connect 20 0 23 0;
#X connect 22 0 25 0;
#X connect 23 0 22 0;
#X connect 23 1 24 0;
#X connect 24 0 25 0;
#X connect 28 0 2 1;
#X connect 28 1 2 2;
#X connect 28 2 2 3;
#X connect 28 3 2 4;
#X connect 28 4 2 5;
#X connect 28 5 2 6;
#X connect 28 6 2 7;
#X connect 28 7 2 8;
#X connect 29 0 28 0;
#X connect 30 0 29 0;
#X connect 31 0 32 0;
#X connect 33 0 14 0;
#X connect 33 1 29 0;
#X restore 313 86 pd waves ________;
#N canvas 770 488 1386 683 oil_tines 0;
#X obj 154 154 db2v;
#N canvas 785 709 450 300 8ch_diag 0;
#X floatatom 81 90 5 0 0 2 - - -;
#X obj 81 141 mtx_diag 0 0 0 0 0 0 0 0;
#X msg 81 113 \$1 \$1 \$1 \$1 \$1 \$1 \$1 \$1;
#X obj 81 40 inlet;
#X obj 81 189 outlet;
#X connect 0 0 2 0;
#X connect 1 0 4 0;
#X connect 2 0 1 0;
#X connect 3 0 0 0;
#X restore 153 188 pd 8ch_diag;
#X obj 196 331 iemmatrix/mtx_mul~ 8 8 20 ____________________________________________________________
;
#X obj 221 10 inlet;
#X text 652 326 << speaker array 1-8 (re-route here for bells based
on speaker setup);
#X obj 196 382 outlet~;
#X obj 246 382 outlet~;
#X obj 296 382 outlet~;
#X obj 348 382 outlet~;
#X obj 398 382 outlet~;
#X obj 448 382 outlet~;
#X obj 500 382 outlet~;
#X obj 550 382 outlet~;
#X obj 944 85 outlet;
#X text 912 112 delegation outlet;
#X obj 221 36 route oil_gain bps wmt xom bp;
#N canvas 1004 387 1632 585 liberTine 0;
#X msg 157 211 hit 1;
#X msg 202 242 hit 0;
#X obj 199 175 bng 15 250 50 0 empty empty empty 17 7 0 10 -262144
-1 -1;
#X obj 202 211 pipe 2;
#X obj 85 169 bng 15 250 50 0 empty empty empty 17 7 0 10 -262144 -1
-1;
#X text 109 167 hit me;
#X msg 34 238 poke 1;
#X msg 85 237 poke 0;
#X obj 85 205 pipe 10;
#X obj 267 12 inlet;
#X obj 321 416 outlet~;
#X obj 268 75 route poke hit;
#X obj 321 377 *~ 20;
#X obj 265 332 liberTine~;
#X obj 267 45 route tine;
#X connect 0 0 13 0;
#X connect 1 0 13 0;
#X connect 2 0 0 0;
#X connect 2 0 3 0;
#X connect 3 0 1 0;
#X connect 4 0 6 0;
#X connect 4 0 8 0;
#X connect 6 0 13 0;
#X connect 7 0 13 0;
#X connect 8 0 7 0;
#X connect 9 0 14 0;
#X connect 11 0 4 0;
#X connect 11 1 2 0;
#X connect 11 2 13 0;
#X connect 12 0 10 0;
#X connect 13 1 12 0;
#X connect 14 0 11 0;
#X restore 257 194 pd liberTine;
#X msg 123 541 amp \$1;
#X msg 173 541 que \$1;
#X msg 229 540 fre \$1;
#X msg 287 541 p \$1;
#X msg 337 541 depth \$1;
#N canvas 849 218 1389 945 bps 0;
#X obj 352 -498 route clicks level;
#X obj 352 -528 inlet;
#X obj 404 -375 change;
#X floatatom 461 -323 5 0 0 0 - - -;
#X obj 461 -362 f 1;
#X obj 463 -409 bng 15 250 50 0 empty empty empty 17 7 0 10 -262144
-1 -1;
#X obj 407 222 outlet;
#X obj 40 -144 bng 15 250 50 0 empty empty empty 17 7 0 10 -262144
-1 -1;
#X obj 527 -211 + 0.009;
#X obj 404 -270 expr ($f1 + 4) / 8;
#X obj 181 -428 change;
#X obj 208 -366 delta;
#X obj 208 -329 - 1;
#X msg 527 -179 bar users \$1;
#N canvas 575 148 1433 977 level_check_and_defaults 0;
#X msg 180 -74 users \$1;
#X obj 183 -120 hsl 128 15 0.001 1 0 0 empty empty empty -2 -8 0 10
-262144 -1 -1 7933 1;
#X text 251 -75 0.0001 - 1;
#X msg 1057 -21 users \$1;
#X obj 1060 -83 hsl 128 15 0 1 0 0 empty empty empty -2 -8 0 10 -262144
-1 -1 8052 1;
#X msg 978 -13 b \$1;
#X floatatom 978 -42 5 0 0 0 - - -;
#X text 942 -60 choose your bell;
#X floatatom 1085 -55 5 0 0 0 - - -;
#X obj 981 416 pp bar;
#X obj 357 -120 vsl 15 128 5 200 0 0 empty empty empty 0 -9 0 10 -262144
-1 -1 6700 1;
#X msg 357 21 amp \$1;
#X obj 431 -115 vsl 15 128 0.9999 1 0 0 empty empty empty 0 -9 0 10
-262144 -1 -1 10414 1;
#X msg 431 24 que \$1;
#X obj 523 -120 vsl 15 128 0 10 0 0 empty empty empty 0 -9 0 10 -262144
-1 -1 254 1;
#X msg 523 27 fre \$1;
#X text 366 50 5 - 200;
#X text 441 51 0.9999 - 1;
#X text 545 55 0 - 10;
#X obj 704 189 loadbang;
#X msg 589 226 que 0.999982;
#X obj 589 192 pp set;
#X msg 512 223 amp 107.874;
#X obj 511 188 pp set;
#X msg 766 234 b 0;
#N canvas 1381 385 450 300 thru 0;
#X obj 96 64 inlet;
#X obj 94 98 outlet;
#X connect 0 0 1 0;
#X restore 810 -262 pd thru;
#N canvas 1381 385 450 300 thru 0;
#X obj 96 64 inlet;
#X obj 94 98 outlet;
#X connect 0 0 1 0;
#X restore 827 343 pd thru;
#X floatatom 108 -74 5 0 0 0 - - -;
#X text 64 -53 current value;
#X text 1131 -60 current value;
#X obj 763 301 pp bar;
#X obj 975 -121 route b users;
#X obj 348 -263 inlet;
#X obj 180 494 outlet;
#X text 686 149 defaults;
#X msg 567 543 que 0.999982;
#X msg 486 544 amp 107.874;
#X text 561 511 backup defaults;
#X msg 133 551 amp \$1;
#X msg 183 551 que \$1;
#X msg 239 550 fre \$1;
#X msg 603 27 p \$1;
#X msg 667 27 depth \$1;
#X obj 349 -166 route users amp que fre p depth;
#X obj 668 -119 vsl 15 128 0 10 0 0 empty empty empty 0 -9 0 10 -262144
-1 -1 0 1;
#X obj 182 137 pp tine;
#X obj 608 -118 vsl 15 128 0 10 0 0 empty empty empty 0 -9 0 10 -262144
-1 -1 1500 1;
#X obj 349 -210 route tine bar;
#X msg 51 57 tine poke bang;
#X obj 510 310 pp tine;
#X msg 692 233 fre 0.2;
#X connect 0 0 45 0;
#X connect 1 0 0 0;
#X connect 1 0 27 0;
#X connect 3 0 9 0;
#X connect 4 0 3 0;
#X connect 4 0 8 0;
#X connect 5 0 9 0;
#X connect 6 0 5 0;
#X connect 9 0 33 0;
#X connect 10 0 11 0;
#X connect 11 0 23 0;
#X connect 11 0 45 0;
#X connect 12 0 13 0;
#X connect 13 0 21 0;
#X connect 13 0 45 0;
#X connect 14 0 15 0;
#X connect 15 0 45 0;
#X connect 19 0 50 0;
#X connect 19 0 20 0;
#X connect 19 0 22 0;
#X connect 19 0 24 0;
#X connect 20 0 49 0;
#X connect 21 0 20 0;
#X connect 22 0 49 0;
#X connect 23 0 22 0;
#X connect 24 0 30 0;
#X connect 25 0 47 0;
#X connect 26 0 25 0;
#X connect 30 0 26 0;
#X connect 31 0 6 0;
#X connect 31 1 4 0;
#X connect 32 0 47 0;
#X connect 41 0 45 0;
#X connect 42 0 45 0;
#X connect 43 0 1 0;
#X connect 43 1 10 0;
#X connect 43 2 12 0;
#X connect 43 3 14 0;
#X connect 43 4 46 0;
#X connect 43 5 44 0;
#X connect 44 0 42 0;
#X connect 45 0 33 0;
#X connect 46 0 41 0;
#X connect 47 0 43 0;
#X connect 47 1 31 0;
#X connect 48 0 33 0;
#X connect 49 0 26 0;
#X connect 50 0 49 0;
#X restore 402 -71 pd level_check_and_defaults;
#X floatatom 358 -236 5 0 0 0 - - -;
#X obj 181 -395 t b f;
#X msg 88 -109 tine poke bang;
#X msg 402 -175 tine users \$1;
#X msg 208 -250 tine fre \$1;
#X obj 208 -290 + 0.2;
#X connect 0 0 10 0;
#X connect 0 1 2 0;
#X connect 0 1 4 1;
#X connect 1 0 0 0;
#X connect 2 0 9 0;
#X connect 4 0 3 0;
#X connect 4 0 9 0;
#X connect 5 0 4 0;
#X connect 7 0 17 0;
#X connect 8 0 13 0;
#X connect 9 0 8 0;
#X connect 9 0 18 0;
#X connect 9 0 15 0;
#X connect 10 0 16 0;
#X connect 11 0 12 0;
#X connect 12 0 20 0;
#X connect 13 0 14 0;
#X connect 14 0 6 0;
#X connect 16 0 17 0;
#X connect 16 1 11 0;
#X connect 17 0 6 0;
#X connect 18 0 14 0;
#X connect 19 0 14 0;
#X connect 20 0 19 0;
#X restore 257 128 pd bps mapping;
#N canvas 1004 387 1632 585 liberTine 0;
#X msg 157 211 hit 1;
#X msg 202 242 hit 0;
#X obj 199 175 bng 15 250 50 0 empty empty empty 17 7 0 10 -262144
-1 -1;
#X obj 202 211 pipe 2;
#X obj 85 169 bng 15 250 50 0 empty empty empty 17 7 0 10 -262144 -1
-1;
#X text 109 167 hit me;
#X msg 34 238 poke 1;
#X msg 85 237 poke 0;
#X obj 85 205 pipe 10;
#X obj 267 12 inlet;
#X obj 321 416 outlet~;
#X obj 268 75 route poke hit;
#X obj 321 377 *~ 20;
#X obj 265 332 liberTine~;
#X obj 267 45 route tine;
#X connect 0 0 13 0;
#X connect 1 0 13 0;
#X connect 2 0 0 0;
#X connect 2 0 3 0;
#X connect 3 0 1 0;
#X connect 4 0 6 0;
#X connect 4 0 8 0;
#X connect 6 0 13 0;
#X connect 7 0 13 0;
#X connect 8 0 7 0;
#X connect 9 0 14 0;
#X connect 11 0 4 0;
#X connect 11 1 2 0;
#X connect 11 2 13 0;
#X connect 12 0 10 0;
#X connect 13 1 12 0;
#X connect 14 0 11 0;
#X restore 367 194 pd liberTine;
#N canvas 849 218 1389 945 wmt 0;
#X obj 352 -498 route clicks level;
#X obj 352 -528 inlet;
#X obj 404 -375 change;
#X floatatom 461 -323 5 0 0 0 - - -;
#X obj 461 -362 f 1;
#X obj 463 -409 bng 15 250 50 0 empty empty empty 17 7 0 10 -262144
-1 -1;
#X obj 407 222 outlet;
#X obj 40 -144 bng 15 250 50 0 empty empty empty 17 7 0 10 -262144
-1 -1;
#X obj 527 -211 + 0.009;
#X obj 404 -270 expr ($f1 + 4) / 8;
#X obj 181 -428 change;
#X obj 208 -366 delta;
#X obj 208 -329 - 1;
#X msg 527 -179 bar users \$1;
#N canvas 575 148 1433 977 level_check_and_defaults 0;
#X msg 180 -74 users \$1;
#X obj 183 -120 hsl 128 15 0.001 1 0 0 empty empty empty -2 -8 0 10
-262144 -1 -1 0 1;
#X text 251 -75 0.0001 - 1;
#X msg 1057 -21 users \$1;
#X obj 1060 -83 hsl 128 15 0 1 0 0 empty empty empty -2 -8 0 10 -262144
-1 -1 0 1;
#X msg 978 -13 b \$1;
#X floatatom 978 -42 5 0 0 0 - - -;
#X text 942 -60 choose your bell;
#X floatatom 1085 -55 5 0 0 0 - - -;
#X obj 981 416 pp bar;
#X obj 357 -120 vsl 15 128 5 200 0 0 empty empty empty 0 -9 0 10 -262144
-1 -1 6700 1;
#X msg 357 21 amp \$1;
#X obj 431 -115 vsl 15 128 0.9999 1 0 0 empty empty empty 0 -9 0 10
-262144 -1 -1 10414 1;
#X msg 431 24 que \$1;
#X obj 523 -120 vsl 15 128 0 10 0 0 empty empty empty 0 -9 0 10 -262144
-1 -1 254 1;
#X msg 523 27 fre \$1;
#X text 366 50 5 - 200;
#X text 441 51 0.9999 - 1;
#X text 545 55 0 - 10;
#X obj 704 189 loadbang;
#X msg 589 226 que 0.999982;
#X obj 589 192 pp set;
#X msg 512 223 amp 107.874;
#X obj 511 188 pp set;
#X msg 766 234 b 0;
#N canvas 1381 385 450 300 thru 0;
#X obj 96 64 inlet;
#X obj 94 98 outlet;
#X connect 0 0 1 0;
#X restore 810 -262 pd thru;
#N canvas 1381 385 450 300 thru 0;
#X obj 96 64 inlet;
#X obj 94 98 outlet;
#X connect 0 0 1 0;
#X restore 827 343 pd thru;
#X floatatom 108 -74 5 0 0 0 - - -;
#X text 64 -53 current value;
#X text 1131 -60 current value;
#X obj 763 301 pp bar;
#X obj 975 -121 route b users;
#X obj 348 -263 inlet;
#X obj 180 494 outlet;
#X text 686 149 defaults;
#X msg 567 543 que 0.999982;
#X msg 486 544 amp 107.874;
#X text 561 511 backup defaults;
#X msg 133 551 amp \$1;
#X msg 183 551 que \$1;
#X msg 239 550 fre \$1;
#X msg 603 27 p \$1;
#X msg 667 27 depth \$1;
#X obj 349 -166 route users amp que fre p depth;
#X obj 668 -119 vsl 15 128 0 10 0 0 empty empty empty 0 -9 0 10 -262144
-1 -1 0 1;
#X obj 182 137 pp tine;
#X obj 608 -118 vsl 15 128 0 10 0 0 empty empty empty 0 -9 0 10 -262144
-1 -1 0 1;
#X obj 349 -210 route tine bar;
#X msg 51 57 tine poke bang;
#X obj 510 310 pp tine;
#X msg 692 233 fre 0.2;
#X connect 0 0 45 0;
#X connect 1 0 0 0;
#X connect 1 0 27 0;
#X connect 3 0 9 0;
#X connect 4 0 3 0;
#X connect 4 0 8 0;
#X connect 5 0 9 0;
#X connect 6 0 5 0;
#X connect 9 0 33 0;
#X connect 10 0 11 0;
#X connect 11 0 23 0;
#X connect 11 0 45 0;
#X connect 12 0 13 0;
#X connect 13 0 21 0;
#X connect 13 0 45 0;
#X connect 14 0 15 0;
#X connect 15 0 45 0;
#X connect 19 0 50 0;
#X connect 19 0 20 0;
#X connect 19 0 22 0;
#X connect 19 0 24 0;
#X connect 20 0 49 0;
#X connect 21 0 20 0;
#X connect 22 0 49 0;
#X connect 23 0 22 0;
#X connect 24 0 30 0;
#X connect 25 0 47 0;
#X connect 26 0 25 0;
#X connect 30 0 26 0;
#X connect 31 0 6 0;
#X connect 31 1 4 0;
#X connect 32 0 47 0;
#X connect 41 0 45 0;
#X connect 42 0 45 0;
#X connect 43 0 1 0;
#X connect 43 1 10 0;
#X connect 43 2 12 0;
#X connect 43 3 14 0;
#X connect 43 4 46 0;
#X connect 43 5 44 0;
#X connect 44 0 42 0;
#X connect 45 0 33 0;
#X connect 46 0 41 0;
#X connect 47 0 43 0;
#X connect 47 1 31 0;
#X connect 48 0 33 0;
#X connect 49 0 26 0;
#X connect 50 0 49 0;
#X restore 402 -71 pd level_check_and_defaults;
#X floatatom 358 -236 5 0 0 0 - - -;
#X obj 181 -395 t b f;
#X msg 88 -109 tine poke bang;
#X msg 402 -175 tine users \$1;
#X msg 208 -250 tine fre \$1;
#X obj 208 -290 + 0.2;
#X connect 0 0 10 0;
#X connect 0 1 2 0;
#X connect 0 1 4 1;
#X connect 1 0 0 0;
#X connect 2 0 9 0;
#X connect 4 0 3 0;
#X connect 4 0 9 0;
#X connect 5 0 4 0;
#X connect 7 0 17 0;
#X connect 8 0 13 0;
#X connect 9 0 8 0;
#X connect 9 0 18 0;
#X connect 9 0 15 0;
#X connect 10 0 16 0;
#X connect 11 0 12 0;
#X connect 12 0 20 0;
#X connect 13 0 14 0;
#X connect 14 0 6 0;
#X connect 16 0 17 0;
#X connect 16 1 11 0;
#X connect 17 0 6 0;
#X connect 18 0 14 0;
#X connect 19 0 14 0;
#X connect 20 0 19 0;
#X restore 367 128 pd wmt mapping;
#N canvas 1004 387 1632 585 liberTine 0;
#X msg 157 211 hit 1;
#X msg 202 242 hit 0;
#X obj 199 175 bng 15 250 50 0 empty empty empty 17 7 0 10 -262144
-1 -1;
#X obj 202 211 pipe 2;
#X obj 85 169 bng 15 250 50 0 empty empty empty 17 7 0 10 -262144 -1
-1;
#X text 109 167 hit me;
#X msg 34 238 poke 1;
#X msg 85 237 poke 0;
#X obj 85 205 pipe 10;
#X obj 267 12 inlet;
#X obj 321 416 outlet~;
#X obj 268 75 route poke hit;
#X obj 321 377 *~ 20;
#X obj 265 332 liberTine~;
#X obj 267 45 route tine;
#X connect 0 0 13 0;
#X connect 1 0 13 0;
#X connect 2 0 0 0;
#X connect 2 0 3 0;
#X connect 3 0 1 0;
#X connect 4 0 6 0;
#X connect 4 0 8 0;
#X connect 6 0 13 0;
#X connect 7 0 13 0;
#X connect 8 0 7 0;
#X connect 9 0 14 0;
#X connect 11 0 4 0;
#X connect 11 1 2 0;
#X connect 11 2 13 0;
#X connect 12 0 10 0;
#X connect 13 1 12 0;
#X connect 14 0 11 0;
#X restore 477 194 pd liberTine;
#N canvas 849 218 1389 945 xom 0;
#X obj 352 -498 route clicks level;
#X obj 352 -528 inlet;
#X obj 404 -375 change;
#X floatatom 461 -323 5 0 0 0 - - -;
#X obj 461 -362 f 1;
#X obj 463 -409 bng 15 250 50 0 empty empty empty 17 7 0 10 -262144
-1 -1;
#X obj 407 222 outlet;
#X obj 40 -144 bng 15 250 50 0 empty empty empty 17 7 0 10 -262144
-1 -1;
#X obj 527 -211 + 0.009;
#X obj 404 -270 expr ($f1 + 4) / 8;
#X obj 181 -428 change;
#X obj 208 -366 delta;
#X obj 208 -329 - 1;
#X msg 527 -179 bar users \$1;
#N canvas 575 148 1433 977 level_check_and_defaults 0;
#X msg 180 -74 users \$1;
#X obj 183 -120 hsl 128 15 0.001 1 0 0 empty empty empty -2 -8 0 10
-262144 -1 -1 0 1;
#X text 251 -75 0.0001 - 1;
#X msg 1057 -21 users \$1;
#X obj 1060 -83 hsl 128 15 0 1 0 0 empty empty empty -2 -8 0 10 -262144
-1 -1 0 1;
#X msg 978 -13 b \$1;
#X floatatom 978 -42 5 0 0 0 - - -;
#X text 942 -60 choose your bell;
#X floatatom 1085 -55 5 0 0 0 - - -;
#X obj 981 416 pp bar;
#X obj 357 -120 vsl 15 128 5 200 0 0 empty empty empty 0 -9 0 10 -262144
-1 -1 6700 1;
#X msg 357 21 amp \$1;
#X obj 431 -115 vsl 15 128 0.9999 1 0 0 empty empty empty 0 -9 0 10
-262144 -1 -1 10414 1;
#X msg 431 24 que \$1;
#X obj 523 -120 vsl 15 128 0 10 0 0 empty empty empty 0 -9 0 10 -262144
-1 -1 254 1;
#X msg 523 27 fre \$1;
#X text 366 50 5 - 200;
#X text 441 51 0.9999 - 1;
#X text 545 55 0 - 10;
#X obj 704 189 loadbang;
#X msg 589 226 que 0.999982;
#X obj 589 192 pp set;
#X msg 512 223 amp 107.874;
#X obj 511 188 pp set;
#X msg 766 234 b 0;
#N canvas 1381 385 450 300 thru 0;
#X obj 96 64 inlet;
#X obj 94 98 outlet;
#X connect 0 0 1 0;
#X restore 810 -262 pd thru;
#N canvas 1381 385 450 300 thru 0;
#X obj 96 64 inlet;
#X obj 94 98 outlet;
#X connect 0 0 1 0;
#X restore 827 343 pd thru;
#X floatatom 108 -74 5 0 0 0 - - -;
#X text 64 -53 current value;
#X text 1131 -60 current value;
#X obj 763 301 pp bar;
#X obj 975 -121 route b users;
#X obj 348 -263 inlet;
#X obj 180 494 outlet;
#X text 686 149 defaults;
#X msg 567 543 que 0.999982;
#X msg 486 544 amp 107.874;
#X text 561 511 backup defaults;
#X msg 133 551 amp \$1;
#X msg 183 551 que \$1;
#X msg 239 550 fre \$1;
#X msg 603 27 p \$1;
#X msg 667 27 depth \$1;
#X obj 349 -166 route users amp que fre p depth;
#X obj 668 -119 vsl 15 128 0 10 0 0 empty empty empty 0 -9 0 10 -262144
-1 -1 0 1;
#X obj 182 137 pp tine;
#X obj 608 -118 vsl 15 128 0 10 0 0 empty empty empty 0 -9 0 10 -262144
-1 -1 0 1;
#X obj 349 -210 route tine bar;
#X msg 51 57 tine poke bang;
#X obj 510 310 pp tine;
#X msg 692 233 fre 0.2;
#X connect 0 0 45 0;
#X connect 1 0 0 0;
#X connect 1 0 27 0;
#X connect 3 0 9 0;
#X connect 4 0 3 0;
#X connect 4 0 8 0;
#X connect 5 0 9 0;
#X connect 6 0 5 0;
#X connect 9 0 33 0;
#X connect 10 0 11 0;
#X connect 11 0 23 0;
#X connect 11 0 45 0;
#X connect 12 0 13 0;
#X connect 13 0 21 0;
#X connect 13 0 45 0;
#X connect 14 0 15 0;
#X connect 15 0 45 0;
#X connect 19 0 50 0;
#X connect 19 0 20 0;
#X connect 19 0 22 0;
#X connect 19 0 24 0;
#X connect 20 0 49 0;
#X connect 21 0 20 0;
#X connect 22 0 49 0;
#X connect 23 0 22 0;
#X connect 24 0 30 0;
#X connect 25 0 47 0;
#X connect 26 0 25 0;
#X connect 30 0 26 0;
#X connect 31 0 6 0;
#X connect 31 1 4 0;
#X connect 32 0 47 0;
#X connect 41 0 45 0;
#X connect 42 0 45 0;
#X connect 43 0 1 0;
#X connect 43 1 10 0;
#X connect 43 2 12 0;
#X connect 43 3 14 0;
#X connect 43 4 46 0;
#X connect 43 5 44 0;
#X connect 44 0 42 0;
#X connect 45 0 33 0;
#X connect 46 0 41 0;
#X connect 47 0 43 0;
#X connect 47 1 31 0;
#X connect 48 0 33 0;
#X connect 49 0 26 0;
#X connect 50 0 49 0;
#X restore 402 -71 pd level_check_and_defaults;
#X floatatom 358 -236 5 0 0 0 - - -;
#X obj 181 -395 t b f;
#X msg 88 -109 tine poke bang;
#X msg 402 -175 tine users \$1;
#X msg 208 -250 tine fre \$1;
#X obj 208 -290 + 0.2;
#X connect 0 0 10 0;
#X connect 0 1 2 0;
#X connect 0 1 4 1;
#X connect 1 0 0 0;
#X connect 2 0 9 0;
#X connect 4 0 3 0;
#X connect 4 0 9 0;
#X connect 5 0 4 0;
#X connect 7 0 17 0;
#X connect 8 0 13 0;
#X connect 9 0 8 0;
#X connect 9 0 18 0;
#X connect 9 0 15 0;
#X connect 10 0 16 0;
#X connect 11 0 12 0;
#X connect 12 0 20 0;
#X connect 13 0 14 0;
#X connect 14 0 6 0;
#X connect 16 0 17 0;
#X connect 16 1 11 0;
#X connect 17 0 6 0;
#X connect 18 0 14 0;
#X connect 19 0 14 0;
#X connect 20 0 19 0;
#X restore 477 128 pd xom mapping;
#N canvas 1004 387 1632 585 liberTine 0;
#X msg 157 211 hit 1;
#X msg 202 242 hit 0;
#X obj 199 175 bng 15 250 50 0 empty empty empty 17 7 0 10 -262144
-1 -1;
#X obj 202 211 pipe 2;
#X obj 85 169 bng 15 250 50 0 empty empty empty 17 7 0 10 -262144 -1
-1;
#X text 109 167 hit me;
#X msg 34 238 poke 1;
#X msg 85 237 poke 0;
#X obj 85 205 pipe 10;
#X obj 267 12 inlet;
#X obj 321 416 outlet~;
#X obj 268 75 route poke hit;
#X obj 321 377 *~ 20;
#X obj 265 332 liberTine~;
#X obj 267 45 route tine;
#X connect 0 0 13 0;
#X connect 1 0 13 0;
#X connect 2 0 0 0;
#X connect 2 0 3 0;
#X connect 3 0 1 0;
#X connect 4 0 6 0;
#X connect 4 0 8 0;
#X connect 6 0 13 0;
#X connect 7 0 13 0;
#X connect 8 0 7 0;
#X connect 9 0 14 0;
#X connect 11 0 4 0;
#X connect 11 1 2 0;
#X connect 11 2 13 0;
#X connect 12 0 10 0;
#X connect 13 1 12 0;
#X connect 14 0 11 0;
#X restore 587 194 pd liberTine;
#N canvas 849 218 1389 945 bp 0;
#X obj 352 -498 route clicks level;
#X obj 352 -528 inlet;
#X obj 404 -375 change;
#X floatatom 461 -323 5 0 0 0 - - -;
#X obj 461 -362 f 1;
#X obj 463 -409 bng 15 250 50 0 empty empty empty 17 7 0 10 -262144
-1 -1;
#X obj 407 222 outlet;
#X obj 40 -144 bng 15 250 50 0 empty empty empty 17 7 0 10 -262144
-1 -1;
#X obj 527 -211 + 0.009;
#X obj 404 -270 expr ($f1 + 4) / 8;
#X obj 181 -428 change;
#X obj 208 -366 delta;
#X obj 208 -329 - 1;
#X msg 527 -179 bar users \$1;
#N canvas 575 148 1433 977 level_check_and_defaults 0;
#X msg 180 -74 users \$1;
#X obj 183 -120 hsl 128 15 0.001 1 0 0 empty empty empty -2 -8 0 10
-262144 -1 -1 0 1;
#X text 251 -75 0.0001 - 1;
#X msg 1057 -21 users \$1;
#X obj 1060 -83 hsl 128 15 0 1 0 0 empty empty empty -2 -8 0 10 -262144
-1 -1 0 1;
#X msg 978 -13 b \$1;
#X floatatom 978 -42 5 0 0 0 - - -;
#X text 942 -60 choose your bell;
#X floatatom 1085 -55 5 0 0 0 - - -;
#X obj 981 416 pp bar;
#X obj 357 -120 vsl 15 128 5 200 0 0 empty empty empty 0 -9 0 10 -262144
-1 -1 6700 1;
#X msg 357 21 amp \$1;
#X obj 431 -115 vsl 15 128 0.9999 1 0 0 empty empty empty 0 -9 0 10
-262144 -1 -1 10414 1;
#X msg 431 24 que \$1;
#X obj 523 -120 vsl 15 128 0 10 0 0 empty empty empty 0 -9 0 10 -262144
-1 -1 254 1;
#X msg 523 27 fre \$1;
#X text 366 50 5 - 200;
#X text 441 51 0.9999 - 1;
#X text 545 55 0 - 10;
#X obj 704 189 loadbang;
#X msg 589 226 que 0.999982;
#X obj 589 192 pp set;
#X msg 512 223 amp 107.874;
#X obj 511 188 pp set;
#X msg 766 234 b 0;
#N canvas 1381 385 450 300 thru 0;
#X obj 96 64 inlet;
#X obj 94 98 outlet;
#X connect 0 0 1 0;
#X restore 810 -262 pd thru;
#N canvas 1381 385 450 300 thru 0;
#X obj 96 64 inlet;
#X obj 94 98 outlet;
#X connect 0 0 1 0;
#X restore 827 343 pd thru;
#X floatatom 108 -74 5 0 0 0 - - -;
#X text 64 -53 current value;
#X text 1131 -60 current value;
#X obj 763 301 pp bar;
#X obj 975 -121 route b users;
#X obj 348 -263 inlet;
#X obj 180 494 outlet;
#X text 686 149 defaults;
#X msg 567 543 que 0.999982;
#X msg 486 544 amp 107.874;
#X text 561 511 backup defaults;
#X msg 133 551 amp \$1;
#X msg 183 551 que \$1;
#X msg 239 550 fre \$1;
#X msg 603 27 p \$1;
#X msg 667 27 depth \$1;
#X obj 349 -166 route users amp que fre p depth;
#X obj 668 -119 vsl 15 128 0 10 0 0 empty empty empty 0 -9 0 10 -262144
-1 -1 0 1;
#X obj 182 137 pp tine;
#X obj 608 -118 vsl 15 128 0 10 0 0 empty empty empty 0 -9 0 10 -262144
-1 -1 0 1;
#X obj 349 -210 route tine bar;
#X msg 51 57 tine poke bang;
#X obj 510 310 pp tine;
#X msg 692 233 fre 0.2;
#X connect 0 0 45 0;
#X connect 1 0 0 0;
#X connect 1 0 27 0;
#X connect 3 0 9 0;
#X connect 4 0 3 0;
#X connect 4 0 8 0;
#X connect 5 0 9 0;
#X connect 6 0 5 0;
#X connect 9 0 33 0;
#X connect 10 0 11 0;
#X connect 11 0 23 0;
#X connect 11 0 45 0;
#X connect 12 0 13 0;
#X connect 13 0 21 0;
#X connect 13 0 45 0;
#X connect 14 0 15 0;
#X connect 15 0 45 0;
#X connect 19 0 50 0;
#X connect 19 0 20 0;
#X connect 19 0 22 0;
#X connect 19 0 24 0;
#X connect 20 0 49 0;
#X connect 21 0 20 0;
#X connect 22 0 49 0;
#X connect 23 0 22 0;
#X connect 24 0 30 0;
#X connect 25 0 47 0;
#X connect 26 0 25 0;
#X connect 30 0 26 0;
#X connect 31 0 6 0;
#X connect 31 1 4 0;
#X connect 32 0 47 0;
#X connect 41 0 45 0;
#X connect 42 0 45 0;
#X connect 43 0 1 0;
#X connect 43 1 10 0;
#X connect 43 2 12 0;
#X connect 43 3 14 0;
#X connect 43 4 46 0;
#X connect 43 5 44 0;
#X connect 44 0 42 0;
#X connect 45 0 33 0;
#X connect 46 0 41 0;
#X connect 47 0 43 0;
#X connect 47 1 31 0;
#X connect 48 0 33 0;
#X connect 49 0 26 0;
#X connect 50 0 49 0;
#X restore 402 -71 pd level_check_and_defaults;
#X floatatom 358 -236 5 0 0 0 - - -;
#X obj 181 -395 t b f;
#X msg 88 -109 tine poke bang;
#X msg 402 -175 tine users \$1;
#X msg 208 -250 tine fre \$1;
#X obj 208 -290 + 0.2;
#X connect 0 0 10 0;
#X connect 0 1 2 0;
#X connect 0 1 4 1;
#X connect 1 0 0 0;
#X connect 2 0 9 0;
#X connect 4 0 3 0;
#X connect 4 0 9 0;
#X connect 5 0 4 0;
#X connect 7 0 17 0;
#X connect 8 0 13 0;
#X connect 9 0 8 0;
#X connect 9 0 18 0;
#X connect 9 0 15 0;
#X connect 10 0 16 0;
#X connect 11 0 12 0;
#X connect 12 0 20 0;
#X connect 13 0 14 0;
#X connect 14 0 6 0;
#X connect 16 0 17 0;
#X connect 16 1 11 0;
#X connect 17 0 6 0;
#X connect 18 0 14 0;
#X connect 19 0 14 0;
#X connect 20 0 19 0;
#X restore 587 128 pd bp mapping;
#X connect 0 0 1 0;
#X connect 1 0 2 0;
#X connect 2 0 5 0;
#X connect 2 1 6 0;
#X connect 2 2 7 0;
#X connect 2 3 8 0;
#X connect 2 4 9 0;
#X connect 2 5 10 0;
#X connect 2 6 11 0;
#X connect 2 7 12 0;
#X connect 3 0 15 0;
#X connect 15 0 0 0;
#X connect 15 1 22 0;
#X connect 15 2 24 0;
#X connect 15 3 26 0;
#X connect 15 4 28 0;
#X connect 15 5 13 0;
#X connect 16 0 2 1;
#X connect 16 0 2 2;
#X connect 22 0 16 0;
#X connect 23 0 2 3;
#X connect 23 0 2 4;
#X connect 24 0 23 0;
#X connect 25 0 2 5;
#X connect 25 0 2 6;
#X connect 26 0 25 0;
#X connect 27 0 2 7;
#X connect 27 0 2 8;
#X connect 28 0 27 0;
#X restore 179 87 pd oil_tines ______;
#X text 144 38 n.b. speaker/panning is set within each module;
#X connect 0 0 9 0;
#X connect 0 1 9 1;
#X connect 0 2 9 2;
#X connect 0 3 9 3;
#X connect 0 4 9 4;
#X connect 0 5 9 5;
#X connect 0 6 9 6;
#X connect 0 7 9 7;
#X connect 0 8 12 0;
#X connect 9 0 1 0;
#X connect 9 1 2 0;
#X connect 9 2 3 0;
#X connect 9 3 4 0;
#X connect 9 4 5 0;
#X connect 9 5 6 0;
#X connect 9 6 7 0;
#X connect 9 7 8 0;
#X connect 10 0 0 0;
#X connect 11 0 9 0;
#X connect 11 1 9 1;
#X connect 11 2 9 2;
#X connect 11 3 9 3;
#X connect 11 4 9 4;
#X connect 11 5 9 5;
#X connect 11 6 9 6;
#X connect 11 7 9 7;
#X connect 11 8 9 8;
#X connect 12 0 9 0;
#X connect 12 1 9 1;
#X connect 12 2 9 2;
#X connect 12 3 9 3;
#X connect 12 4 9 4;
#X connect 12 5 9 5;
#X connect 12 6 9 6;
#X connect 12 7 9 7;
#X connect 12 8 11 0;
#X restore 141 407 pd _________________________________________________________
;
#X text 646 274 wave gain (db);
#X msg 622 343 wave_gain \$1;
#N canvas 547 251 1096 812 udpinput 0;
#N canvas 517 324 1254 791 parse 0;
#X obj 502 215 unpack f f f f f f f f f;
#X obj 502 81 inlet;
#X msg 46 301 clicks \$1;
#X msg 124 301 level \$1;
#X obj 91 360 pp kerg;
#X msg 201 301 clicks \$1;
#X msg 279 301 level \$1;
#X obj 246 360 pp ganm;
#X msg 363 303 clicks \$1;
#X msg 441 303 level \$1;
#X obj 408 362 pp ve19;
#X msg 516 303 clicks \$1;
#X msg 594 303 level \$1;
#X obj 561 362 pp reyk;
#X msg 659 302 wave \$1;
#X obj 675 493 outlet;
#X obj 165 213 print;
#X obj 502 117 OSCroute /data;
#X obj 502 157 fromsymbol;
#X connect 0 0 2 0;
#X connect 0 1 3 0;
#X connect 0 2 5 0;
#X connect 0 3 6 0;
#X connect 0 4 8 0;
#X connect 0 5 9 0;
#X connect 0 6 11 0;
#X connect 0 7 12 0;
#X connect 0 8 14 0;
#X connect 1 0 17 0;
#X connect 2 0 4 0;
#X connect 3 0 4 0;
#X connect 4 0 15 0;
#X connect 5 0 7 0;
#X connect 6 0 7 0;
#X connect 7 0 15 0;
#X connect 8 0 10 0;
#X connect 9 0 10 0;
#X connect 10 0 15 0;
#X connect 11 0 13 0;
#X connect 12 0 13 0;
#X connect 13 0 15 0;
#X connect 14 0 15 0;
#X connect 17 0 18 0;
#X connect 18 0 0 0;
#X restore -4810 -5231 pd parse;
#X obj -4962 -5282 mrpeach/unpackOSC;
#X obj -4962 -5097 unpack f f f f f f f f f;
#X msg -5418 -5011 clicks \$1;
#X msg -5340 -5011 level \$1;
#X obj -5373 -4952 pp kerg;
#X msg -5263 -5011 clicks \$1;
#X msg -5185 -5011 level \$1;
#X obj -5218 -4952 pp ganm;
#X msg -5101 -5009 clicks \$1;
#X msg -5023 -5009 level \$1;
#X obj -5056 -4950 pp ve19;
#X msg -4948 -5009 clicks \$1;
#X msg -4870 -5009 level \$1;
#X obj -4903 -4950 pp reyk;
#X msg -4805 -5010 wave \$1;
#X obj -4798 -4804 outlet;
#X obj -4962 -5195 OSCroute /data;
#X obj -4962 -5155 fromsymbol;
#X obj -4962 -5310 mrpeach/udpreceive 12000;
#X connect 1 0 17 0;
#X connect 2 0 3 0;
#X connect 2 1 4 0;
#X connect 2 2 6 0;
#X connect 2 3 7 0;
#X connect 2 4 9 0;
#X connect 2 5 10 0;
#X connect 2 6 12 0;
#X connect 2 7 13 0;
#X connect 2 8 15 0;
#X connect 3 0 5 0;
#X connect 4 0 5 0;
#X connect 5 0 16 0;
#X connect 6 0 8 0;
#X connect 7 0 8 0;
#X connect 8 0 16 0;
#X connect 9 0 11 0;
#X connect 10 0 11 0;
#X connect 11 0 16 0;
#X connect 12 0 14 0;
#X connect 13 0 14 0;
#X connect 14 0 16 0;
#X connect 15 0 16 0;
#X connect 17 0 18 0;
#X connect 18 0 2 0;
#X connect 19 0 1 0;
#X restore 141 339 pd udpinput;
#X text -77 597 will need to change path for wave audio file if on
a different computer;
#X obj 679 548 env~;
#X floatatom 679 582 5 0 0 0 - - -;
#X msg 56 247 wave bang;
#X msg 492 341 oil_gain \$1;
#X msg -61 250 kerg clicks bang;
#X connect 0 0 28 0;
#X connect 1 0 0 0;
#X connect 4 0 2 0;
#X connect 4 1 6 0;
#X connect 5 0 4 0;
#X connect 7 0 8 0;
#X connect 7 0 27 0;
#X connect 7 0 32 0;
#X connect 7 0 23 0;
#X connect 8 0 1 0;
#X connect 21 0 33 0;
#X connect 22 0 21 0;
#X connect 23 0 22 0;
#X connect 25 0 42 0;
#X connect 26 0 25 0;
#X connect 27 0 26 0;
#X connect 28 0 34 0;
#X connect 30 0 36 0;
#X connect 31 0 30 0;
#X connect 32 0 31 0;
#X connect 33 0 34 0;
#X connect 34 0 19 0;
#X connect 34 1 19 0;
#X connect 34 2 19 1;
#X connect 34 3 19 1;
#X connect 34 4 19 2;
#X connect 34 5 19 2;
#X connect 34 6 19 3;
#X connect 34 7 19 3;
#X connect 36 0 34 0;
#X connect 37 0 34 0;
#X connect 39 0 40 0;
#X connect 41 0 34 0;
#X connect 42 0 34 0;
#X connect 43 0 34 0;
