#N canvas 58 82 1030 725 10;
#X declare -lib iemmatrix;
#X obj 317 -98 vsl 15 50 -100 12 0 0 empty empty empty 0 -9 0 10 -262144
-1 -1 4375 1;
#X floatatom 317 -127 5 0 0 0 - - -;
#X floatatom 57 373 5 0 0 0 - - -;
#X text 85 347 % cpu;
#X obj 57 324 tgl 15 0 empty empty dsp_ON/OFF 2 -8 0 10 -225271 -42246
-90881 1 1;
#X floatatom 114 372 5 0 0 0 - - -;
#X obj 163 -252 loadbang;
#X obj 3 -240 import iemmatrix;
#X text 337 -80 bells gain (db);
#X obj 164 -142 vsl 20 100 -100 12 0 0 empty empty empty 0 -9 0 10
-262144 -1 -1 8839 1;
#X floatatom 163 -175 5 0 0 0 - - -;
#X text 191 -93 master gain (db);
#X obj 453 -96 vsl 15 50 -100 12 0 0 empty empty empty 0 -9 0 10 -262144
-1 -1 3587 1;
#X floatatom 453 -123 5 0 0 0 - - -;
#X text 477 -91 oil gain (db);
#X obj 610 -97 vsl 15 50 -100 12 0 0 empty empty empty 0 -9 0 10 -262144
-1 -1 4637 1;
#X floatatom 610 -124 5 0 0 0 - - -;
#X text 634 -92 wave gain (db);
#X obj 57 344 iemlib/dsp;
#X msg 534 191 \; pd-oil_tines vis 1;
#X msg 534 154 \; pd-water_bells vis 1;
#X msg 535 278 \; pd-waves vis 1;
#X msg 164 -6 \; stream master_gain \$1;
#X msg 317 -12 \; stream bells_gain \$1;
#X msg 453 -12 \; stream oil_gain \$1;
#X msg 610 -13 \; stream wave_gain \$1;
#N canvas 73 22 1280 851 -----------data_stream---------- 0;
#X obj -4819 -5132 mrpeach/unpackOSC;
#X msg -5380 -4913 clicks \$1;
#X msg -5302 -4913 level \$1;
#X msg -5233 -4914 clicks \$1;
#X msg -5155 -4914 level \$1;
#X msg -5071 -4912 clicks \$1;
#X msg -4993 -4912 level \$1;
#X obj -5026 -4853 pp ve19;
#X msg -4918 -4912 clicks \$1;
#X msg -4840 -4912 level \$1;
#X obj -4873 -4853 pp reyk;
#X msg -4065 -4906 wave \$1;
#X obj -4819 -5106 OSCroute /data;
#X obj -4819 -5068 fromsymbol;
#X obj -4819 -5282 mrpeach/udpreceive 12000;
#X msg -4757 -4910 clicks \$1;
#X msg -4679 -4910 level \$1;
#X obj -4712 -4851 pp rds;
#X msg -4607 -4910 clicks \$1;
#X msg -4529 -4910 level \$1;
#X obj -4562 -4851 pp xom;
#X msg -4467 -4910 clicks \$1;
#X msg -4389 -4910 level \$1;
#X obj -4422 -4851 pp bp;
#X msg -4308 -4911 clicks \$1;
#X msg -4230 -4911 level \$1;
#X obj -4263 -4852 pp snp;
#X obj -4819 -5188 t a b;
#X obj -3639 -5068 zexy/date GMT;
#X obj -3642 -4988 change;
#X obj -3642 -5028 sprintf %i%i;
#X msg -3912 -4886 hour \$1;
#X obj -3912 -4962 zexy/time GMT;
#X obj -3912 -4922 change;
#X obj -3852 -4922 change;
#X msg -3852 -4886 minute \$1;
#X obj -4819 -5001 unpack f f f f f f f f f f f f f f f f f;
#X obj -5188 -4855 pp kerg;
#X obj -5343 -4855 pp ganm;
#X obj -4703 -4665 s stream;
#X obj -4765 -4491 list-compare;
#X obj -4765 -4570 pack 1 2 3 4 5 6 7 8;
#X obj -4766 -4526 t l l;
#X msg -4765 -4397 set 0;
#X obj -4694 -4409 t b;
#X obj -4765 -4303 sel 1;
#X obj -4765 -4461 change;
#X obj -4765 -4429 sel 0 1;
#X msg -4765 -4254 \; stream playback 1;
#X msg -4940 -4361 \; stream playback 0;
#X obj -4765 -4363 counter;
#X obj -4385 -4491 list-compare;
#X obj -4386 -4526 t l l;
#X msg -4385 -4397 set 0;
#X obj -4314 -4409 t b;
#X obj -4385 -4303 sel 1;
#X obj -4385 -4461 change;
#X obj -4385 -4429 sel 0 1;
#X obj -4385 -4363 counter;
#X obj -4385 -4571 pack 1 2 3 4 5 6 7 8;
#X msg -4560 -4360 \; stream updates bang;
#X obj -4384 -4330 == 7;
#X msg -4385 -4254 \; stream nonupdates bang;
#X obj -4765 -4330 == 15;
#X obj -3912 -4998 metro 30000;
#X obj -3912 -5057 loadbang;
#X msg -3912 -5029 1;
#X connect 0 0 12 0;
#X connect 1 0 38 0;
#X connect 2 0 38 0;
#X connect 3 0 37 0;
#X connect 4 0 37 0;
#X connect 5 0 7 0;
#X connect 6 0 7 0;
#X connect 7 0 39 0;
#X connect 8 0 10 0;
#X connect 9 0 10 0;
#X connect 10 0 39 0;
#X connect 11 0 39 0;
#X connect 12 0 13 0;
#X connect 13 0 36 0;
#X connect 14 0 27 0;
#X connect 15 0 17 0;
#X connect 16 0 17 0;
#X connect 17 0 39 0;
#X connect 18 0 20 0;
#X connect 19 0 20 0;
#X connect 20 0 39 0;
#X connect 21 0 23 0;
#X connect 22 0 23 0;
#X connect 23 0 39 0;
#X connect 24 0 26 0;
#X connect 25 0 26 0;
#X connect 26 0 39 0;
#X connect 27 0 0 0;
#X connect 28 1 30 0;
#X connect 28 2 30 1;
#X connect 30 0 29 0;
#X connect 31 0 39 0;
#X connect 32 0 33 0;
#X connect 32 1 34 0;
#X connect 33 0 31 0;
#X connect 34 0 35 0;
#X connect 35 0 39 0;
#X connect 35 0 44 0;
#X connect 35 0 54 0;
#X connect 36 0 1 0;
#X connect 36 0 41 0;
#X connect 36 1 2 0;
#X connect 36 1 59 0;
#X connect 36 2 3 0;
#X connect 36 2 41 1;
#X connect 36 3 4 0;
#X connect 36 3 59 1;
#X connect 36 4 5 0;
#X connect 36 4 41 2;
#X connect 36 5 6 0;
#X connect 36 5 59 2;
#X connect 36 6 8 0;
#X connect 36 6 41 3;
#X connect 36 7 9 0;
#X connect 36 7 59 3;
#X connect 36 8 15 0;
#X connect 36 8 41 4;
#X connect 36 9 16 0;
#X connect 36 9 59 4;
#X connect 36 10 18 0;
#X connect 36 10 41 5;
#X connect 36 11 19 0;
#X connect 36 11 59 5;
#X connect 36 12 21 0;
#X connect 36 12 41 6;
#X connect 36 13 22 0;
#X connect 36 13 59 6;
#X connect 36 14 24 0;
#X connect 36 14 41 7;
#X connect 36 15 25 0;
#X connect 36 15 59 7;
#X connect 36 16 11 0;
#X connect 37 0 39 0;
#X connect 38 0 39 0;
#X connect 40 0 46 0;
#X connect 41 0 42 0;
#X connect 42 0 40 1;
#X connect 42 1 40 0;
#X connect 43 0 50 0;
#X connect 44 0 50 0;
#X connect 45 0 48 0;
#X connect 46 0 47 0;
#X connect 47 0 43 0;
#X connect 47 0 49 0;
#X connect 50 0 63 0;
#X connect 51 0 56 0;
#X connect 52 0 51 1;
#X connect 52 1 51 0;
#X connect 53 0 58 0;
#X connect 54 0 58 0;
#X connect 55 0 62 0;
#X connect 56 0 57 0;
#X connect 57 0 53 0;
#X connect 57 0 60 0;
#X connect 58 0 61 0;
#X connect 59 0 52 0;
#X connect 61 0 55 0;
#X connect 63 0 45 0;
#X connect 64 0 32 0;
#X connect 65 0 66 0;
#X connect 66 0 64 0;
#X restore 224 84 pd -----------data_stream----------;
#X obj 763 -89 vsl 15 50 -100 12 0 0 empty empty empty 0 -9 0 10 -262144
-1 -1 3675 1;
#X floatatom 762 -116 5 0 0 0 - - -;
#X msg 762 -7 \; stream updates_gain \$1;
#X msg 534 231 \; pd-data_update vis 1;
#X text 786 -84 updates gain (db);
#X floatatom 171 -27 5 0 0 0 - - -;
#X text 204 -27 dB;
#X floatatom 325 -33 5 0 0 0 - - -;
#X text 358 -33 dB;
#X floatatom 465 -33 5 0 0 0 - - -;
#X text 498 -33 dB;
#X floatatom 625 -33 5 0 0 0 - - -;
#X text 658 -33 dB;
#X floatatom 775 -31 5 0 0 0 - - -;
#X text 808 -31 dB;
#N canvas 264 27 823 860 play-automiatically 0;
#X msg 130 650 \; stream ganm clicks bang;
#X msg 130 687 \; stream kerg clicks bang;
#X msg 129 729 \; stream ve19 clicks bang;
#X msg 130 779 \; stream reyk clicks bang;
#X msg 301 649 \; stream rds clicks bang;
#X msg 301 733 \; stream bp clicks bang;
#X msg 299 689 \; stream xom clicks bang;
#X msg 302 774 \; stream snp clicks bang;
#X obj 176 581 sel 1 2 3 4 5 6 7 8;
#X obj 177 277 gauss 0.5 0;
#X obj 178 485 del 100;
#X obj 178 165 spigot;
#N canvas 679 738 450 300 thru 0;
#X obj 105 71 inlet;
#X obj 101 104 outlet;
#X connect 0 0 1 0;
#X restore 88 200 pd thru;
#X obj 178 516 random 8;
#X obj 177 543 + 1;
#X obj 211 139 tgl 15 0 empty empty empty 17 7 0 10 -262144 -1 -1 0
1;
#X obj 307 330 gauss 0.5 0;
#X obj 307 251 counter 0 1 8;
#X obj 307 275 == 1;
#X obj 307 301 sel 1;
#X obj 307 359 expr 10000 + ($f1 * 10000);
#X obj 178 459 abs;
#X obj 179 -10 inlet;
#X obj 179 54 sel 1;
#X obj 177 213 t b b;
#X msg 205 108 1;
#X obj 35 490 pp set;
#X msg 35 521 10726.2;
#X obj 307 391 abs;
#X obj 368 436 pp set;
#X msg 368 467 10389.8;
#X obj 373 207 bng 15 250 50 0 empty empty empty 17 7 0 10 -262144
-1 -1;
#X obj 503 276 loadbang;
#X obj 178 433 expr $f2 + ($f1 * 1000);
#X obj 178 83 t b b b;
#X obj 179 23 route playback;
#X connect 8 0 0 0;
#X connect 8 1 1 0;
#X connect 8 2 2 0;
#X connect 8 3 3 0;
#X connect 8 4 7 0;
#X connect 8 5 5 0;
#X connect 8 6 6 0;
#X connect 8 7 4 0;
#X connect 9 0 33 0;
#X connect 10 0 12 0;
#X connect 10 0 13 0;
#X connect 11 0 24 0;
#X connect 12 0 11 0;
#X connect 13 0 14 0;
#X connect 14 0 8 0;
#X connect 15 0 11 1;
#X connect 16 0 20 0;
#X connect 17 0 18 0;
#X connect 18 0 19 0;
#X connect 19 0 16 0;
#X connect 20 0 28 0;
#X connect 21 0 10 0;
#X connect 22 0 35 0;
#X connect 23 0 34 0;
#X connect 23 1 15 0;
#X connect 24 0 9 0;
#X connect 24 1 17 0;
#X connect 25 0 15 0;
#X connect 26 0 27 0;
#X connect 28 0 33 1;
#X connect 28 0 29 0;
#X connect 29 0 30 0;
#X connect 31 0 17 0;
#X connect 33 0 21 0;
#X connect 34 0 11 0;
#X connect 34 1 25 0;
#X connect 34 2 13 0;
#X connect 35 0 23 0;
#X restore 54 183 pd play-automiatically;
#X obj 54 68 r stream;
#X obj 54 101 route playback;
#X msg 54 155 playback \$1;
#X obj 54 127 tgl 15 0 empty empty empty 17 7 0 10 -262144 -1 -1 0
1;
#X msg 317 -150 0;
#X msg 762 -149 -16;
#X msg 453 -156 -18;
#X msg 164 -208 0;
#X msg 610 -157 6;
#X obj 57 260 loadbang;
#X msg 57 288 1;
#X text 674 161 << open water_bells;
#X text 675 196 << open oil tines;
#X text 673 236 << open data update;
#X text 675 279 << open wave;
#X obj 271 176 dac~ 1 2 3 4 5 6 7 8;
#N canvas 285 144 863 538 ~~~~~~~dsp~~~~~~~ 0;
#N canvas 125 119 1085 641 water_bells 0;
#X obj 136 176 db2v;
#N canvas 785 709 450 300 8ch_diag 0;
#X floatatom 81 90 5 0 0 2 - - -;
#X obj 81 141 mtx_diag 0 0 0 0 0 0 0 0;
#X msg 81 113 \$1 \$1 \$1 \$1 \$1 \$1 \$1 \$1;
#X obj 81 40 inlet;
#X obj 81 189 outlet;
#X connect 0 0 2 0;
#X connect 1 0 4 0;
#X connect 2 0 1 0;
#X connect 3 0 0 0;
#X restore 135 210 pd 8ch_diag;
#N canvas 98 68 1280 788 belle 0;
#X msg 157 211 hit 1;
#X msg 202 242 hit 0;
#X obj 199 175 bng 15 250 50 0 empty empty empty 17 7 0 10 -262144
-1 -1;
#X obj 202 211 pipe 2;
#X obj 265 332 bellPend~;
#X obj 85 169 bng 15 250 50 0 empty empty empty 17 7 0 10 -262144 -1
-1;
#X text 109 167 hit me;
#X msg 34 238 poke 1;
#X msg 85 237 poke 0;
#X obj 85 205 pipe 10;
#X obj 267 12 inlet;
#X obj 170 563 outlet~;
#X obj 416 558 outlet~;
#X obj 268 75 route poke hit;
#X msg 398 231 hit 0;
#X obj 504 333 modalBarUI~;
#X obj 466 114 bng 15 250 50 0 empty empty empty 17 7 0 10 -262144
-1 -1;
#X obj 398 203 pipe 2;
#X floatatom 435 179 5 0 0 0 - - -;
#X obj 478 209 f 2;
#X msg 479 241 hit \$1;
#X floatatom 490 181 5 0 0 0 - - -;
#X obj 635 63 route hit;
#X obj 395 424 pan~;
#X msg 702 294 45 1000 -45 1000;
#X obj 675 240 spigot;
#X obj 694 173 del 5000;
#X obj 675 135 t b b b;
#X msg 694 199 0;
#X msg 734 199 1;
#X obj 467 137 t b b b;
#X obj 675 323 iemlib/bpe;
#X obj 675 267 t b b;
#X obj 675 353 line 0 20;
#X floatatom 1229 300 5 0 0 0 - - -;
#X obj 1229 266 route tabsize done;
#X obj 1281 300 bng 15 250 50 0 empty empty empty 17 7 0 10 -262144
-1 -1;
#X floatatom 1082 135 5 0 0 0 - - -;
#X msg 1082 159 distance \$1;
#X floatatom 1172 135 5 0 0 0 - - -;
#X msg 1172 159 temp \$1;
#X floatatom 1242 135 5 0 0 0 - - -;
#X msg 1242 159 humidity \$1;
#X floatatom 1332 135 5 0 0 0 - - -;
#X msg 1332 159 pressure \$1;
#X obj 1039 232 ansi_air 2048;
#X obj 1038 338 table kergIR;
#X obj 1039 298 tabwrite kergIR;
#X msg 1230 497 \; kergIR resize \$1;
#X msg 942 113 gettabsize;
#X obj 1039 198 bng 15 250 50 0 empty empty empty 17 7 0 10 -262144
-1 -1;
#X msg 902 396 set kergIR;
#X msg 1296 374 \; pd dsp 0;
#X msg 884 223 \; pd dsp 1;
#X obj 1039 16 loadbang;
#X obj 1040 46 t b b b;
#X obj 1281 337 t b b;
#X msg 1173 92 8.3;
#X msg 1243 92 52;
#X msg 1333 92 101.325;
#X obj 267 45 route pendulum bar;
#X obj 416 511 bsaylor/partconv~ kergIR 2048;
#X obj 170 514 bsaylor/partconv~ kergIR 2048;
#X msg 1083 93 500;
#X obj 282 379 *~ 20;
#X obj 340 377 *~ 20;
#X obj 395 379 *~ 20;
#X connect 0 0 4 0;
#X connect 1 0 4 0;
#X connect 2 0 0 0;
#X connect 2 0 3 0;
#X connect 3 0 1 0;
#X connect 4 1 64 0;
#X connect 4 2 65 0;
#X connect 5 0 7 0;
#X connect 5 0 9 0;
#X connect 7 0 4 0;
#X connect 8 0 4 0;
#X connect 9 0 8 0;
#X connect 10 0 60 0;
#X connect 13 0 5 0;
#X connect 13 1 2 0;
#X connect 13 2 4 0;
#X connect 14 0 15 0;
#X connect 15 1 66 0;
#X connect 16 0 30 0;
#X connect 17 0 14 0;
#X connect 18 0 17 1;
#X connect 19 0 20 0;
#X connect 20 0 15 0;
#X connect 21 0 19 1;
#X connect 22 0 16 0;
#X connect 22 1 15 0;
#X connect 23 0 62 0;
#X connect 23 1 61 0;
#X connect 24 0 31 0;
#X connect 25 0 32 0;
#X connect 26 0 28 0;
#X connect 27 0 25 0;
#X connect 27 1 26 0;
#X connect 27 2 29 0;
#X connect 28 0 25 1;
#X connect 29 0 25 1;
#X connect 30 0 17 0;
#X connect 30 1 19 0;
#X connect 30 2 27 0;
#X connect 31 0 33 0;
#X connect 31 1 33 1;
#X connect 31 2 25 0;
#X connect 32 0 31 0;
#X connect 32 1 24 0;
#X connect 33 0 23 1;
#X connect 34 0 48 0;
#X connect 35 0 34 0;
#X connect 35 1 36 0;
#X connect 36 0 56 0;
#X connect 37 0 38 0;
#X connect 38 0 45 0;
#X connect 39 0 40 0;
#X connect 40 0 45 0;
#X connect 41 0 42 0;
#X connect 42 0 45 0;
#X connect 43 0 44 0;
#X connect 44 0 45 0;
#X connect 45 0 47 0;
#X connect 45 1 47 1;
#X connect 45 2 35 0;
#X connect 49 0 45 0;
#X connect 50 0 45 0;
#X connect 51 0 61 0;
#X connect 51 0 62 0;
#X connect 54 0 55 0;
#X connect 55 0 50 0;
#X connect 55 1 63 0;
#X connect 55 1 57 0;
#X connect 55 1 58 0;
#X connect 55 1 59 0;
#X connect 55 2 49 0;
#X connect 56 0 51 0;
#X connect 56 1 52 0;
#X connect 57 0 39 0;
#X connect 58 0 41 0;
#X connect 59 0 43 0;
#X connect 60 0 13 0;
#X connect 60 1 22 0;
#X connect 61 0 12 0;
#X connect 62 0 11 0;
#X connect 63 0 37 0;
#X connect 64 0 62 0;
#X connect 65 0 61 0;
#X connect 66 0 23 0;
#X restore 241 254 pd belle;
#X obj 420 74 inlet;
#X text 681 389 << speaker array 1-8 (re-route here for bells based
on speaker setup);
#X obj 255 433 outlet~;
#X obj 305 433 outlet~;
#X obj 355 433 outlet~;
#X obj 407 433 outlet~;
#X obj 457 433 outlet~;
#X obj 507 433 outlet~;
#X obj 559 433 outlet~;
#X obj 609 433 outlet~;
#X obj 967 160 outlet;
#X text 935 187 delegation outlet;
#X obj 419 112 route bells_gain kerg ganm ve19 reyk;
#N canvas 53 55 1280 585 belle 0;
#X msg 157 211 hit 1;
#X msg 202 242 hit 0;
#X obj 199 175 bng 15 250 50 0 empty empty empty 17 7 0 10 -262144
-1 -1;
#X obj 202 211 pipe 2;
#X obj 265 332 bellPend~;
#X obj 85 169 bng 15 250 50 0 empty empty empty 17 7 0 10 -262144 -1
-1;
#X text 109 167 hit me;
#X msg 34 238 poke 1;
#X msg 85 237 poke 0;
#X obj 85 205 pipe 10;
#X obj 267 12 inlet;
#X obj 198 489 outlet~;
#X obj 408 523 outlet~;
#X obj 268 75 route poke hit;
#X msg 398 231 hit 0;
#X obj 504 333 modalBarUI~;
#X obj 466 114 bng 15 250 50 0 empty empty empty 17 7 0 10 -262144
-1 -1;
#X obj 398 203 pipe 2;
#X floatatom 435 179 5 0 0 0 - - -;
#X obj 478 209 f 2;
#X msg 479 241 hit \$1;
#X floatatom 490 181 5 0 0 0 - - -;
#X obj 267 45 route pendulum bar;
#X obj 635 63 route hit;
#X obj 568 358 pan~;
#X msg 712 304 45 1000 -45 1000;
#X obj 685 250 spigot;
#X obj 704 183 del 5000;
#X obj 685 145 t b b b;
#X msg 704 209 0;
#X msg 744 209 1;
#X obj 685 333 iemlib/bpe;
#X obj 685 277 t b b;
#X obj 685 363 line 0 20;
#X obj 466 137 t b b b;
#X floatatom 1238 339 5 0 0 0 - - -;
#X obj 1238 305 route tabsize done;
#X obj 1290 339 bng 15 250 50 0 empty empty empty 17 7 0 10 -262144
-1 -1;
#X floatatom 1092 145 5 0 0 0 - - -;
#X msg 1092 169 distance \$1;
#X floatatom 1182 145 5 0 0 0 - - -;
#X msg 1182 169 temp \$1;
#X floatatom 1252 145 5 0 0 0 - - -;
#X msg 1252 169 humidity \$1;
#X floatatom 1342 145 5 0 0 0 - - -;
#X msg 1342 169 pressure \$1;
#X obj 1049 242 ansi_air 2048;
#X msg 1441 172 gettabsize;
#X obj 1049 208 bng 15 250 50 0 empty empty empty 17 7 0 10 -262144
-1 -1;
#X obj 1049 308 tabwrite ganmIR;
#X msg 1238 373 \; ganmIR resize \$1;
#X obj 1059 418 table ganmIR;
#X msg 932 195 \; pd dsp 0;
#X msg 894 233 \; pd dsp 1;
#X msg 913 366 set ganmIR;
#X msg 952 123 gettabsize;
#X obj 1049 26 loadbang;
#X obj 1050 56 t b b b;
#X msg 1093 102 500;
#X obj 1122 35 bng 15 250 50 0 empty empty empty 17 7 0 10 -262144
-1 -1;
#X obj 196 451 bsaylor/partconv~ ganmIR 2048;
#X obj 407 449 bsaylor/partconv~ ganmIR 2048;
#X msg 1342 103 101.325;
#X msg 1183 102 31.1;
#X msg 1253 102 98;
#X obj 340 402 *~ 20;
#X obj 293 401 *~ 20;
#X connect 0 0 4 0;
#X connect 1 0 4 0;
#X connect 2 0 0 0;
#X connect 2 0 3 0;
#X connect 3 0 1 0;
#X connect 4 1 66 0;
#X connect 4 2 65 0;
#X connect 5 0 7 0;
#X connect 5 0 9 0;
#X connect 7 0 4 0;
#X connect 8 0 4 0;
#X connect 9 0 8 0;
#X connect 10 0 22 0;
#X connect 13 0 5 0;
#X connect 13 1 2 0;
#X connect 13 2 4 0;
#X connect 14 0 15 0;
#X connect 15 1 24 0;
#X connect 16 0 34 0;
#X connect 17 0 14 0;
#X connect 18 0 17 1;
#X connect 19 0 20 0;
#X connect 20 0 15 0;
#X connect 21 0 19 1;
#X connect 22 0 13 0;
#X connect 22 1 23 0;
#X connect 23 0 16 0;
#X connect 23 1 15 0;
#X connect 24 0 66 0;
#X connect 24 1 65 0;
#X connect 25 0 31 0;
#X connect 26 0 32 0;
#X connect 27 0 29 0;
#X connect 28 0 26 0;
#X connect 28 1 27 0;
#X connect 28 2 30 0;
#X connect 29 0 26 1;
#X connect 30 0 26 1;
#X connect 31 0 33 0;
#X connect 31 1 33 1;
#X connect 31 2 26 0;
#X connect 32 0 31 0;
#X connect 32 1 25 0;
#X connect 33 0 24 1;
#X connect 34 0 17 0;
#X connect 34 1 19 0;
#X connect 34 2 28 0;
#X connect 35 0 50 0;
#X connect 36 0 35 0;
#X connect 36 1 37 0;
#X connect 37 0 54 0;
#X connect 38 0 39 0;
#X connect 39 0 46 0;
#X connect 40 0 41 0;
#X connect 41 0 46 0;
#X connect 42 0 43 0;
#X connect 43 0 46 0;
#X connect 44 0 45 0;
#X connect 45 0 46 0;
#X connect 46 0 49 0;
#X connect 46 1 49 1;
#X connect 46 2 36 0;
#X connect 47 0 46 0;
#X connect 48 0 46 0;
#X connect 54 0 60 0;
#X connect 54 0 61 0;
#X connect 55 0 46 0;
#X connect 56 0 57 0;
#X connect 57 0 48 0;
#X connect 57 1 58 0;
#X connect 57 1 63 0;
#X connect 57 1 64 0;
#X connect 57 1 62 0;
#X connect 57 2 55 0;
#X connect 58 0 38 0;
#X connect 59 0 57 0;
#X connect 60 0 11 0;
#X connect 61 0 12 0;
#X connect 62 0 44 0;
#X connect 63 0 40 0;
#X connect 64 0 42 0;
#X connect 65 0 61 0;
#X connect 66 0 60 0;
#X restore 361 250 pd belle;
#N canvas 57 87 1280 585 belle 0;
#X msg 157 211 hit 1;
#X msg 202 242 hit 0;
#X obj 199 175 bng 15 250 50 0 empty empty empty 17 7 0 10 -262144
-1 -1;
#X obj 202 211 pipe 2;
#X obj 265 332 bellPend~;
#X obj 85 169 bng 15 250 50 0 empty empty empty 17 7 0 10 -262144 -1
-1;
#X text 109 167 hit me;
#X msg 34 238 poke 1;
#X msg 85 237 poke 0;
#X obj 85 205 pipe 10;
#X obj 267 12 inlet;
#X obj 276 510 outlet~;
#X obj 473 524 outlet~;
#X obj 268 75 route poke hit;
#X msg 398 231 hit 0;
#X obj 504 333 modalBarUI~;
#X obj 466 114 bng 15 250 50 0 empty empty empty 17 7 0 10 -262144
-1 -1;
#X obj 398 203 pipe 2;
#X floatatom 435 179 5 0 0 0 - - -;
#X obj 478 209 f 2;
#X msg 479 241 hit \$1;
#X floatatom 490 181 5 0 0 0 - - -;
#X obj 267 45 route pendulum bar;
#X obj 635 63 route hit;
#X obj 565 361 pan~;
#X msg 722 314 45 1000 -45 1000;
#X obj 695 260 spigot;
#X obj 714 193 del 5000;
#X obj 695 155 t b b b;
#X msg 714 219 0;
#X msg 754 219 1;
#X obj 695 343 iemlib/bpe;
#X obj 695 287 t b b;
#X obj 695 373 line 0 20;
#X obj 466 137 t b b b;
#X floatatom 1103 351 5 0 0 0 - - -;
#X obj 1103 317 route tabsize done;
#X obj 1155 351 bng 15 250 50 0 empty empty empty 17 7 0 10 -262144
-1 -1;
#X floatatom 957 157 5 0 0 0 - - -;
#X msg 957 181 distance \$1;
#X floatatom 1047 157 5 0 0 0 - - -;
#X msg 1047 181 temp \$1;
#X floatatom 1117 157 5 0 0 0 - - -;
#X msg 1117 181 humidity \$1;
#X floatatom 1207 157 5 0 0 0 - - -;
#X msg 1207 181 pressure \$1;
#X obj 914 254 ansi_air 2048;
#X msg 1306 184 gettabsize;
#X msg 1034 479 \; pd dsp 0;
#X msg 996 517 \; pd dsp 1;
#X obj 914 320 tabwrite ve19IR;
#X obj 918 366 table ve19IR;
#X msg 1103 385 \; ve19IR resize \$1;
#X msg 929 492 set ve19IR;
#X obj 915 187 bng 15 250 50 0 empty empty empty 17 7 0 10 -262144
-1 -1;
#X msg 839 140 gettabsize;
#X obj 910 47 loadbang;
#X obj 911 77 t b b b;
#X msg 954 123 500;
#X obj 983 56 bng 15 250 50 0 empty empty empty 17 7 0 10 -262144 -1
-1;
#X obj 274 456 bsaylor/partconv~ ve19IR 2048;
#X obj 471 456 bsaylor/partconv~ ve19IR 2048;
#X msg 1044 123 23.8;
#X msg 1114 124 53;
#X msg 1204 123 101.325;
#X obj 273 418 *~ 20;
#X obj 472 413 *~ 20;
#X connect 0 0 4 0;
#X connect 1 0 4 0;
#X connect 2 0 0 0;
#X connect 2 0 3 0;
#X connect 3 0 1 0;
#X connect 4 1 65 0;
#X connect 4 2 66 0;
#X connect 5 0 7 0;
#X connect 5 0 9 0;
#X connect 7 0 4 0;
#X connect 8 0 4 0;
#X connect 9 0 8 0;
#X connect 10 0 22 0;
#X connect 13 0 5 0;
#X connect 13 1 2 0;
#X connect 13 2 4 0;
#X connect 14 0 15 0;
#X connect 15 1 24 0;
#X connect 16 0 34 0;
#X connect 17 0 14 0;
#X connect 18 0 17 1;
#X connect 19 0 20 0;
#X connect 20 0 15 0;
#X connect 21 0 19 1;
#X connect 22 0 13 0;
#X connect 22 1 23 0;
#X connect 23 0 16 0;
#X connect 23 1 15 0;
#X connect 24 0 65 0;
#X connect 24 1 66 0;
#X connect 25 0 31 0;
#X connect 26 0 32 0;
#X connect 27 0 29 0;
#X connect 28 0 26 0;
#X connect 28 1 27 0;
#X connect 28 2 30 0;
#X connect 29 0 26 1;
#X connect 30 0 26 1;
#X connect 31 0 33 0;
#X connect 31 1 33 1;
#X connect 31 2 26 0;
#X connect 32 0 31 0;
#X connect 32 1 25 0;
#X connect 33 0 24 1;
#X connect 34 0 17 0;
#X connect 34 1 19 0;
#X connect 34 2 28 0;
#X connect 35 0 52 0;
#X connect 36 0 35 0;
#X connect 36 1 37 0;
#X connect 37 0 53 0;
#X connect 38 0 39 0;
#X connect 39 0 46 0;
#X connect 40 0 41 0;
#X connect 41 0 46 0;
#X connect 42 0 43 0;
#X connect 43 0 46 0;
#X connect 44 0 45 0;
#X connect 45 0 46 0;
#X connect 46 0 50 0;
#X connect 46 1 50 1;
#X connect 46 2 36 0;
#X connect 47 0 46 0;
#X connect 53 0 60 0;
#X connect 53 0 61 0;
#X connect 54 0 46 0;
#X connect 55 0 46 0;
#X connect 56 0 57 0;
#X connect 57 0 54 0;
#X connect 57 1 58 0;
#X connect 57 1 62 0;
#X connect 57 1 63 0;
#X connect 57 1 64 0;
#X connect 57 2 55 0;
#X connect 58 0 38 0;
#X connect 59 0 57 0;
#X connect 60 0 11 0;
#X connect 61 0 12 0;
#X connect 62 0 40 0;
#X connect 63 0 42 0;
#X connect 64 0 44 0;
#X connect 65 0 60 0;
#X connect 66 0 61 0;
#X restore 471 249 pd belle;
#N canvas 0 209 1280 698 belle 0;
#X msg 157 211 hit 1;
#X msg 202 242 hit 0;
#X obj 199 175 bng 15 250 50 0 empty empty empty 17 7 0 10 -262144
-1 -1;
#X obj 202 211 pipe 2;
#X obj 265 332 bellPend~;
#X obj 85 169 bng 15 250 50 0 empty empty empty 17 7 0 10 -262144 -1
-1;
#X text 109 167 hit me;
#X msg 34 238 poke 1;
#X msg 85 237 poke 0;
#X obj 85 205 pipe 10;
#X obj 267 12 inlet;
#X obj 303 495 outlet~;
#X obj 501 492 outlet~;
#X obj 268 75 route poke hit;
#X msg 398 231 hit 0;
#X obj 488 313 modalBarUI~;
#X obj 466 114 bng 15 250 50 0 empty empty empty 17 7 0 10 -262144
-1 -1;
#X obj 398 203 pipe 2;
#X floatatom 435 179 5 0 0 0 - - -;
#X obj 478 209 f 2;
#X msg 479 241 hit \$1;
#X floatatom 490 181 5 0 0 0 - - -;
#X obj 267 45 route pendulum bar;
#X obj 635 63 route hit;
#X obj 538 353 pan~;
#X msg 717 310 45 1000 -45 1000;
#X obj 690 256 spigot;
#X obj 709 189 del 5000;
#X obj 690 151 t b b b;
#X msg 709 215 0;
#X msg 749 215 1;
#X obj 690 339 iemlib/bpe;
#X obj 690 283 t b b;
#X obj 690 369 line 0 20;
#X obj 466 137 t b b b;
#X floatatom 1028 335 5 0 0 0 - - -;
#X obj 1028 301 route tabsize done;
#X obj 1080 335 bng 15 250 50 0 empty empty empty 17 7 0 10 -262144
-1 -1;
#X floatatom 882 141 5 0 0 0 - - -;
#X msg 882 165 distance \$1;
#X floatatom 972 141 5 0 0 0 - - -;
#X msg 972 165 temp \$1;
#X floatatom 1042 141 5 0 0 0 - - -;
#X msg 1042 165 humidity \$1;
#X floatatom 1132 141 5 0 0 0 - - -;
#X msg 1132 165 pressure \$1;
#X obj 839 238 ansi_air 2048;
#X msg 1231 168 gettabsize;
#X obj 839 204 bng 15 250 50 0 empty empty empty 17 7 0 10 -262144
-1 -1;
#X msg 1028 369 \; reykIR resize \$1;
#X obj 839 304 tabwrite reykIR;
#X obj 843 350 table reykIR;
#X msg 1024 468 \; pd dsp 0;
#X msg 986 506 \; pd dsp 1;
#X msg 915 397 set reykIR;
#X msg 776 127 gettabsize;
#X obj 843 34 loadbang;
#X obj 844 64 t b b b;
#X msg 887 110 500;
#X obj 916 43 bng 15 250 50 0 empty empty empty 17 7 0 10 -262144 -1
-1;
#X obj 303 450 bsaylor/partconv~ reykIR 2048;
#X obj 501 449 bsaylor/partconv~ reykIR 2048;
#X msg 977 110 -5;
#X msg 1047 110 40;
#X msg 1136 110 101.325;
#X obj 303 415 *~ 20;
#X obj 501 416 *~ 20;
#X connect 0 0 4 0;
#X connect 1 0 4 0;
#X connect 2 0 0 0;
#X connect 2 0 3 0;
#X connect 3 0 1 0;
#X connect 4 1 65 0;
#X connect 4 2 66 0;
#X connect 5 0 7 0;
#X connect 5 0 9 0;
#X connect 7 0 4 0;
#X connect 8 0 4 0;
#X connect 9 0 8 0;
#X connect 10 0 22 0;
#X connect 13 0 5 0;
#X connect 13 1 2 0;
#X connect 13 2 4 0;
#X connect 14 0 15 0;
#X connect 15 1 24 0;
#X connect 16 0 34 0;
#X connect 17 0 14 0;
#X connect 18 0 17 1;
#X connect 19 0 20 0;
#X connect 20 0 15 0;
#X connect 21 0 19 1;
#X connect 22 0 13 0;
#X connect 22 1 23 0;
#X connect 23 0 16 0;
#X connect 23 1 15 0;
#X connect 24 0 65 0;
#X connect 24 1 66 0;
#X connect 25 0 31 0;
#X connect 26 0 32 0;
#X connect 27 0 29 0;
#X connect 28 0 26 0;
#X connect 28 1 27 0;
#X connect 28 2 30 0;
#X connect 29 0 26 1;
#X connect 30 0 26 1;
#X connect 31 0 33 0;
#X connect 31 1 33 1;
#X connect 31 2 26 0;
#X connect 32 0 31 0;
#X connect 32 1 25 0;
#X connect 33 0 24 1;
#X connect 34 0 17 0;
#X connect 34 1 19 0;
#X connect 34 2 28 0;
#X connect 35 0 49 0;
#X connect 36 0 35 0;
#X connect 36 1 37 0;
#X connect 37 0 54 0;
#X connect 38 0 39 0;
#X connect 39 0 46 0;
#X connect 40 0 41 0;
#X connect 41 0 46 0;
#X connect 42 0 43 0;
#X connect 43 0 46 0;
#X connect 44 0 45 0;
#X connect 45 0 46 0;
#X connect 45 0 48 0;
#X connect 46 0 50 0;
#X connect 46 1 50 1;
#X connect 46 2 36 0;
#X connect 47 0 46 0;
#X connect 48 0 46 0;
#X connect 54 0 60 0;
#X connect 54 0 61 0;
#X connect 55 0 46 0;
#X connect 56 0 57 0;
#X connect 57 0 48 0;
#X connect 57 1 58 0;
#X connect 57 1 62 0;
#X connect 57 1 63 0;
#X connect 57 1 64 0;
#X connect 57 2 55 0;
#X connect 58 0 38 0;
#X connect 59 0 57 0;
#X connect 60 0 11 0;
#X connect 61 0 12 0;
#X connect 62 0 40 0;
#X connect 63 0 42 0;
#X connect 64 0 44 0;
#X connect 65 0 60 0;
#X connect 66 0 61 0;
#X restore 581 251 pd belle;
#N canvas 166 35 1040 833 kerg 0;
#X obj 352 -498 route clicks level;
#X obj 352 -528 inlet;
#X obj 404 -375 change;
#X floatatom 461 -323 5 0 0 0 - - -;
#X obj 461 -362 f 1;
#X obj 463 -409 bng 15 250 50 0 empty empty empty 17 7 0 10 -262144
-1 -1;
#X obj 407 222 outlet;
#X obj 35 -224 bng 15 250 50 0 empty empty empty 17 7 0 10 -262144
-1 -1;
#X obj 528 -150 + 0.009;
#X msg 88 -11 pendulum poke bang \, bar hit bang;
#X obj 68 -440 change;
#X obj 223 -262 delta;
#X obj 223 -225 - 1;
#X msg 528 -97 bar users \$1;
#X msg 223 -119 pendulum fre \$1;
#X msg 403 -93 pendulum users \$1;
#X obj 68 -477 route float bang;
#X obj 753 -245 expr pow($f1 \, $f2);
#X floatatom 929 -267 5 0 0 0 - - -;
#X obj 929 -325 loadbang;
#X text 975 -265 << curving amount;
#X text 582 -150 << interval between bell with penulum and bell w/o
;
#X msg 61 93 pendulum poke bang;
#X floatatom 1029 -119 5 0 0 0 - - -;
#N canvas 539 344 687 452 fre-env 0;
#X obj 134 35 iemlib/bpe;
#X obj 134 -182 inlet;
#X obj 134 -135 t b f f;
#X obj 134 87 line 0 10;
#X obj 134 137 outlet;
#X msg 153 -7 \$2 0 0 \$1;
#X obj 153 -38 pack;
#X obj 153 -90 * 1000;
#X text 260 -98 start at high fre value and fade down to zero;
#X obj 153 -66 + 1000;
#X connect 0 0 3 0;
#X connect 0 1 3 1;
#X connect 1 0 2 0;
#X connect 2 0 0 0;
#X connect 2 1 7 0;
#X connect 2 2 6 1;
#X connect 3 0 4 0;
#X connect 5 0 0 0;
#X connect 6 0 5 0;
#X connect 7 0 9 0;
#X connect 9 0 6 0;
#X restore 223 -183 pd fre-env;
#X obj 68 -407 t b f;
#X floatatom 154 -437 5 0 0 0 - - -;
#X floatatom 525 -339 5 0 0 0 - - -;
#X msg 928 -298 2;
#X obj 404 -210 expr $f1 / 511;
#X obj 752 -308 int;
#X obj 752 -279 expr $f1 / 511;
#X obj 752 -337 expr $f1 * 511;
#X obj 752 -368 expr (($f1 + 4) / 8);
#X connect 0 0 16 0;
#X connect 0 1 2 0;
#X connect 0 1 4 1;
#X connect 1 0 0 0;
#X connect 2 0 29 0;
#X connect 3 0 29 0;
#X connect 4 0 3 0;
#X connect 5 0 4 0;
#X connect 7 0 9 0;
#X connect 8 0 13 0;
#X connect 9 0 6 0;
#X connect 10 0 25 0;
#X connect 11 0 12 0;
#X connect 12 0 24 0;
#X connect 13 0 6 0;
#X connect 14 0 6 0;
#X connect 15 0 6 0;
#X connect 16 0 10 0;
#X connect 16 1 9 0;
#X connect 18 0 17 1;
#X connect 19 0 28 0;
#X connect 22 0 6 0;
#X connect 24 0 14 0;
#X connect 25 0 9 0;
#X connect 25 1 11 0;
#X connect 26 0 25 0;
#X connect 28 0 18 0;
#X connect 29 0 15 0;
#X connect 29 0 8 0;
#X connect 30 0 31 0;
#X connect 31 0 17 0;
#X connect 32 0 30 0;
#X connect 33 0 32 0;
#X restore 241 184 pd kerg mapping;
#N canvas 74 55 1130 820 UI+defaults 0;
#X msg -127 -167 users \$1;
#X obj -124 -213 hsl 128 15 0.001 1 0 0 empty empty empty -2 -8 0 10
-262144 -1 -1 4988 1;
#X text -56 -168 0.0001 - 1;
#X msg 571 -104 users \$1;
#X obj 574 -166 hsl 128 15 0 1 0 0 empty empty empty -2 -8 0 10 -262144
-1 -1 5110 1;
#X msg 492 -96 b \$1;
#X floatatom 492 -125 5 0 0 0 - - -;
#X text 456 -143 choose your bell;
#X floatatom 599 -138 5 0 0 0 - - -;
#X obj 287 186 pp pendulum;
#X obj 678 149 pp bar;
#X obj 50 -213 vsl 15 128 5 200 0 0 empty empty empty 0 -9 0 10 -262144
-1 -1 6900 1;
#X msg 50 -72 amp \$1;
#X obj 124 -208 vsl 15 128 0.9999 1 0 0 empty empty empty 0 -9 0 10
-262144 -1 -1 10414 1;
#X msg 124 -69 que \$1;
#X obj 215 -211 vsl 15 128 0 10 0 0 empty empty empty 0 -9 0 10 -262144
-1 -1 381 1;
#X msg 216 -66 fre \$1;
#X msg 297 -65 clapper \$1;
#X text 59 -43 5 - 200;
#X text 134 -42 0.9999 - 1;
#X text 238 -38 0 - 10;
#X obj -73 35 loadbang;
#X msg -188 72 que 0.999982;
#X obj -188 38 pp set;
#X msg -265 69 amp 110.945;
#X obj -266 34 pp set;
#X msg -11 80 b 0;
#N canvas 1381 385 450 300 thru 0;
#X obj 96 64 inlet;
#X obj 94 98 outlet;
#X connect 0 0 1 0;
#X restore -341 -489 pd thru;
#N canvas 1381 385 450 300 thru 0;
#X obj 96 64 inlet;
#X obj 94 98 outlet;
#X connect 0 0 1 0;
#X restore -329 191 pd thru;
#X text -243 -146 current value;
#X text 645 -143 current value;
#X msg -85 79 fre 0;
#X obj 154 -407 route pendulum bar;
#X obj 155 -348 route users amp que fre;
#X obj -14 147 pp bar;
#X obj 597 -299 route b users;
#X obj 154 -455 inlet;
#X obj 287 255 outlet;
#X text -114 -2 defaults;
#X obj -267 156 pp pendulum;
#X msg -168 242 que 0.999982;
#X msg -249 243 amp 107.874;
#X text -174 210 backup defaults;
#X obj 215 -248 clip 0.3 1;
#X connect 0 0 9 0;
#X connect 1 0 0 0;
#X connect 3 0 10 0;
#X connect 4 0 3 0;
#X connect 4 0 8 0;
#X connect 5 0 10 0;
#X connect 6 0 5 0;
#X connect 9 0 37 0;
#X connect 10 0 37 0;
#X connect 11 0 12 0;
#X connect 12 0 25 0;
#X connect 12 0 9 0;
#X connect 13 0 14 0;
#X connect 14 0 23 0;
#X connect 14 0 9 0;
#X connect 15 0 16 0;
#X connect 16 0 9 0;
#X connect 21 0 31 0;
#X connect 21 0 22 0;
#X connect 21 0 24 0;
#X connect 21 0 26 0;
#X connect 22 0 39 0;
#X connect 23 0 22 0;
#X connect 24 0 39 0;
#X connect 25 0 24 0;
#X connect 26 0 34 0;
#X connect 27 0 32 0;
#X connect 28 0 27 0;
#X connect 31 0 39 0;
#X connect 32 0 33 0;
#X connect 32 1 35 0;
#X connect 33 0 1 0;
#X connect 33 1 11 0;
#X connect 33 2 13 0;
#X connect 33 3 43 0;
#X connect 33 4 9 0;
#X connect 34 0 28 0;
#X connect 35 0 6 0;
#X connect 35 1 4 0;
#X connect 35 2 10 0;
#X connect 36 0 32 0;
#X connect 39 0 28 0;
#X connect 43 0 15 0;
#X restore 241 212 pd UI+defaults;
#X obj 255 382 iemmatrix/mtx_mul~ 8 8 20 __________________________________
;
#N canvas 516 67 1433 977 UI+defaults 0;
#X msg -127 -167 users \$1;
#X obj -124 -213 hsl 128 15 0.001 1 0 0 empty empty empty -2 -8 0 10
-262144 -1 -1 0 1;
#X text -56 -168 0.0001 - 1;
#X msg 571 -104 users \$1;
#X obj 574 -166 hsl 128 15 0 1 0 0 empty empty empty -2 -8 0 10 -262144
-1 -1 114 1;
#X msg 492 -96 b \$1;
#X floatatom 492 -125 5 0 0 0 - - -;
#X text 456 -143 choose your bell;
#X floatatom 599 -138 5 0 0 0 - - -;
#X obj 287 186 pp pendulum;
#X obj 678 149 pp bar;
#X obj 50 -213 vsl 15 128 5 200 0 0 empty empty empty 0 -9 0 10 -262144
-1 -1 6900 1;
#X msg 50 -72 amp \$1;
#X obj 124 -208 vsl 15 128 0.9999 1 0 0 empty empty empty 0 -9 0 10
-262144 -1 -1 10414 1;
#X msg 124 -69 que \$1;
#X obj 215 -211 vsl 15 128 0 10 0 0 empty empty empty 0 -9 0 10 -262144
-1 -1 381 1;
#X msg 216 -66 fre \$1;
#X msg 297 -65 clapper \$1;
#X text 59 -43 5 - 200;
#X text 134 -42 0.9999 - 1;
#X text 238 -38 0 - 10;
#X obj -73 35 loadbang;
#X msg -188 72 que 0.999982;
#X obj -188 38 pp set;
#X msg -265 69 amp 110.945;
#X obj -266 34 pp set;
#X msg -11 80 b 0;
#N canvas 1381 385 450 300 thru 0;
#X obj 96 64 inlet;
#X obj 94 98 outlet;
#X connect 0 0 1 0;
#X restore -341 -489 pd thru;
#N canvas 1381 385 450 300 thru 0;
#X obj 96 64 inlet;
#X obj 94 98 outlet;
#X connect 0 0 1 0;
#X restore -329 191 pd thru;
#X floatatom -199 -167 5 0 0 0 - - -;
#X text -243 -146 current value;
#X text 645 -143 current value;
#X msg -85 79 fre 0;
#X obj 154 -407 route pendulum bar;
#X obj 155 -348 route users amp que fre;
#X obj -14 147 pp bar;
#X obj 597 -299 route b users;
#X obj 154 -455 inlet;
#X obj 287 255 outlet;
#X text -114 -2 defaults;
#X obj -267 156 pp pendulum;
#X msg -168 242 que 0.999982;
#X msg -249 243 amp 107.874;
#X text -174 210 backup defaults;
#X floatatom 168 -201 5 0 0 0 - - -;
#X obj 215 -248 clip 0.3 1;
#X connect 0 0 9 0;
#X connect 1 0 0 0;
#X connect 1 0 29 0;
#X connect 3 0 10 0;
#X connect 4 0 3 0;
#X connect 4 0 8 0;
#X connect 5 0 10 0;
#X connect 6 0 5 0;
#X connect 9 0 38 0;
#X connect 10 0 38 0;
#X connect 11 0 12 0;
#X connect 12 0 25 0;
#X connect 12 0 9 0;
#X connect 13 0 14 0;
#X connect 14 0 23 0;
#X connect 14 0 9 0;
#X connect 15 0 16 0;
#X connect 16 0 9 0;
#X connect 21 0 32 0;
#X connect 21 0 22 0;
#X connect 21 0 24 0;
#X connect 21 0 26 0;
#X connect 22 0 40 0;
#X connect 23 0 22 0;
#X connect 24 0 40 0;
#X connect 25 0 24 0;
#X connect 26 0 35 0;
#X connect 27 0 33 0;
#X connect 28 0 27 0;
#X connect 32 0 40 0;
#X connect 33 0 34 0;
#X connect 33 1 36 0;
#X connect 34 0 1 0;
#X connect 34 1 11 0;
#X connect 34 2 13 0;
#X connect 34 3 45 0;
#X connect 34 4 9 0;
#X connect 35 0 28 0;
#X connect 36 0 6 0;
#X connect 36 1 4 0;
#X connect 36 2 10 0;
#X connect 37 0 33 0;
#X connect 40 0 28 0;
#X connect 45 0 15 0;
#X connect 45 0 44 0;
#X restore 361 212 pd UI+defaults;
#N canvas 516 67 1433 977 UI+defaults 0;
#X msg -127 -167 users \$1;
#X obj -124 -213 hsl 128 15 0.001 1 0 0 empty empty empty -2 -8 0 10
-262144 -1 -1 5635 1;
#X text -56 -168 0.0001 - 1;
#X msg 571 -104 users \$1;
#X obj 574 -166 hsl 128 15 0 1 0 0 empty empty empty -2 -8 0 10 -262144
-1 -1 5756 1;
#X msg 492 -96 b \$1;
#X floatatom 492 -125 5 0 0 0 - - -;
#X text 456 -143 choose your bell;
#X floatatom 599 -138 5 0 0 0 - - -;
#X obj 287 186 pp pendulum;
#X obj 678 149 pp bar;
#X obj 50 -213 vsl 15 128 5 200 0 0 empty empty empty 0 -9 0 10 -262144
-1 -1 6900 1;
#X msg 50 -72 amp \$1;
#X obj 124 -208 vsl 15 128 0.9999 1 0 0 empty empty empty 0 -9 0 10
-262144 -1 -1 10414 1;
#X msg 124 -69 que \$1;
#X obj 215 -211 vsl 15 128 0 10 0 0 empty empty empty 0 -9 0 10 -262144
-1 -1 381 1;
#X msg 216 -66 fre \$1;
#X msg 297 -65 clapper \$1;
#X text 59 -43 5 - 200;
#X text 134 -42 0.9999 - 1;
#X text 238 -38 0 - 10;
#X obj -73 35 loadbang;
#X msg -188 72 que 0.999982;
#X obj -188 38 pp set;
#X msg -265 69 amp 110.945;
#X obj -266 34 pp set;
#X msg -11 80 b 0;
#N canvas 1381 385 450 300 thru 0;
#X obj 96 64 inlet;
#X obj 94 98 outlet;
#X connect 0 0 1 0;
#X restore -341 -489 pd thru;
#N canvas 1381 385 450 300 thru 0;
#X obj 96 64 inlet;
#X obj 94 98 outlet;
#X connect 0 0 1 0;
#X restore -329 191 pd thru;
#X floatatom -199 -167 5 0 0 0 - - -;
#X text -243 -146 current value;
#X text 645 -143 current value;
#X msg -85 79 fre 0;
#X obj 154 -407 route pendulum bar;
#X obj 155 -348 route users amp que fre;
#X obj -14 147 pp bar;
#X obj 597 -299 route b users;
#X obj 154 -455 inlet;
#X obj 287 255 outlet;
#X text -114 -2 defaults;
#X obj -267 156 pp pendulum;
#X msg -168 242 que 0.999982;
#X msg -249 243 amp 107.874;
#X text -174 210 backup defaults;
#X floatatom 168 -201 5 0 0 0 - - -;
#X obj 215 -248 clip 0.3 1;
#X connect 0 0 9 0;
#X connect 1 0 0 0;
#X connect 1 0 29 0;
#X connect 3 0 10 0;
#X connect 4 0 3 0;
#X connect 4 0 8 0;
#X connect 5 0 10 0;
#X connect 6 0 5 0;
#X connect 9 0 38 0;
#X connect 10 0 38 0;
#X connect 11 0 12 0;
#X connect 12 0 25 0;
#X connect 12 0 9 0;
#X connect 13 0 14 0;
#X connect 14 0 23 0;
#X connect 14 0 9 0;
#X connect 15 0 16 0;
#X connect 16 0 9 0;
#X connect 21 0 32 0;
#X connect 21 0 22 0;
#X connect 21 0 24 0;
#X connect 21 0 26 0;
#X connect 22 0 40 0;
#X connect 23 0 22 0;
#X connect 24 0 40 0;
#X connect 25 0 24 0;
#X connect 26 0 35 0;
#X connect 27 0 33 0;
#X connect 28 0 27 0;
#X connect 32 0 40 0;
#X connect 33 0 34 0;
#X connect 33 1 36 0;
#X connect 34 0 1 0;
#X connect 34 1 11 0;
#X connect 34 2 13 0;
#X connect 34 3 45 0;
#X connect 34 4 9 0;
#X connect 35 0 28 0;
#X connect 36 0 6 0;
#X connect 36 1 4 0;
#X connect 36 2 10 0;
#X connect 37 0 33 0;
#X connect 40 0 28 0;
#X connect 45 0 15 0;
#X connect 45 0 44 0;
#X restore 471 212 pd UI+defaults;
#N canvas 516 67 1433 977 UI+defaults 0;
#X msg -127 -167 users \$1;
#X obj -124 -213 hsl 128 15 0.001 1 0 0 empty empty empty -2 -8 0 10
-262144 -1 -1 734 1;
#X text -56 -168 0.0001 - 1;
#X msg 571 -104 users \$1;
#X obj 574 -166 hsl 128 15 0 1 0 0 empty empty empty -2 -8 0 10 -262144
-1 -1 860 1;
#X msg 492 -96 b \$1;
#X floatatom 492 -125 5 0 0 0 - - -;
#X text 456 -143 choose your bell;
#X floatatom 599 -138 5 0 0 0 - - -;
#X obj 287 186 pp pendulum;
#X obj 678 149 pp bar;
#X obj 50 -213 vsl 15 128 5 200 0 0 empty empty empty 0 -9 0 10 -262144
-1 -1 6900 1;
#X msg 50 -72 amp \$1;
#X obj 124 -208 vsl 15 128 0.9999 1 0 0 empty empty empty 0 -9 0 10
-262144 -1 -1 10414 1;
#X msg 124 -69 que \$1;
#X obj 215 -211 vsl 15 128 0 10 0 0 empty empty empty 0 -9 0 10 -262144
-1 -1 381 1;
#X msg 216 -66 fre \$1;
#X msg 297 -65 clapper \$1;
#X text 59 -43 5 - 200;
#X text 134 -42 0.9999 - 1;
#X text 238 -38 0 - 10;
#X obj -73 35 loadbang;
#X msg -188 72 que 0.999982;
#X obj -188 38 pp set;
#X msg -265 69 amp 110.945;
#X obj -266 34 pp set;
#X msg -11 80 b 0;
#N canvas 1381 385 450 300 thru 0;
#X obj 96 64 inlet;
#X obj 94 98 outlet;
#X connect 0 0 1 0;
#X restore -341 -489 pd thru;
#N canvas 1381 385 450 300 thru 0;
#X obj 96 64 inlet;
#X obj 94 98 outlet;
#X connect 0 0 1 0;
#X restore -329 191 pd thru;
#X floatatom -199 -167 5 0 0 0 - - -;
#X text -243 -146 current value;
#X text 645 -143 current value;
#X msg -85 79 fre 0;
#X obj 154 -407 route pendulum bar;
#X obj 155 -348 route users amp que fre;
#X obj -14 147 pp bar;
#X obj 597 -299 route b users;
#X obj 154 -455 inlet;
#X obj 287 255 outlet;
#X text -114 -2 defaults;
#X obj -267 156 pp pendulum;
#X msg -168 242 que 0.999982;
#X msg -249 243 amp 107.874;
#X text -174 210 backup defaults;
#X floatatom 168 -201 5 0 0 0 - - -;
#X obj 215 -248 clip 0.3 1;
#X connect 0 0 9 0;
#X connect 1 0 0 0;
#X connect 1 0 29 0;
#X connect 3 0 10 0;
#X connect 4 0 3 0;
#X connect 4 0 8 0;
#X connect 5 0 10 0;
#X connect 6 0 5 0;
#X connect 9 0 38 0;
#X connect 10 0 38 0;
#X connect 11 0 12 0;
#X connect 12 0 25 0;
#X connect 12 0 9 0;
#X connect 13 0 14 0;
#X connect 14 0 23 0;
#X connect 14 0 9 0;
#X connect 15 0 16 0;
#X connect 16 0 9 0;
#X connect 21 0 32 0;
#X connect 21 0 22 0;
#X connect 21 0 24 0;
#X connect 21 0 26 0;
#X connect 22 0 40 0;
#X connect 23 0 22 0;
#X connect 24 0 40 0;
#X connect 25 0 24 0;
#X connect 26 0 35 0;
#X connect 27 0 33 0;
#X connect 28 0 27 0;
#X connect 32 0 40 0;
#X connect 33 0 34 0;
#X connect 33 1 36 0;
#X connect 34 0 1 0;
#X connect 34 1 11 0;
#X connect 34 2 13 0;
#X connect 34 3 45 0;
#X connect 34 4 9 0;
#X connect 35 0 28 0;
#X connect 36 0 6 0;
#X connect 36 1 4 0;
#X connect 36 2 10 0;
#X connect 37 0 33 0;
#X connect 40 0 28 0;
#X connect 45 0 15 0;
#X connect 45 0 44 0;
#X restore 581 212 pd UI+defaults;
#N canvas 468 66 1040 833 ganm 0;
#X obj 352 -498 route clicks level;
#X obj 352 -528 inlet;
#X obj 404 -375 change;
#X floatatom 461 -323 5 0 0 0 - - -;
#X obj 461 -362 f 1;
#X obj 463 -409 bng 15 250 50 0 empty empty empty 17 7 0 10 -262144
-1 -1;
#X obj 407 222 outlet;
#X obj 35 -224 bng 15 250 50 0 empty empty empty 17 7 0 10 -262144
-1 -1;
#X obj 528 -150 + 0.009;
#X msg 88 -11 pendulum poke bang \, bar hit bang;
#X obj 68 -440 change;
#X obj 223 -262 delta;
#X obj 223 -225 - 1;
#X msg 528 -97 bar users \$1;
#X msg 223 -119 pendulum fre \$1;
#X msg 403 -93 pendulum users \$1;
#X obj 68 -477 route float bang;
#X text 582 -150 << interval between bell with penulum and bell w/o
;
#X msg 61 93 pendulum poke bang;
#X floatatom 1029 -119 5 0 0 0 - - -;
#N canvas 1468 439 687 452 fre-env 0;
#X obj 134 35 iemlib/bpe;
#X obj 134 -182 inlet;
#X obj 134 -135 t b f f;
#X obj 134 87 line 0 10;
#X obj 134 137 outlet;
#X msg 153 -7 \$2 0 0 \$1;
#X obj 153 -38 pack;
#X obj 153 -90 * 1000;
#X text 260 -98 start at high fre value and fade down to zero;
#X obj 153 -66 + 1000;
#X connect 0 0 3 0;
#X connect 0 1 3 1;
#X connect 1 0 2 0;
#X connect 2 0 0 0;
#X connect 2 1 7 0;
#X connect 2 2 6 1;
#X connect 3 0 4 0;
#X connect 5 0 0 0;
#X connect 6 0 5 0;
#X connect 7 0 9 0;
#X connect 9 0 6 0;
#X restore 223 -183 pd fre-env;
#X obj 68 -407 t b f;
#X floatatom 154 -437 5 0 0 0 - - -;
#X obj 404 -224 expr $f1 / 511;
#X obj 37 -299 bng 15 250 50 0 empty empty empty 17 7 0 10 -262144
-1 -1;
#X floatatom 162 -374 5 0 0 0 - - -;
#X obj 75 -241 spigot;
#X obj 108 -277 != 0;
#X connect 0 0 16 0;
#X connect 0 1 2 0;
#X connect 0 1 4 1;
#X connect 1 0 0 0;
#X connect 2 0 23 0;
#X connect 2 0 27 0;
#X connect 3 0 23 0;
#X connect 4 0 3 0;
#X connect 5 0 4 0;
#X connect 7 0 9 0;
#X connect 8 0 13 0;
#X connect 9 0 6 0;
#X connect 10 0 21 0;
#X connect 10 0 25 0;
#X connect 11 0 12 0;
#X connect 12 0 20 0;
#X connect 13 0 6 0;
#X connect 14 0 6 0;
#X connect 15 0 6 0;
#X connect 16 0 10 0;
#X connect 16 1 9 0;
#X connect 18 0 6 0;
#X connect 20 0 14 0;
#X connect 21 0 26 0;
#X connect 21 1 11 0;
#X connect 22 0 21 0;
#X connect 23 0 15 0;
#X connect 23 0 8 0;
#X connect 26 0 9 0;
#X connect 27 0 26 1;
#X restore 361 184 pd ganm mapping;
#N canvas 307 22 1040 833 reyk 0;
#X obj 352 -498 route clicks level;
#X obj 352 -528 inlet;
#X obj 404 -375 change;
#X obj 461 -362 f 1;
#X obj 463 -409 bng 15 250 50 0 empty empty empty 17 7 0 10 -262144
-1 -1;
#X obj 407 222 outlet;
#X obj 35 -224 bng 15 250 50 0 empty empty empty 17 7 0 10 -262144
-1 -1;
#X obj 528 -150 + 0.009;
#X msg 88 -11 pendulum poke bang \, bar hit bang;
#X obj 68 -440 change;
#X obj 223 -262 delta;
#X obj 223 -225 - 1;
#X msg 528 -97 bar users \$1;
#X msg 223 -119 pendulum fre \$1;
#X msg 403 -93 pendulum users \$1;
#X obj 68 -477 route float bang;
#X text 582 -150 << interval between bell with penulum and bell w/o
;
#X msg 61 93 pendulum poke bang;
#X floatatom 1029 -119 5 0 0 0 - - -;
#N canvas 1468 439 687 452 fre-env 0;
#X obj 134 35 iemlib/bpe;
#X obj 134 -182 inlet;
#X obj 134 -135 t b f f;
#X obj 134 87 line 0 10;
#X obj 134 137 outlet;
#X msg 153 -7 \$2 0 0 \$1;
#X obj 153 -38 pack;
#X obj 153 -90 * 1000;
#X text 260 -98 start at high fre value and fade down to zero;
#X obj 153 -66 + 1000;
#X connect 0 0 3 0;
#X connect 0 1 3 1;
#X connect 1 0 2 0;
#X connect 2 0 0 0;
#X connect 2 1 7 0;
#X connect 2 2 6 1;
#X connect 3 0 4 0;
#X connect 5 0 0 0;
#X connect 6 0 5 0;
#X connect 7 0 9 0;
#X connect 9 0 6 0;
#X restore 223 -183 pd fre-env;
#X obj 68 -407 t b f;
#X floatatom 154 -437 5 0 0 0 - - -;
#X obj 404 -248 expr $f1 / 511;
#X connect 0 0 15 0;
#X connect 0 1 2 0;
#X connect 0 1 3 1;
#X connect 1 0 0 0;
#X connect 2 0 22 0;
#X connect 3 0 22 0;
#X connect 4 0 3 0;
#X connect 6 0 8 0;
#X connect 7 0 12 0;
#X connect 8 0 5 0;
#X connect 9 0 20 0;
#X connect 10 0 11 0;
#X connect 11 0 19 0;
#X connect 12 0 5 0;
#X connect 13 0 5 0;
#X connect 14 0 5 0;
#X connect 15 0 9 0;
#X connect 15 1 8 0;
#X connect 17 0 5 0;
#X connect 19 0 13 0;
#X connect 20 0 8 0;
#X connect 20 1 10 0;
#X connect 21 0 20 0;
#X connect 22 0 14 0;
#X connect 22 0 7 0;
#X restore 581 184 pd reyk mapping;
#N canvas 96 92 1040 833 ve19 0;
#X obj 352 -498 route clicks level;
#X obj 352 -528 inlet;
#X obj 404 -375 change;
#X floatatom 461 -323 5 0 0 0 - - -;
#X obj 461 -362 f 1;
#X obj 463 -409 bng 15 250 50 0 empty empty empty 17 7 0 10 -262144
-1 -1;
#X obj 407 222 outlet;
#X obj 35 -224 bng 15 250 50 0 empty empty empty 17 7 0 10 -262144
-1 -1;
#X obj 528 -150 + 0.009;
#X msg 88 -11 pendulum poke bang \, bar hit bang;
#X obj 68 -440 change;
#X obj 223 -262 delta;
#X obj 223 -225 - 1;
#X msg 528 -97 bar users \$1;
#X msg 223 -119 pendulum fre \$1;
#X msg 403 -93 pendulum users \$1;
#X obj 68 -477 route float bang;
#X text 582 -150 << interval between bell with penulum and bell w/o
;
#X msg 61 93 pendulum poke bang;
#X floatatom 1029 -119 5 0 0 0 - - -;
#N canvas 1468 439 687 452 fre-env 0;
#X obj 134 35 iemlib/bpe;
#X obj 134 -182 inlet;
#X obj 134 -135 t b f f;
#X obj 134 87 line 0 10;
#X obj 134 137 outlet;
#X msg 153 -7 \$2 0 0 \$1;
#X obj 153 -38 pack;
#X obj 153 -90 * 1000;
#X text 260 -98 start at high fre value and fade down to zero;
#X obj 153 -66 + 1000;
#X connect 0 0 3 0;
#X connect 0 1 3 1;
#X connect 1 0 2 0;
#X connect 2 0 0 0;
#X connect 2 1 7 0;
#X connect 2 2 6 1;
#X connect 3 0 4 0;
#X connect 5 0 0 0;
#X connect 6 0 5 0;
#X connect 7 0 9 0;
#X connect 9 0 6 0;
#X restore 223 -183 pd fre-env;
#X obj 68 -407 t b f;
#X floatatom 154 -437 5 0 0 0 - - -;
#X floatatom 365 -150 5 0 0 0 - - -;
#X obj 401 -261 expr $f1 / 511;
#X connect 0 0 16 0;
#X connect 0 1 2 0;
#X connect 0 1 4 1;
#X connect 1 0 0 0;
#X connect 2 0 24 0;
#X connect 4 0 3 0;
#X connect 4 0 24 0;
#X connect 5 0 4 0;
#X connect 7 0 9 0;
#X connect 8 0 13 0;
#X connect 9 0 6 0;
#X connect 10 0 21 0;
#X connect 11 0 12 0;
#X connect 12 0 20 0;
#X connect 13 0 6 0;
#X connect 14 0 6 0;
#X connect 15 0 6 0;
#X connect 16 0 10 0;
#X connect 16 1 9 0;
#X connect 18 0 6 0;
#X connect 20 0 14 0;
#X connect 21 0 9 0;
#X connect 21 1 11 0;
#X connect 22 0 21 0;
#X connect 24 0 15 0;
#X connect 24 0 8 0;
#X restore 471 186 pd ve19 mapping;
#X connect 0 0 1 0;
#X connect 1 0 21 0;
#X connect 2 0 21 2;
#X connect 2 1 21 3;
#X connect 3 0 15 0;
#X connect 15 0 0 0;
#X connect 15 1 19 0;
#X connect 15 2 25 0;
#X connect 15 3 27 0;
#X connect 15 4 26 0;
#X connect 15 5 13 0;
#X connect 16 0 21 1;
#X connect 16 1 21 8;
#X connect 17 0 21 4;
#X connect 17 1 21 5;
#X connect 18 0 21 6;
#X connect 18 1 21 7;
#X connect 19 0 20 0;
#X connect 20 0 2 0;
#X connect 21 0 5 0;
#X connect 21 1 6 0;
#X connect 21 2 7 0;
#X connect 21 3 8 0;
#X connect 21 4 9 0;
#X connect 21 5 10 0;
#X connect 21 6 11 0;
#X connect 21 7 12 0;
#X connect 22 0 16 0;
#X connect 23 0 17 0;
#X connect 24 0 18 0;
#X connect 25 0 22 0;
#X connect 26 0 24 0;
#X connect 27 0 23 0;
#X restore 75 100 pd water_bells;
#X obj 16 341 outlet~;
#X obj 70 341 outlet~;
#N canvas 40 22 1280 814 waves 0;
#X obj 242 -83 db2v;
#N canvas 1700 695 450 300 8ch_diag 0;
#X floatatom 81 90 5 0 0 2 - - -;
#X obj 81 141 mtx_diag 0 0 0 0 0 0 0 0;
#X msg 81 113 \$1 \$1 \$1 \$1 \$1 \$1 \$1 \$1;
#X obj 81 40 inlet;
#X obj 81 189 outlet;
#X connect 0 0 2 0;
#X connect 1 0 4 0;
#X connect 2 0 1 0;
#X connect 3 0 0 0;
#X restore 242 -49 pd 8ch_diag;
#X obj 242 246 iemmatrix/mtx_mul~ 8 8 20 ____________________________________________________________
;
#X obj 322 -155 inlet;
#X obj 244 347 outlet~;
#X obj 294 347 outlet~;
#X obj 344 347 outlet~;
#X obj 396 347 outlet~;
#X obj 446 347 outlet~;
#X obj 496 347 outlet~;
#X obj 548 347 outlet~;
#X obj 598 347 outlet~;
#X obj 766 -90 outlet;
#X text 734 -63 delegation outlet;
#X obj 878 -20 soundfiler;
#X obj 878 -109 loadbang;
#X obj 878 13 > 0;
#X msg 878 110 read ocean-wave-3.wav to players;
#X obj 878 52 sel 1 0;
#X msg 897 80 might need to reset path to audio file;
#X obj 877 151 print wave-init;
#X text 1014 -119 set path if on a different computer;
#X text 667 336 << adjust hard wired panning here;
#N canvas 0 249 1280 510 wave-cascade 0;
#N canvas 500 485 450 300 waveplayer 0;
#X obj 219 141 spigot;
#X obj 98 28 inlet;
#X obj 98 72 route start loop;
#X obj 98 210 outlet~;
#X obj 252 106 tgl 15 0 empty empty empty 17 7 0 10 -262144 -1 -1 0
1;
#X obj 98 114 tabplay~ polarwavetab;
#X connect 0 0 5 0;
#X connect 1 0 2 0;
#X connect 2 0 5 0;
#X connect 2 1 4 0;
#X connect 4 0 0 1;
#X connect 5 0 3 0;
#X connect 5 1 0 0;
#X restore 237 151 pd waveplayer;
#N canvas 582 795 450 300 waveplayer 0;
#X obj 221 142 spigot;
#X obj 98 28 inlet;
#X obj 98 72 route start loop;
#X obj 98 210 outlet~;
#X obj 230 107 tgl 15 0 empty empty empty 17 7 0 10 -262144 -1 -1 0
1;
#X obj 98 114 tabplay~ polarwavetab;
#X connect 0 0 5 0;
#X connect 1 0 2 0;
#X connect 2 0 5 0;
#X connect 2 1 4 0;
#X connect 4 0 0 1;
#X connect 5 0 3 0;
#X connect 5 1 0 0;
#X restore 133 150 pd waveplayer;
#X obj 237 67 del 700;
#X msg 237 119 start bang;
#X obj 133 64 t b b;
#X msg 133 116 start bang;
#N canvas 500 485 450 300 waveplayer 0;
#X obj 197 142 spigot;
#X obj 98 28 inlet;
#X obj 98 72 route start loop;
#X obj 98 210 outlet~;
#X obj 230 107 tgl 15 0 empty empty empty 17 7 0 10 -262144 -1 -1 0
1;
#X obj 98 114 tabplay~ polarwavetab;
#X connect 0 0 5 0;
#X connect 1 0 2 0;
#X connect 2 0 5 0;
#X connect 2 1 4 0;
#X connect 4 0 0 1;
#X connect 5 0 3 0;
#X connect 5 1 0 0;
#X restore 337 151 pd waveplayer;
#X obj 337 67 del 700;
#X msg 337 119 start bang;
#N canvas 500 485 450 300 waveplayer 0;
#X obj 197 142 spigot;
#X obj 98 28 inlet;
#X obj 98 72 route start loop;
#X obj 98 210 outlet~;
#X obj 230 107 tgl 15 0 empty empty empty 17 7 0 10 -262144 -1 -1 0
1;
#X obj 98 114 tabplay~ polarwavetab;
#X connect 0 0 5 0;
#X connect 1 0 2 0;
#X connect 2 0 5 0;
#X connect 2 1 4 0;
#X connect 4 0 0 1;
#X connect 5 0 3 0;
#X connect 5 1 0 0;
#X restore 437 151 pd waveplayer;
#X obj 437 67 del 700;
#X msg 437 119 start bang;
#N canvas 500 485 450 300 waveplayer 0;
#X obj 197 142 spigot;
#X obj 98 28 inlet;
#X obj 98 72 route start loop;
#X obj 98 210 outlet~;
#X obj 230 107 tgl 15 0 empty empty empty 17 7 0 10 -262144 -1 -1 0
1;
#X obj 98 114 tabplay~ polarwavetab;
#X connect 0 0 5 0;
#X connect 1 0 2 0;
#X connect 2 0 5 0;
#X connect 2 1 4 0;
#X connect 4 0 0 1;
#X connect 5 0 3 0;
#X connect 5 1 0 0;
#X restore 637 151 pd waveplayer;
#N canvas 500 485 450 300 waveplayer 0;
#X obj 197 142 spigot;
#X obj 98 28 inlet;
#X obj 98 72 route start loop;
#X obj 98 210 outlet~;
#X obj 230 107 tgl 15 0 empty empty empty 17 7 0 10 -262144 -1 -1 0
1;
#X obj 98 114 tabplay~ polarwavetab;
#X connect 0 0 5 0;
#X connect 1 0 2 0;
#X connect 2 0 5 0;
#X connect 2 1 4 0;
#X connect 4 0 0 1;
#X connect 5 0 3 0;
#X connect 5 1 0 0;
#X restore 533 150 pd waveplayer;
#X obj 637 67 del 700;
#X msg 637 119 start bang;
#X msg 533 116 start bang;
#N canvas 500 485 450 300 waveplayer 0;
#X obj 197 142 spigot;
#X obj 98 28 inlet;
#X obj 98 72 route start loop;
#X obj 98 210 outlet~;
#X obj 230 107 tgl 15 0 empty empty empty 17 7 0 10 -262144 -1 -1 0
1;
#X obj 98 114 tabplay~ polarwavetab;
#X connect 0 0 5 0;
#X connect 1 0 2 0;
#X connect 2 0 5 0;
#X connect 2 1 4 0;
#X connect 4 0 0 1;
#X connect 5 0 3 0;
#X connect 5 1 0 0;
#X restore 737 151 pd waveplayer;
#X obj 737 67 del 700;
#X msg 737 119 start bang;
#N canvas 500 485 450 300 waveplayer 0;
#X obj 197 142 spigot;
#X obj 98 28 inlet;
#X obj 98 72 route start loop;
#X obj 98 210 outlet~;
#X obj 230 107 tgl 15 0 empty empty empty 17 7 0 10 -262144 -1 -1 0
1;
#X obj 98 114 tabplay~ polarwavetab;
#X connect 0 0 5 0;
#X connect 1 0 2 0;
#X connect 2 0 5 0;
#X connect 2 1 4 0;
#X connect 4 0 0 1;
#X connect 5 0 3 0;
#X connect 5 1 0 0;
#X restore 837 151 pd waveplayer;
#X obj 837 67 del 700;
#X msg 837 119 start bang;
#X obj 533 64 del 700;
#X obj 133 21 inlet;
#X obj 133 180 outlet~;
#X obj 237 180 outlet~;
#X obj 337 180 outlet~;
#X obj 437 180 outlet~;
#X obj 533 180 outlet~;
#X obj 637 180 outlet~;
#X obj 737 180 outlet~;
#X obj 837 180 outlet~;
#X connect 0 0 26 0;
#X connect 1 0 25 0;
#X connect 2 0 3 0;
#X connect 2 0 7 0;
#X connect 3 0 0 0;
#X connect 4 0 5 0;
#X connect 4 1 2 0;
#X connect 5 0 1 0;
#X connect 6 0 27 0;
#X connect 7 0 8 0;
#X connect 7 0 10 0;
#X connect 8 0 6 0;
#X connect 9 0 28 0;
#X connect 10 0 11 0;
#X connect 10 0 23 0;
#X connect 11 0 9 0;
#X connect 12 0 30 0;
#X connect 13 0 29 0;
#X connect 14 0 15 0;
#X connect 14 0 18 0;
#X connect 15 0 12 0;
#X connect 16 0 13 0;
#X connect 17 0 31 0;
#X connect 18 0 19 0;
#X connect 18 0 21 0;
#X connect 19 0 17 0;
#X connect 20 0 32 0;
#X connect 21 0 22 0;
#X connect 22 0 20 0;
#X connect 23 0 16 0;
#X connect 23 0 14 0;
#X connect 24 0 4 0;
#X restore 415 149 pd wave-cascade;
#X obj 416 71 t b;
#X obj 444 11 bng 15 250 50 0 empty empty empty 17 7 0 10 -262144 -1
-1;
#X obj 321 -124 route wave_gain wave ganm;
#X obj 370 -96 route float bang;
#X obj 370 -69 change;
#X obj 370 17 sel 1 0;
#X text 526 95 trigger wave at high and low tides;
#X obj 191 301 env~;
#X floatatom 191 335 5 0 0 0 - - -;
#X msg 878 -76 read -resize ../audiofiles/ocean-wave-3.wav polarwavetab
;
#X obj 880 184 table polarwavetab;
#X obj 370 -9 == 0;
#X obj 370 -41 % 1000;
#X floatatom 314 54 5 0 0 0 - - -;
#X connect 0 0 1 0;
#X connect 1 0 2 0;
#X connect 2 0 4 0;
#X connect 2 1 5 0;
#X connect 2 2 6 0;
#X connect 2 3 7 0;
#X connect 2 4 8 0;
#X connect 2 5 9 0;
#X connect 2 6 10 0;
#X connect 2 7 11 0;
#X connect 3 0 26 0;
#X connect 14 0 16 0;
#X connect 15 0 33 0;
#X connect 16 0 18 0;
#X connect 17 0 20 0;
#X connect 18 0 17 0;
#X connect 18 1 19 0;
#X connect 19 0 20 0;
#X connect 23 0 2 1;
#X connect 23 1 2 2;
#X connect 23 2 2 3;
#X connect 23 3 2 4;
#X connect 23 4 2 5;
#X connect 23 5 2 6;
#X connect 23 6 2 7;
#X connect 23 7 2 8;
#X connect 24 0 23 0;
#X connect 25 0 24 0;
#X connect 26 0 0 0;
#X connect 26 1 27 0;
#X connect 26 3 12 0;
#X connect 27 0 28 0;
#X connect 27 1 24 0;
#X connect 28 0 36 0;
#X connect 29 0 24 0;
#X connect 31 0 32 0;
#X connect 33 0 14 0;
#X connect 35 0 29 0;
#X connect 36 0 35 0;
#X connect 36 0 37 0;
#X restore 308 100 pd waves ________;
#N canvas 105 116 1033 598 oil_tines 0;
#X obj 154 154 db2v;
#N canvas 785 709 450 300 8ch_diag 0;
#X floatatom 81 90 5 0 0 2 - - -;
#X obj 81 141 mtx_diag 0 0 0 0 0 0 0 0;
#X msg 81 113 \$1 \$1 \$1 \$1 \$1 \$1 \$1 \$1;
#X obj 81 40 inlet;
#X obj 81 189 outlet;
#X connect 0 0 2 0;
#X connect 1 0 4 0;
#X connect 2 0 1 0;
#X connect 3 0 0 0;
#X restore 153 188 pd 8ch_diag;
#X obj 196 331 iemmatrix/mtx_mul~ 8 8 20 ____________________________________________________________
;
#X obj 299 6 inlet;
#X text 652 326 << speaker array 1-8 (re-route here for bells based
on speaker setup);
#X obj 196 382 outlet~;
#X obj 246 382 outlet~;
#X obj 296 382 outlet~;
#X obj 348 382 outlet~;
#X obj 398 382 outlet~;
#X obj 448 382 outlet~;
#X obj 500 382 outlet~;
#X obj 550 382 outlet~;
#X obj 944 85 outlet;
#X text 912 112 delegation outlet;
#N canvas 204 189 688 557 liberTine 0;
#X obj 267 12 inlet;
#X obj 267 296 outlet~;
#N canvas 405 273 793 561 liberTine 0;
#X msg 157 211 hit 1;
#X msg 202 242 hit 0;
#X obj 199 175 bng 15 250 50 0 empty empty empty 17 7 0 10 -262144
-1 -1;
#X obj 202 211 pipe 2;
#X obj 85 169 bng 15 250 50 0 empty empty empty 17 7 0 10 -262144 -1
-1;
#X text 109 167 hit me;
#X msg 34 238 poke 1;
#X msg 85 237 poke 0;
#X obj 85 205 pipe 10;
#X obj 199 32 inlet;
#X obj 367 455 outlet~;
#X obj 367 416 *~ 20;
#X obj 310 341 liberTine~;
#X obj 199 65 route tine;
#X obj 367 370 *~;
#X obj 421 290 line~;
#X msg 421 249 \$1 20;
#X obj 199 103 route poke hit gain;
#X floatatom 371 265 5 0 0 0 - - -;
#X connect 0 0 12 0;
#X connect 1 0 12 0;
#X connect 2 0 0 0;
#X connect 2 0 3 0;
#X connect 3 0 1 0;
#X connect 4 0 6 0;
#X connect 4 0 8 0;
#X connect 6 0 12 0;
#X connect 7 0 12 0;
#X connect 8 0 7 0;
#X connect 9 0 13 0;
#X connect 11 0 10 0;
#X connect 12 1 14 0;
#X connect 13 0 17 0;
#X connect 14 0 11 0;
#X connect 15 0 14 1;
#X connect 16 0 15 0;
#X connect 17 0 4 0;
#X connect 17 1 2 0;
#X connect 17 2 16 0;
#X connect 17 2 18 0;
#X connect 17 3 12 0;
#X restore 267 231 pd liberTine;
#X obj 294 109 counter 0 1 3;
#X obj 267 190 route 1 2 3;
#X obj 267 155 pp 1;
#N canvas 767 407 1632 585 liberTine 0;
#X msg 157 211 hit 1;
#X msg 202 242 hit 0;
#X obj 199 175 bng 15 250 50 0 empty empty empty 17 7 0 10 -262144
-1 -1;
#X obj 202 211 pipe 2;
#X obj 85 169 bng 15 250 50 0 empty empty empty 17 7 0 10 -262144 -1
-1;
#X text 109 167 hit me;
#X msg 34 238 poke 1;
#X msg 85 237 poke 0;
#X obj 85 205 pipe 10;
#X obj 267 12 inlet;
#X obj 367 455 outlet~;
#X obj 367 416 *~ 20;
#X obj 310 341 liberTine~;
#X obj 267 45 route tine;
#X obj 367 370 *~;
#X obj 421 290 line~;
#X msg 421 249 \$1 20;
#X obj 199 103 route poke hit gain;
#X connect 0 0 12 0;
#X connect 1 0 12 0;
#X connect 2 0 0 0;
#X connect 2 0 3 0;
#X connect 3 0 1 0;
#X connect 4 0 6 0;
#X connect 4 0 8 0;
#X connect 6 0 12 0;
#X connect 7 0 12 0;
#X connect 8 0 7 0;
#X connect 9 0 13 0;
#X connect 11 0 10 0;
#X connect 12 1 14 0;
#X connect 13 0 17 0;
#X connect 14 0 11 0;
#X connect 15 0 14 1;
#X connect 16 0 15 0;
#X connect 17 0 4 0;
#X connect 17 1 2 0;
#X connect 17 2 16 0;
#X connect 17 3 12 0;
#X restore 347 230 pd liberTine;
#N canvas 767 407 1632 585 liberTine 0;
#X msg 157 211 hit 1;
#X msg 202 242 hit 0;
#X obj 199 175 bng 15 250 50 0 empty empty empty 17 7 0 10 -262144
-1 -1;
#X obj 202 211 pipe 2;
#X obj 85 169 bng 15 250 50 0 empty empty empty 17 7 0 10 -262144 -1
-1;
#X text 109 167 hit me;
#X msg 34 238 poke 1;
#X msg 85 237 poke 0;
#X obj 85 205 pipe 10;
#X obj 267 12 inlet;
#X obj 367 455 outlet~;
#X obj 367 416 *~ 20;
#X obj 310 341 liberTine~;
#X obj 267 45 route tine;
#X obj 367 370 *~;
#X obj 421 290 line~;
#X msg 421 249 \$1 20;
#X obj 199 103 route poke hit gain;
#X connect 0 0 12 0;
#X connect 1 0 12 0;
#X connect 2 0 0 0;
#X connect 2 0 3 0;
#X connect 3 0 1 0;
#X connect 4 0 6 0;
#X connect 4 0 8 0;
#X connect 6 0 12 0;
#X connect 7 0 12 0;
#X connect 8 0 7 0;
#X connect 9 0 13 0;
#X connect 11 0 10 0;
#X connect 12 1 14 0;
#X connect 13 0 17 0;
#X connect 14 0 11 0;
#X connect 15 0 14 1;
#X connect 16 0 15 0;
#X connect 17 0 4 0;
#X connect 17 1 2 0;
#X connect 17 2 16 0;
#X connect 17 3 12 0;
#X restore 427 230 pd liberTine;
#X obj 267 78 t a b;
#X obj 476 176 inlet;
#X connect 0 0 8 0;
#X connect 2 0 1 0;
#X connect 3 0 5 1;
#X connect 4 0 2 0;
#X connect 4 1 6 0;
#X connect 4 2 7 0;
#X connect 5 0 4 0;
#X connect 6 0 1 0;
#X connect 7 0 1 0;
#X connect 8 0 5 0;
#X connect 8 1 3 0;
#X connect 9 0 2 0;
#X connect 9 0 6 0;
#X connect 9 0 7 0;
#X restore 257 194 pd liberTine;
#X msg 123 541 amp \$1;
#X msg 173 541 que \$1;
#X msg 229 540 fre \$1;
#X msg 287 541 p \$1;
#X msg 337 541 depth \$1;
#X obj 299 32 route oil_gain rds xom bp snp;
#N canvas 297 78 938 736 rds 0;
#X obj 377 -505 route clicks level;
#X obj 377 -535 inlet;
#X obj 227 -305 f 1;
#X obj 228 48 outlet;
#X obj 181 -428 change;
#X obj 181 -464 route float bang;
#X msg 147 -512 bang;
#N canvas 352 158 778 614 phrase-player 0;
#X obj 236 209 list split 2;
#X obj 272 147 t b l;
#X obj 236 179 list append;
#X obj 236 332 del 100;
#X obj 236 252 unpack;
#X msg 351 54 0 111 500 222 500 444;
#X obj 263 399 f;
#X obj 236 369 t b b;
#N canvas 686 359 450 300 thru 0;
#X obj 203 64 inlet;
#X obj 203 90 outlet;
#X connect 0 0 1 0;
#X restore 169 268 pd thru;
#X obj 272 103 inlet;
#X obj 263 505 outlet;
#X obj 263 460 pp tine;
#X obj 236 291 * 1000;
#X msg 263 431 users \$1 \, depth 0 \, gain 1 \, poke bang;
#X connect 0 0 4 0;
#X connect 0 1 2 1;
#X connect 1 0 2 0;
#X connect 1 1 2 1;
#X connect 2 0 0 0;
#X connect 3 0 7 0;
#X connect 4 0 12 0;
#X connect 4 1 6 1;
#X connect 5 0 1 0;
#X connect 6 0 13 0;
#X connect 7 0 8 0;
#X connect 7 1 6 0;
#X connect 8 0 2 0;
#X connect 9 0 1 0;
#X connect 11 0 10 0;
#X connect 12 0 3 0;
#X connect 13 0 11 0;
#X restore 225 -124 pd phrase-player;
#X obj 225 -163 coll;
#C restore;
#X msg 293 -217 read ../data/libertine.txt;
#X obj 294 -242 loadbang;
#X obj 181 -395 t b;
#X connect 0 0 5 0;
#X connect 0 1 2 1;
#X connect 1 0 0 0;
#X connect 2 0 8 0;
#X connect 4 0 11 0;
#X connect 5 0 4 0;
#X connect 5 1 2 0;
#X connect 6 0 5 0;
#X connect 7 0 3 0;
#X connect 8 0 7 0;
#X connect 9 0 8 0;
#X connect 10 0 9 0;
#X connect 11 0 2 0;
#X restore 257 128 pd rds mapping;
#N canvas 765 362 1433 977 UI+defaults 0;
#X msg 148 4 users \$1;
#X obj 151 -42 hsl 128 15 0.001 1 0 0 empty empty empty -2 -8 0 10
-262144 -1 -1 2917 1;
#X text 219 3 0.0001 - 1;
#X obj 356 -88 vsl 15 128 5 200 0 0 empty empty empty 0 -9 0 10 -262144
-1 -1 11500 1;
#X msg 356 53 amp \$1;
#X obj 430 -83 vsl 15 128 0.9999 1 0 0 empty empty empty 0 -9 0 10
-262144 -1 -1 10414 1;
#X msg 430 56 que \$1;
#X obj 520 -88 vsl 15 128 0 10 0 0 empty empty empty 0 -9 0 10 -262144
-1 -1 254 1;
#X msg 522 59 fre \$1;
#X text 365 82 5 - 200;
#X text 440 83 0.9999 - 1;
#X text 544 87 0 - 10;
#X obj 1007 189 loadbang;
#X msg 892 226 que 0.999982;
#X obj 892 192 pp set;
#X msg 815 223 amp 181.575;
#X obj 814 188 pp set;
#N canvas 1381 385 450 300 thru 0;
#X obj 96 64 inlet;
#X obj 94 98 outlet;
#X connect 0 0 1 0;
#X restore 1113 -262 pd thru;
#N canvas 1381 385 450 300 thru 0;
#X obj 96 64 inlet;
#X obj 94 98 outlet;
#X connect 0 0 1 0;
#X restore 1130 343 pd thru;
#X floatatom 76 4 5 0 0 0 - - -;
#X text 32 25 current value;
#X obj 556 -295 inlet;
#X obj 180 494 outlet;
#X text 686 149 defaults;
#X msg 567 543 que 0.999982;
#X msg 486 544 amp 107.874;
#X text 561 511 backup defaults;
#X msg 133 551 amp \$1;
#X msg 183 551 que \$1;
#X msg 239 550 fre \$1;
#X msg 602 59 p \$1;
#X msg 666 59 depth \$1;
#X obj 557 -198 route users amp que fre p depth;
#X obj 667 -87 vsl 15 128 0 10 0 0 empty empty empty 0 -9 0 10 -262144
-1 -1 0 1;
#X obj 704 290 pp tine;
#X obj 607 -86 vsl 15 128 0 10 0 0 empty empty empty 0 -9 0 10 -262144
-1 -1 0 1;
#X obj 557 -242 route tine bar;
#X msg 181 264 tine poke bang;
#X obj 813 310 pp tine;
#X msg 995 233 fre 0.2;
#X floatatom 771 125 5 0 0 0 - - -;
#X obj 821 400 outlet;
#X connect 0 0 34 0;
#X connect 1 0 0 0;
#X connect 1 0 19 0;
#X connect 3 0 4 0;
#X connect 4 0 16 0;
#X connect 4 0 34 0;
#X connect 5 0 6 0;
#X connect 6 0 14 0;
#X connect 6 0 34 0;
#X connect 7 0 8 0;
#X connect 8 0 34 0;
#X connect 12 0 39 0;
#X connect 12 0 13 0;
#X connect 12 0 15 0;
#X connect 13 0 38 0;
#X connect 14 0 13 0;
#X connect 15 0 38 0;
#X connect 16 0 15 0;
#X connect 17 0 36 0;
#X connect 18 0 17 0;
#X connect 21 0 36 0;
#X connect 30 0 34 0;
#X connect 31 0 34 0;
#X connect 32 0 1 0;
#X connect 32 1 3 0;
#X connect 32 2 5 0;
#X connect 32 3 7 0;
#X connect 32 4 35 0;
#X connect 32 5 33 0;
#X connect 32 6 34 0;
#X connect 33 0 31 0;
#X connect 33 0 40 0;
#X connect 34 0 22 0;
#X connect 35 0 30 0;
#X connect 36 0 32 0;
#X connect 37 0 22 0;
#X connect 38 0 18 0;
#X connect 38 0 41 0;
#X connect 39 0 38 0;
#X restore 257 159 pd UI+defaults;
#N canvas 783 414 1632 585 liberTine 0;
#X obj 267 12 inlet;
#X obj 267 296 outlet~;
#N canvas 769 325 510 491 liberTine 0;
#X msg 157 211 hit 1;
#X msg 202 242 hit 0;
#X obj 199 175 bng 15 250 50 0 empty empty empty 17 7 0 10 -262144
-1 -1;
#X obj 202 211 pipe 2;
#X obj 85 169 bng 15 250 50 0 empty empty empty 17 7 0 10 -262144 -1
-1;
#X text 109 167 hit me;
#X msg 34 238 poke 1;
#X msg 85 237 poke 0;
#X obj 85 205 pipe 10;
#X obj 199 32 inlet;
#X obj 367 455 outlet~;
#X obj 367 416 *~ 20;
#X obj 310 341 liberTine~;
#X obj 199 65 route tine;
#X obj 367 370 *~;
#X obj 421 290 line~;
#X msg 421 249 \$1 20;
#X obj 199 103 route poke hit gain;
#X connect 0 0 12 0;
#X connect 1 0 12 0;
#X connect 2 0 0 0;
#X connect 2 0 3 0;
#X connect 3 0 1 0;
#X connect 4 0 6 0;
#X connect 4 0 8 0;
#X connect 6 0 12 0;
#X connect 7 0 12 0;
#X connect 8 0 7 0;
#X connect 9 0 13 0;
#X connect 11 0 10 0;
#X connect 12 1 14 0;
#X connect 13 0 17 0;
#X connect 14 0 11 0;
#X connect 15 0 14 1;
#X connect 16 0 15 0;
#X connect 17 0 4 0;
#X connect 17 1 2 0;
#X connect 17 2 16 0;
#X connect 17 3 12 0;
#X restore 267 231 pd liberTine;
#X obj 294 109 counter 0 1 3;
#X obj 267 190 route 1 2 3;
#X obj 267 155 pp 1;
#N canvas 767 407 1632 585 liberTine 0;
#X msg 157 211 hit 1;
#X msg 202 242 hit 0;
#X obj 199 175 bng 15 250 50 0 empty empty empty 17 7 0 10 -262144
-1 -1;
#X obj 202 211 pipe 2;
#X obj 85 169 bng 15 250 50 0 empty empty empty 17 7 0 10 -262144 -1
-1;
#X text 109 167 hit me;
#X msg 34 238 poke 1;
#X msg 85 237 poke 0;
#X obj 85 205 pipe 10;
#X obj 267 12 inlet;
#X obj 367 455 outlet~;
#X obj 367 416 *~ 20;
#X obj 310 341 liberTine~;
#X obj 267 45 route tine;
#X obj 367 370 *~;
#X obj 421 290 line~;
#X msg 421 249 \$1 20;
#X obj 199 103 route poke hit gain;
#X connect 0 0 12 0;
#X connect 1 0 12 0;
#X connect 2 0 0 0;
#X connect 2 0 3 0;
#X connect 3 0 1 0;
#X connect 4 0 6 0;
#X connect 4 0 8 0;
#X connect 6 0 12 0;
#X connect 7 0 12 0;
#X connect 8 0 7 0;
#X connect 9 0 13 0;
#X connect 11 0 10 0;
#X connect 12 1 14 0;
#X connect 13 0 17 0;
#X connect 14 0 11 0;
#X connect 15 0 14 1;
#X connect 16 0 15 0;
#X connect 17 0 4 0;
#X connect 17 1 2 0;
#X connect 17 2 16 0;
#X connect 17 3 12 0;
#X restore 347 230 pd liberTine;
#N canvas 767 407 1632 585 liberTine 0;
#X msg 157 211 hit 1;
#X msg 202 242 hit 0;
#X obj 199 175 bng 15 250 50 0 empty empty empty 17 7 0 10 -262144
-1 -1;
#X obj 202 211 pipe 2;
#X obj 85 169 bng 15 250 50 0 empty empty empty 17 7 0 10 -262144 -1
-1;
#X text 109 167 hit me;
#X msg 34 238 poke 1;
#X msg 85 237 poke 0;
#X obj 85 205 pipe 10;
#X obj 267 12 inlet;
#X obj 367 455 outlet~;
#X obj 367 416 *~ 20;
#X obj 310 341 liberTine~;
#X obj 267 45 route tine;
#X obj 367 370 *~;
#X obj 421 290 line~;
#X msg 421 249 \$1 20;
#X obj 199 103 route poke hit gain;
#X connect 0 0 12 0;
#X connect 1 0 12 0;
#X connect 2 0 0 0;
#X connect 2 0 3 0;
#X connect 3 0 1 0;
#X connect 4 0 6 0;
#X connect 4 0 8 0;
#X connect 6 0 12 0;
#X connect 7 0 12 0;
#X connect 8 0 7 0;
#X connect 9 0 13 0;
#X connect 11 0 10 0;
#X connect 12 1 14 0;
#X connect 13 0 17 0;
#X connect 14 0 11 0;
#X connect 15 0 14 1;
#X connect 16 0 15 0;
#X connect 17 0 4 0;
#X connect 17 1 2 0;
#X connect 17 2 16 0;
#X connect 17 3 12 0;
#X restore 427 230 pd liberTine;
#X obj 267 78 t a b;
#X obj 476 176 inlet;
#X connect 0 0 8 0;
#X connect 2 0 1 0;
#X connect 3 0 5 1;
#X connect 4 0 2 0;
#X connect 4 1 6 0;
#X connect 4 2 7 0;
#X connect 5 0 4 0;
#X connect 6 0 1 0;
#X connect 7 0 1 0;
#X connect 8 0 5 0;
#X connect 8 1 3 0;
#X connect 9 0 2 0;
#X connect 9 0 6 0;
#X connect 9 0 7 0;
#X restore 357 194 pd liberTine;
#N canvas 276 123 1433 977 UI+defaults 0;
#X msg 148 4 users \$1;
#X obj 151 -42 hsl 128 15 0.001 1 0 0 empty empty empty -2 -8 0 10
-262144 -1 -1 4630 1;
#X text 219 3 0.0001 - 1;
#X obj 356 -88 vsl 15 128 5 200 0 0 empty empty empty 0 -9 0 10 -262144
-1 -1 11500 1;
#X msg 356 53 amp \$1;
#X obj 430 -83 vsl 15 128 0.9999 1 0 0 empty empty empty 0 -9 0 10
-262144 -1 -1 5464 1;
#X msg 430 56 que \$1;
#X obj 520 -88 vsl 15 128 0 10 0 0 empty empty empty 0 -9 0 10 -262144
-1 -1 254 1;
#X msg 522 59 fre \$1;
#X text 365 82 5 - 200;
#X text 440 83 0.9999 - 1;
#X text 544 87 0 - 10;
#X obj 1007 189 loadbang;
#X msg 892 226 que 0.999943;
#X obj 892 192 pp set;
#X msg 815 223 amp 181.575;
#X obj 814 188 pp set;
#N canvas 1381 385 450 300 thru 0;
#X obj 96 64 inlet;
#X obj 94 98 outlet;
#X connect 0 0 1 0;
#X restore 1113 -262 pd thru;
#N canvas 1381 385 450 300 thru 0;
#X obj 96 64 inlet;
#X obj 94 98 outlet;
#X connect 0 0 1 0;
#X restore 1130 343 pd thru;
#X floatatom 76 4 5 0 0 0 - - -;
#X text 32 25 current value;
#X obj 556 -295 inlet;
#X obj 180 494 outlet;
#X text 686 149 defaults;
#X msg 567 543 que 0.999982;
#X msg 486 544 amp 107.874;
#X text 561 511 backup defaults;
#X msg 133 551 amp \$1;
#X msg 183 551 que \$1;
#X msg 239 550 fre \$1;
#X msg 602 59 p \$1;
#X msg 666 59 depth \$1;
#X obj 557 -198 route users amp que fre p depth;
#X obj 667 -87 vsl 15 128 0 10 0 0 empty empty empty 0 -9 0 10 -262144
-1 -1 0 1;
#X obj 704 290 pp tine;
#X obj 607 -86 vsl 15 128 0 10 0 0 empty empty empty 0 -9 0 10 -262144
-1 -1 0 1;
#X obj 557 -242 route tine bar;
#X msg 181 264 tine poke bang;
#X obj 813 310 pp tine;
#X msg 995 233 fre 0.2;
#X floatatom 771 125 5 0 0 0 - - -;
#X obj 821 400 outlet;
#X msg 1000 276 gain 1;
#X connect 0 0 34 0;
#X connect 1 0 0 0;
#X connect 1 0 19 0;
#X connect 3 0 4 0;
#X connect 4 0 16 0;
#X connect 4 0 34 0;
#X connect 5 0 6 0;
#X connect 6 0 14 0;
#X connect 6 0 34 0;
#X connect 7 0 8 0;
#X connect 8 0 34 0;
#X connect 12 0 39 0;
#X connect 12 0 13 0;
#X connect 12 0 15 0;
#X connect 12 0 42 0;
#X connect 13 0 38 0;
#X connect 14 0 13 0;
#X connect 15 0 38 0;
#X connect 16 0 15 0;
#X connect 17 0 36 0;
#X connect 18 0 17 0;
#X connect 21 0 36 0;
#X connect 30 0 34 0;
#X connect 31 0 34 0;
#X connect 32 0 1 0;
#X connect 32 1 3 0;
#X connect 32 2 5 0;
#X connect 32 3 7 0;
#X connect 32 4 35 0;
#X connect 32 5 33 0;
#X connect 32 6 34 0;
#X connect 33 0 31 0;
#X connect 33 0 40 0;
#X connect 34 0 22 0;
#X connect 35 0 30 0;
#X connect 36 0 32 0;
#X connect 37 0 22 0;
#X connect 38 0 18 0;
#X connect 38 0 41 0;
#X connect 39 0 38 0;
#X connect 42 0 38 0;
#X restore 357 159 pd UI+defaults;
#N canvas 783 414 1632 585 liberTine 0;
#X obj 267 12 inlet;
#X obj 267 296 outlet~;
#N canvas 313 736 1632 585 liberTine 0;
#X msg 157 211 hit 1;
#X msg 202 242 hit 0;
#X obj 199 175 bng 15 250 50 0 empty empty empty 17 7 0 10 -262144
-1 -1;
#X obj 202 211 pipe 2;
#X obj 85 169 bng 15 250 50 0 empty empty empty 17 7 0 10 -262144 -1
-1;
#X text 109 167 hit me;
#X msg 34 238 poke 1;
#X msg 85 237 poke 0;
#X obj 85 205 pipe 10;
#X obj 199 32 inlet;
#X obj 367 455 outlet~;
#X obj 367 416 *~ 20;
#X obj 310 341 liberTine~;
#X obj 199 65 route tine;
#X obj 367 370 *~;
#X obj 421 290 line~;
#X msg 421 249 \$1 20;
#X obj 199 103 route poke hit gain;
#X connect 0 0 12 0;
#X connect 1 0 12 0;
#X connect 2 0 0 0;
#X connect 2 0 3 0;
#X connect 3 0 1 0;
#X connect 4 0 6 0;
#X connect 4 0 8 0;
#X connect 6 0 12 0;
#X connect 7 0 12 0;
#X connect 8 0 7 0;
#X connect 9 0 13 0;
#X connect 11 0 10 0;
#X connect 12 1 14 0;
#X connect 13 0 17 0;
#X connect 14 0 11 0;
#X connect 15 0 14 1;
#X connect 16 0 15 0;
#X connect 17 0 4 0;
#X connect 17 1 2 0;
#X connect 17 2 16 0;
#X connect 17 3 12 0;
#X restore 267 231 pd liberTine;
#X obj 294 109 counter 0 1 3;
#X obj 267 190 route 1 2 3;
#X obj 267 155 pp 1;
#N canvas 767 407 1632 585 liberTine 0;
#X msg 157 211 hit 1;
#X msg 202 242 hit 0;
#X obj 199 175 bng 15 250 50 0 empty empty empty 17 7 0 10 -262144
-1 -1;
#X obj 202 211 pipe 2;
#X obj 85 169 bng 15 250 50 0 empty empty empty 17 7 0 10 -262144 -1
-1;
#X text 109 167 hit me;
#X msg 34 238 poke 1;
#X msg 85 237 poke 0;
#X obj 85 205 pipe 10;
#X obj 267 12 inlet;
#X obj 367 455 outlet~;
#X obj 367 416 *~ 20;
#X obj 310 341 liberTine~;
#X obj 267 45 route tine;
#X obj 367 370 *~;
#X obj 421 290 line~;
#X msg 421 249 \$1 20;
#X obj 199 103 route poke hit gain;
#X connect 0 0 12 0;
#X connect 1 0 12 0;
#X connect 2 0 0 0;
#X connect 2 0 3 0;
#X connect 3 0 1 0;
#X connect 4 0 6 0;
#X connect 4 0 8 0;
#X connect 6 0 12 0;
#X connect 7 0 12 0;
#X connect 8 0 7 0;
#X connect 9 0 13 0;
#X connect 11 0 10 0;
#X connect 12 1 14 0;
#X connect 13 0 17 0;
#X connect 14 0 11 0;
#X connect 15 0 14 1;
#X connect 16 0 15 0;
#X connect 17 0 4 0;
#X connect 17 1 2 0;
#X connect 17 2 16 0;
#X connect 17 3 12 0;
#X restore 347 230 pd liberTine;
#N canvas 767 407 1632 585 liberTine 0;
#X msg 157 211 hit 1;
#X msg 202 242 hit 0;
#X obj 199 175 bng 15 250 50 0 empty empty empty 17 7 0 10 -262144
-1 -1;
#X obj 202 211 pipe 2;
#X obj 85 169 bng 15 250 50 0 empty empty empty 17 7 0 10 -262144 -1
-1;
#X text 109 167 hit me;
#X msg 34 238 poke 1;
#X msg 85 237 poke 0;
#X obj 85 205 pipe 10;
#X obj 267 12 inlet;
#X obj 367 455 outlet~;
#X obj 367 416 *~ 20;
#X obj 310 341 liberTine~;
#X obj 267 45 route tine;
#X obj 367 370 *~;
#X obj 421 290 line~;
#X msg 421 249 \$1 20;
#X obj 199 103 route poke hit gain;
#X connect 0 0 12 0;
#X connect 1 0 12 0;
#X connect 2 0 0 0;
#X connect 2 0 3 0;
#X connect 3 0 1 0;
#X connect 4 0 6 0;
#X connect 4 0 8 0;
#X connect 6 0 12 0;
#X connect 7 0 12 0;
#X connect 8 0 7 0;
#X connect 9 0 13 0;
#X connect 11 0 10 0;
#X connect 12 1 14 0;
#X connect 13 0 17 0;
#X connect 14 0 11 0;
#X connect 15 0 14 1;
#X connect 16 0 15 0;
#X connect 17 0 4 0;
#X connect 17 1 2 0;
#X connect 17 2 16 0;
#X connect 17 3 12 0;
#X restore 427 230 pd liberTine;
#X obj 267 78 t a b;
#X obj 476 176 inlet;
#X connect 0 0 8 0;
#X connect 2 0 1 0;
#X connect 3 0 5 1;
#X connect 4 0 2 0;
#X connect 4 1 6 0;
#X connect 4 2 7 0;
#X connect 5 0 4 0;
#X connect 6 0 1 0;
#X connect 7 0 1 0;
#X connect 8 0 5 0;
#X connect 8 1 3 0;
#X connect 9 0 2 0;
#X connect 9 0 6 0;
#X connect 9 0 7 0;
#X restore 457 194 pd liberTine;
#N canvas 765 362 1433 977 UI+defaults 0;
#X msg 148 4 users \$1;
#X obj 151 -42 hsl 128 15 0.001 1 0 0 empty empty empty -2 -8 0 10
-262144 -1 -1 3612 1;
#X text 219 3 0.0001 - 1;
#X obj 356 -88 vsl 15 128 5 200 0 0 empty empty empty 0 -9 0 10 -262144
-1 -1 11500 1;
#X msg 356 53 amp \$1;
#X obj 430 -83 vsl 15 128 0.9999 1 0 0 empty empty empty 0 -9 0 10
-262144 -1 -1 10414 1;
#X msg 430 56 que \$1;
#X obj 520 -88 vsl 15 128 0 10 0 0 empty empty empty 0 -9 0 10 -262144
-1 -1 254 1;
#X msg 522 59 fre \$1;
#X text 365 82 5 - 200;
#X text 440 83 0.9999 - 1;
#X text 544 87 0 - 10;
#X obj 1007 189 loadbang;
#X msg 892 226 que 0.999982;
#X obj 892 192 pp set;
#X msg 815 223 amp 181.575;
#X obj 814 188 pp set;
#N canvas 1381 385 450 300 thru 0;
#X obj 96 64 inlet;
#X obj 94 98 outlet;
#X connect 0 0 1 0;
#X restore 1113 -262 pd thru;
#N canvas 1381 385 450 300 thru 0;
#X obj 96 64 inlet;
#X obj 94 98 outlet;
#X connect 0 0 1 0;
#X restore 1130 343 pd thru;
#X floatatom 76 4 5 0 0 0 - - -;
#X text 32 25 current value;
#X obj 556 -295 inlet;
#X obj 180 494 outlet;
#X text 686 149 defaults;
#X msg 567 543 que 0.999982;
#X msg 486 544 amp 107.874;
#X text 561 511 backup defaults;
#X msg 133 551 amp \$1;
#X msg 183 551 que \$1;
#X msg 239 550 fre \$1;
#X msg 602 59 p \$1;
#X msg 666 59 depth \$1;
#X obj 557 -198 route users amp que fre p depth;
#X obj 667 -87 vsl 15 128 0 10 0 0 empty empty empty 0 -9 0 10 -262144
-1 -1 0 1;
#X obj 704 290 pp tine;
#X obj 607 -86 vsl 15 128 0 10 0 0 empty empty empty 0 -9 0 10 -262144
-1 -1 0 1;
#X obj 557 -242 route tine bar;
#X msg 181 264 tine poke bang;
#X obj 813 310 pp tine;
#X msg 995 233 fre 0.2;
#X floatatom 771 125 5 0 0 0 - - -;
#X obj 821 400 outlet;
#X connect 0 0 34 0;
#X connect 1 0 0 0;
#X connect 1 0 19 0;
#X connect 3 0 4 0;
#X connect 4 0 16 0;
#X connect 4 0 34 0;
#X connect 5 0 6 0;
#X connect 6 0 14 0;
#X connect 6 0 34 0;
#X connect 7 0 8 0;
#X connect 8 0 34 0;
#X connect 12 0 39 0;
#X connect 12 0 13 0;
#X connect 12 0 15 0;
#X connect 13 0 38 0;
#X connect 14 0 13 0;
#X connect 15 0 38 0;
#X connect 16 0 15 0;
#X connect 17 0 36 0;
#X connect 18 0 17 0;
#X connect 21 0 36 0;
#X connect 30 0 34 0;
#X connect 31 0 34 0;
#X connect 32 0 1 0;
#X connect 32 1 3 0;
#X connect 32 2 5 0;
#X connect 32 3 7 0;
#X connect 32 4 35 0;
#X connect 32 5 33 0;
#X connect 32 6 34 0;
#X connect 33 0 31 0;
#X connect 33 0 40 0;
#X connect 34 0 22 0;
#X connect 35 0 30 0;
#X connect 36 0 32 0;
#X connect 37 0 22 0;
#X connect 38 0 18 0;
#X connect 38 0 41 0;
#X connect 39 0 38 0;
#X restore 457 159 pd UI+defaults;
#N canvas 783 414 1632 585 liberTine 0;
#X obj 267 12 inlet;
#X obj 267 296 outlet~;
#N canvas 313 736 1632 585 liberTine 0;
#X msg 157 211 hit 1;
#X msg 202 242 hit 0;
#X obj 199 175 bng 15 250 50 0 empty empty empty 17 7 0 10 -262144
-1 -1;
#X obj 202 211 pipe 2;
#X obj 85 169 bng 15 250 50 0 empty empty empty 17 7 0 10 -262144 -1
-1;
#X text 109 167 hit me;
#X msg 34 238 poke 1;
#X msg 85 237 poke 0;
#X obj 85 205 pipe 10;
#X obj 199 32 inlet;
#X obj 367 455 outlet~;
#X obj 367 416 *~ 20;
#X obj 310 341 liberTine~;
#X obj 199 65 route tine;
#X obj 367 370 *~;
#X obj 421 290 line~;
#X msg 421 249 \$1 20;
#X obj 199 103 route poke hit gain;
#X connect 0 0 12 0;
#X connect 1 0 12 0;
#X connect 2 0 0 0;
#X connect 2 0 3 0;
#X connect 3 0 1 0;
#X connect 4 0 6 0;
#X connect 4 0 8 0;
#X connect 6 0 12 0;
#X connect 7 0 12 0;
#X connect 8 0 7 0;
#X connect 9 0 13 0;
#X connect 11 0 10 0;
#X connect 12 1 14 0;
#X connect 13 0 17 0;
#X connect 14 0 11 0;
#X connect 15 0 14 1;
#X connect 16 0 15 0;
#X connect 17 0 4 0;
#X connect 17 1 2 0;
#X connect 17 2 16 0;
#X connect 17 3 12 0;
#X restore 267 231 pd liberTine;
#X obj 294 109 counter 0 1 3;
#X obj 267 190 route 1 2 3;
#X obj 267 155 pp 1;
#N canvas 767 407 1632 585 liberTine 0;
#X msg 157 211 hit 1;
#X msg 202 242 hit 0;
#X obj 199 175 bng 15 250 50 0 empty empty empty 17 7 0 10 -262144
-1 -1;
#X obj 202 211 pipe 2;
#X obj 85 169 bng 15 250 50 0 empty empty empty 17 7 0 10 -262144 -1
-1;
#X text 109 167 hit me;
#X msg 34 238 poke 1;
#X msg 85 237 poke 0;
#X obj 85 205 pipe 10;
#X obj 267 12 inlet;
#X obj 367 455 outlet~;
#X obj 367 416 *~ 20;
#X obj 310 341 liberTine~;
#X obj 267 45 route tine;
#X obj 367 370 *~;
#X obj 421 290 line~;
#X msg 421 249 \$1 20;
#X obj 199 103 route poke hit gain;
#X connect 0 0 12 0;
#X connect 1 0 12 0;
#X connect 2 0 0 0;
#X connect 2 0 3 0;
#X connect 3 0 1 0;
#X connect 4 0 6 0;
#X connect 4 0 8 0;
#X connect 6 0 12 0;
#X connect 7 0 12 0;
#X connect 8 0 7 0;
#X connect 9 0 13 0;
#X connect 11 0 10 0;
#X connect 12 1 14 0;
#X connect 13 0 17 0;
#X connect 14 0 11 0;
#X connect 15 0 14 1;
#X connect 16 0 15 0;
#X connect 17 0 4 0;
#X connect 17 1 2 0;
#X connect 17 2 16 0;
#X connect 17 3 12 0;
#X restore 347 230 pd liberTine;
#N canvas 767 407 1632 585 liberTine 0;
#X msg 157 211 hit 1;
#X msg 202 242 hit 0;
#X obj 199 175 bng 15 250 50 0 empty empty empty 17 7 0 10 -262144
-1 -1;
#X obj 202 211 pipe 2;
#X obj 85 169 bng 15 250 50 0 empty empty empty 17 7 0 10 -262144 -1
-1;
#X text 109 167 hit me;
#X msg 34 238 poke 1;
#X msg 85 237 poke 0;
#X obj 85 205 pipe 10;
#X obj 267 12 inlet;
#X obj 367 455 outlet~;
#X obj 367 416 *~ 20;
#X obj 310 341 liberTine~;
#X obj 267 45 route tine;
#X obj 367 370 *~;
#X obj 421 290 line~;
#X msg 421 249 \$1 20;
#X obj 199 103 route poke hit gain;
#X connect 0 0 12 0;
#X connect 1 0 12 0;
#X connect 2 0 0 0;
#X connect 2 0 3 0;
#X connect 3 0 1 0;
#X connect 4 0 6 0;
#X connect 4 0 8 0;
#X connect 6 0 12 0;
#X connect 7 0 12 0;
#X connect 8 0 7 0;
#X connect 9 0 13 0;
#X connect 11 0 10 0;
#X connect 12 1 14 0;
#X connect 13 0 17 0;
#X connect 14 0 11 0;
#X connect 15 0 14 1;
#X connect 16 0 15 0;
#X connect 17 0 4 0;
#X connect 17 1 2 0;
#X connect 17 2 16 0;
#X connect 17 3 12 0;
#X restore 427 230 pd liberTine;
#X obj 267 78 t a b;
#X obj 476 176 inlet;
#X connect 0 0 8 0;
#X connect 2 0 1 0;
#X connect 3 0 5 1;
#X connect 4 0 2 0;
#X connect 4 1 6 0;
#X connect 4 2 7 0;
#X connect 5 0 4 0;
#X connect 6 0 1 0;
#X connect 7 0 1 0;
#X connect 8 0 5 0;
#X connect 8 1 3 0;
#X connect 9 0 2 0;
#X connect 9 0 6 0;
#X connect 9 0 7 0;
#X restore 557 194 pd liberTine;
#N canvas 765 362 1433 977 UI+defaults 0;
#X msg 148 4 users \$1;
#X obj 151 -42 hsl 128 15 0.001 1 0 0 empty empty empty -2 -8 0 10
-262144 -1 -1 7362 1;
#X text 219 3 0.0001 - 1;
#X obj 356 -88 vsl 15 128 5 200 0 0 empty empty empty 0 -9 0 10 -262144
-1 -1 11500 1;
#X msg 356 53 amp \$1;
#X obj 430 -83 vsl 15 128 0.9999 1 0 0 empty empty empty 0 -9 0 10
-262144 -1 -1 10414 1;
#X msg 430 56 que \$1;
#X obj 520 -88 vsl 15 128 0 10 0 0 empty empty empty 0 -9 0 10 -262144
-1 -1 254 1;
#X msg 522 59 fre \$1;
#X text 365 82 5 - 200;
#X text 440 83 0.9999 - 1;
#X text 544 87 0 - 10;
#X obj 1007 189 loadbang;
#X msg 892 226 que 0.999982;
#X obj 892 192 pp set;
#X msg 815 223 amp 181.575;
#X obj 814 188 pp set;
#N canvas 1381 385 450 300 thru 0;
#X obj 96 64 inlet;
#X obj 94 98 outlet;
#X connect 0 0 1 0;
#X restore 1113 -262 pd thru;
#N canvas 1381 385 450 300 thru 0;
#X obj 96 64 inlet;
#X obj 94 98 outlet;
#X connect 0 0 1 0;
#X restore 1130 343 pd thru;
#X floatatom 76 4 5 0 0 0 - - -;
#X text 32 25 current value;
#X obj 556 -295 inlet;
#X obj 180 494 outlet;
#X text 686 149 defaults;
#X msg 567 543 que 0.999982;
#X msg 486 544 amp 107.874;
#X text 561 511 backup defaults;
#X msg 133 551 amp \$1;
#X msg 183 551 que \$1;
#X msg 239 550 fre \$1;
#X msg 602 59 p \$1;
#X msg 666 59 depth \$1;
#X obj 557 -198 route users amp que fre p depth;
#X obj 667 -87 vsl 15 128 0 10 0 0 empty empty empty 0 -9 0 10 -262144
-1 -1 0 1;
#X obj 704 290 pp tine;
#X obj 607 -86 vsl 15 128 0 10 0 0 empty empty empty 0 -9 0 10 -262144
-1 -1 0 1;
#X obj 557 -242 route tine bar;
#X msg 181 264 tine poke bang;
#X obj 813 310 pp tine;
#X msg 995 233 fre 0.2;
#X floatatom 771 125 5 0 0 0 - - -;
#X obj 821 400 outlet;
#X connect 0 0 34 0;
#X connect 1 0 0 0;
#X connect 1 0 19 0;
#X connect 3 0 4 0;
#X connect 4 0 16 0;
#X connect 4 0 34 0;
#X connect 5 0 6 0;
#X connect 6 0 14 0;
#X connect 6 0 34 0;
#X connect 7 0 8 0;
#X connect 8 0 34 0;
#X connect 12 0 39 0;
#X connect 12 0 13 0;
#X connect 12 0 15 0;
#X connect 13 0 38 0;
#X connect 14 0 13 0;
#X connect 15 0 38 0;
#X connect 16 0 15 0;
#X connect 17 0 36 0;
#X connect 18 0 17 0;
#X connect 21 0 36 0;
#X connect 30 0 34 0;
#X connect 31 0 34 0;
#X connect 32 0 1 0;
#X connect 32 1 3 0;
#X connect 32 2 5 0;
#X connect 32 3 7 0;
#X connect 32 4 35 0;
#X connect 32 5 33 0;
#X connect 32 6 34 0;
#X connect 33 0 31 0;
#X connect 33 0 40 0;
#X connect 34 0 22 0;
#X connect 35 0 30 0;
#X connect 36 0 32 0;
#X connect 37 0 22 0;
#X connect 38 0 18 0;
#X connect 38 0 41 0;
#X connect 39 0 38 0;
#X restore 557 159 pd UI+defaults;
#N canvas 192 53 1011 860 xom 0;
#X obj 377 -505 route clicks level;
#X obj 377 -535 inlet;
#X obj 229 -323 f 1;
#X obj 199 -350 bng 15 250 50 0 empty empty empty 17 7 0 10 -262144
-1 -1;
#X obj 230 -87 outlet;
#X obj 181 -428 change;
#X obj 181 -464 route float bang;
#N canvas 975 316 450 300 randist 0;
#X obj 417 232 outlet;
#X obj 820 78 prob;
#C restore;
#X msg 852 -151 \; probtab resize 10;
#X obj 851 -122 table probtab;
#X obj 537 -48 tabread probtab;
#X obj 476 -109 uzi 10;
#X obj 509 -75 t f f;
#X obj 588 -112 bng 15 250 50 0 empty empty empty 17 7 0 10 -262144
-1 -1;
#X obj 819 -13 t b b;
#X msg 832 20 0;
#X obj 826 -49 bng 15 250 50 0 empty empty empty 17 7 0 10 -262144
-1 -1;
#X floatatom 832 146 5 0 0 0 - - -;
#X msg 897 29 0 \$1 \$2;
#X obj 478 72 pack 0 0 0;
#X obj 538 -15 expr (($f1 + 1) / 2) * 100;
#X obj 537 23 int;
#X obj 479 168 zl group 30;
#X obj 479 205 pp set;
#X msg 481 353 0 1 28 0 2 20 0 3 34 0 4 73 0 5 54 0 6 77 0 7 75 0 8
65 0 9 50 0 10 50;
#X obj 481 405 zl iter 3;
#X obj 502 300 loadbang;
#X obj 816 190 expr 20 + (($f1 / 10) * 1000);
#X floatatom 820 239 5 0 0 0 - - -;
#X connect 1 0 11 0;
#X connect 1 0 21 0;
#X connect 4 0 14 0;
#X connect 5 0 13 0;
#X connect 5 2 6 0;
#X connect 6 0 13 1;
#X connect 6 1 4 0;
#X connect 7 0 5 0;
#X connect 8 0 1 0;
#X connect 8 1 9 0;
#X connect 9 0 1 0;
#X connect 10 0 8 0;
#X connect 12 0 1 0;
#X connect 13 0 1 0;
#X connect 13 0 16 0;
#X connect 14 0 15 0;
#X connect 15 0 13 2;
#X connect 16 0 17 0;
#X connect 17 0 18 0;
#X connect 18 0 19 0;
#X connect 19 0 1 0;
#X connect 20 0 18 0;
#X connect 21 0 22 0;
#X restore 180 309 pd randist;
#X msg 147 -512 bang;
#N canvas 352 158 778 614 phrase-player 0;
#X obj 236 209 list split 2;
#X obj 272 147 t b l;
#X obj 236 179 list append;
#X obj 236 332 del 100;
#X obj 236 252 unpack;
#X msg 351 54 0 111 500 222 500 444;
#X obj 263 399 f;
#X obj 236 369 t b b;
#N canvas 686 359 450 300 thru 0;
#X obj 203 64 inlet;
#X obj 203 90 outlet;
#X connect 0 0 1 0;
#X restore 169 268 pd thru;
#X obj 272 103 inlet;
#X obj 263 505 outlet;
#X obj 263 460 pp tine;
#X msg 263 431 users \$1 \, depth 0 \, gain 1 \, poke bang;
#X obj 236 291 * 1000;
#X connect 0 0 4 0;
#X connect 0 1 2 1;
#X connect 1 0 2 0;
#X connect 1 1 2 1;
#X connect 2 0 0 0;
#X connect 3 0 7 0;
#X connect 4 0 13 0;
#X connect 4 1 6 1;
#X connect 5 0 1 0;
#X connect 6 0 12 0;
#X connect 7 0 8 0;
#X connect 7 1 6 0;
#X connect 8 0 2 0;
#X connect 9 0 1 0;
#X connect 11 0 10 0;
#X connect 12 0 11 0;
#X connect 13 0 3 0;
#X restore 230 -181 pd phrase-player;
#X obj 230 -220 coll;
#C restore;
#X msg 298 -274 read ../data/libertine.txt;
#X obj 299 -299 loadbang;
#X obj 227 -381 t b;
#X connect 0 0 6 0;
#X connect 0 1 2 1;
#X connect 1 0 0 0;
#X connect 2 0 10 0;
#X connect 3 0 2 0;
#X connect 5 0 13 0;
#X connect 6 0 5 0;
#X connect 6 1 13 0;
#X connect 8 0 6 0;
#X connect 9 0 4 0;
#X connect 10 0 9 0;
#X connect 11 0 10 0;
#X connect 12 0 11 0;
#X connect 13 0 2 0;
#X restore 357 128 pd xom mapping;
#N canvas 200 30 1011 860 bp 0;
#X obj 281 -413 route clicks level;
#X obj 281 -443 inlet;
#X obj 214 -230 f 1;
#X obj 215 95 outlet;
#X obj 168 -324 change;
#X obj 168 -360 route float bang;
#X msg 147 -512 bang;
#N canvas 352 158 778 614 phrase-player 0;
#X obj 236 209 list split 2;
#X obj 272 147 t b l;
#X obj 236 179 list append;
#X obj 236 332 del 100;
#X obj 236 252 unpack;
#X msg 351 54 0 111 500 222 500 444;
#X obj 263 399 f;
#X obj 236 369 t b b;
#N canvas 686 359 450 300 thru 0;
#X obj 203 64 inlet;
#X obj 203 90 outlet;
#X connect 0 0 1 0;
#X restore 169 268 pd thru;
#X obj 272 103 inlet;
#X obj 263 505 outlet;
#X obj 263 460 pp tine;
#X msg 263 431 users \$1 \, depth 0 \, gain 1 \, poke bang;
#X obj 236 291 * 1000;
#X connect 0 0 4 0;
#X connect 0 1 2 1;
#X connect 1 0 2 0;
#X connect 1 1 2 1;
#X connect 2 0 0 0;
#X connect 3 0 7 0;
#X connect 4 0 13 0;
#X connect 4 1 6 1;
#X connect 5 0 1 0;
#X connect 6 0 12 0;
#X connect 7 0 8 0;
#X connect 7 1 6 0;
#X connect 8 0 2 0;
#X connect 9 0 1 0;
#X connect 11 0 10 0;
#X connect 12 0 11 0;
#X connect 13 0 3 0;
#X restore 214 -79 pd phrase-player;
#X obj 214 -118 coll;
#C restore;
#X msg 287 -172 read ../data/libertine.txt;
#X obj 288 -197 loadbang;
#X obj 214 -284 t b;
#X connect 0 0 5 0;
#X connect 0 1 2 1;
#X connect 1 0 0 0;
#X connect 2 0 8 0;
#X connect 4 0 11 0;
#X connect 5 0 4 0;
#X connect 5 1 11 0;
#X connect 6 0 5 0;
#X connect 7 0 3 0;
#X connect 8 0 7 0;
#X connect 9 0 8 0;
#X connect 10 0 9 0;
#X connect 11 0 2 0;
#X restore 457 128 pd bp mapping;
#N canvas 332 43 1011 860 snp 0;
#X obj 377 -505 route clicks level;
#X obj 377 -535 inlet;
#X obj 181 -289 f 1;
#X obj 181 21 outlet;
#X obj 181 -428 change;
#X obj 181 -464 route float bang;
#X text 610 -267 1 - (because when the stock is low it's pennies);
#X text 686 -338 is 100 high for the stock?;
#N canvas 975 316 450 300 randist 0;
#X obj 417 232 outlet;
#X obj 820 78 prob;
#C restore;
#X msg 852 -151 \; probtab resize 10;
#X obj 851 -122 table probtab;
#X obj 537 -48 tabread probtab;
#X obj 476 -109 uzi 10;
#X obj 509 -75 t f f;
#X obj 588 -112 bng 15 250 50 0 empty empty empty 17 7 0 10 -262144
-1 -1;
#X obj 819 -13 t b b;
#X msg 832 20 0;
#X obj 826 -49 bng 15 250 50 0 empty empty empty 17 7 0 10 -262144
-1 -1;
#X floatatom 832 146 5 0 0 0 - - -;
#X msg 897 29 0 \$1 \$2;
#X obj 478 72 pack 0 0 0;
#X obj 538 -15 expr (($f1 + 1) / 2) * 100;
#X obj 537 23 int;
#X obj 479 168 zl group 30;
#X obj 479 205 pp set;
#X msg 481 353 0 1 28 0 2 20 0 3 34 0 4 73 0 5 54 0 6 77 0 7 75 0 8
65 0 9 50 0 10 50;
#X obj 481 405 zl iter 3;
#X obj 502 300 loadbang;
#X obj 816 190 expr 20 + (($f1 / 10) * 1000);
#X floatatom 820 239 5 0 0 0 - - -;
#X connect 1 0 11 0;
#X connect 1 0 21 0;
#X connect 4 0 14 0;
#X connect 5 0 13 0;
#X connect 5 2 6 0;
#X connect 6 0 13 1;
#X connect 6 1 4 0;
#X connect 7 0 5 0;
#X connect 8 0 1 0;
#X connect 8 1 9 0;
#X connect 9 0 1 0;
#X connect 10 0 8 0;
#X connect 12 0 1 0;
#X connect 13 0 1 0;
#X connect 13 0 16 0;
#X connect 14 0 15 0;
#X connect 15 0 13 2;
#X connect 16 0 17 0;
#X connect 17 0 18 0;
#X connect 18 0 19 0;
#X connect 19 0 1 0;
#X connect 20 0 18 0;
#X connect 21 0 22 0;
#X restore 180 309 pd randist;
#X msg 147 -512 bang;
#N canvas 352 158 778 614 phrase-player 0;
#X obj 236 209 list split 2;
#X obj 272 147 t b l;
#X obj 236 179 list append;
#X obj 236 332 del 100;
#X obj 236 252 unpack;
#X msg 351 54 0 111 500 222 500 444;
#X obj 263 399 f;
#X obj 236 369 t b b;
#N canvas 686 359 450 300 thru 0;
#X obj 203 64 inlet;
#X obj 203 90 outlet;
#X connect 0 0 1 0;
#X restore 169 268 pd thru;
#X obj 272 103 inlet;
#X obj 263 505 outlet;
#X obj 263 460 pp tine;
#X msg 263 431 users \$1 \, depth 0 \, gain 1 \, poke bang;
#X obj 236 291 * 1000;
#X connect 0 0 4 0;
#X connect 0 1 2 1;
#X connect 1 0 2 0;
#X connect 1 1 2 1;
#X connect 2 0 0 0;
#X connect 3 0 7 0;
#X connect 4 0 13 0;
#X connect 4 1 6 1;
#X connect 5 0 1 0;
#X connect 6 0 12 0;
#X connect 7 0 8 0;
#X connect 7 1 6 0;
#X connect 8 0 2 0;
#X connect 9 0 1 0;
#X connect 11 0 10 0;
#X connect 12 0 11 0;
#X connect 13 0 3 0;
#X restore 181 -124 pd phrase-player;
#X obj 181 -163 coll;
#C restore;
#X msg 249 -217 read ../data/libertine.txt;
#X obj 250 -242 loadbang;
#X obj 181 -395 t b;
#X connect 0 0 5 0;
#X connect 0 1 2 1;
#X connect 1 0 0 0;
#X connect 2 0 11 0;
#X connect 4 0 14 0;
#X connect 5 0 4 0;
#X connect 5 1 14 0;
#X connect 9 0 5 0;
#X connect 10 0 3 0;
#X connect 11 0 10 0;
#X connect 12 0 11 0;
#X connect 13 0 12 0;
#X connect 14 0 2 0;
#X restore 557 128 pd snp mapping;
#X connect 0 0 1 0;
#X connect 1 0 2 0;
#X connect 2 0 5 0;
#X connect 2 1 6 0;
#X connect 2 2 7 0;
#X connect 2 3 8 0;
#X connect 2 4 9 0;
#X connect 2 5 10 0;
#X connect 2 6 11 0;
#X connect 2 7 12 0;
#X connect 3 0 21 0;
#X connect 15 0 2 1;
#X connect 15 0 2 2;
#X connect 21 0 0 0;
#X connect 21 1 22 0;
#X connect 21 2 30 0;
#X connect 21 3 31 0;
#X connect 21 4 32 0;
#X connect 21 5 13 0;
#X connect 22 0 23 0;
#X connect 23 0 15 0;
#X connect 23 1 15 1;
#X connect 24 0 2 3;
#X connect 24 0 2 4;
#X connect 25 0 24 0;
#X connect 25 1 24 1;
#X connect 26 0 2 5;
#X connect 26 0 2 6;
#X connect 27 0 26 0;
#X connect 27 1 26 1;
#X connect 28 0 2 7;
#X connect 28 0 2 8;
#X connect 29 0 28 0;
#X connect 29 1 28 1;
#X connect 30 0 25 0;
#X connect 31 0 27 0;
#X connect 32 0 29 0;
#X restore 174 101 pd oil_tines ______;
#X text 167 26 n.b. speaker/panning is set within each module;
#N canvas 750 588 952 485 master_gain 0;
#X obj 126 136 db2v;
#X obj 125 267 iemmatrix/mtx_mul~ 8 8 20 _________________________________
;
#N canvas 785 709 450 300 8ch_diag 0;
#X floatatom 81 90 5 0 0 2 - - -;
#X obj 81 141 mtx_diag 0 0 0 0 0 0 0 0;
#X msg 81 113 \$1 \$1 \$1 \$1 \$1 \$1 \$1 \$1;
#X obj 81 40 inlet;
#X obj 81 189 outlet;
#X connect 0 0 2 0;
#X connect 1 0 4 0;
#X connect 2 0 1 0;
#X connect 3 0 0 0;
#X restore 126 162 pd 8ch_diag;
#X obj 164 217 inlet~;
#X obj 203 238 inlet~;
#X obj 242 217 inlet~;
#X obj 281 238 inlet~;
#X obj 319 207 inlet~;
#X obj 358 228 inlet~;
#X obj 399 207 inlet~;
#X obj 438 228 inlet~;
#X obj 125 327 outlet~;
#X obj 175 299 outlet~;
#X obj 225 327 outlet~;
#X obj 275 299 outlet~;
#X obj 325 327 outlet~;
#X obj 375 299 outlet~;
#X obj 425 327 outlet~;
#X obj 476 299 outlet~;
#X obj 126 84 route master_gain;
#X obj 126 37 inlet;
#X connect 0 0 2 0;
#X connect 1 0 11 0;
#X connect 1 1 12 0;
#X connect 1 2 13 0;
#X connect 1 3 14 0;
#X connect 1 4 15 0;
#X connect 1 5 16 0;
#X connect 1 6 17 0;
#X connect 1 7 18 0;
#X connect 2 0 1 0;
#X connect 3 0 1 1;
#X connect 4 0 1 2;
#X connect 5 0 1 3;
#X connect 6 0 1 4;
#X connect 7 0 1 5;
#X connect 8 0 1 6;
#X connect 9 0 1 7;
#X connect 10 0 1 8;
#X connect 19 0 0 0;
#X connect 20 0 19 0;
#X restore 27 238 pd master_gain _____________________________________________
;
#X obj 20 46 r stream;
#N canvas -30 22 1280 853 data_update 0;
#X obj -3992 -4762 db2v;
#N canvas 1699 695 450 300 8ch_diag 0;
#X floatatom 81 90 5 0 0 2 - - -;
#X obj 81 141 mtx_diag 0 0 0 0 0 0 0 0;
#X msg 81 113 \$1 \$1 \$1 \$1 \$1 \$1 \$1 \$1;
#X obj 81 40 inlet;
#X obj 81 189 outlet;
#X connect 0 0 2 0;
#X connect 1 0 4 0;
#X connect 2 0 1 0;
#X connect 3 0 0 0;
#X restore -3981 -4054 pd 8ch_diag;
#X obj -3458 -3968 iemmatrix/mtx_mul~ 8 8 20 ____________________________________________________________
;
#X obj -3465 -4843 inlet;
#X obj -3456 -3867 outlet~;
#X obj -3406 -3867 outlet~;
#X obj -3356 -3867 outlet~;
#X obj -3304 -3867 outlet~;
#X obj -3254 -3867 outlet~;
#X obj -3204 -3867 outlet~;
#X obj -3152 -3867 outlet~;
#X obj -3102 -3867 outlet~;
#X floatatom -3516 -3893 5 0 0 0 - - -;
#X obj -3802 -4275 list-rot;
#X msg -3802 -4307 1 0 0 0 0 0 0 0;
#X obj -3802 -4238 pp matrix 8 1;
#X obj -3802 -4463 counter 0 1 8;
#X obj -3590 -4295 bpe ____;
#X obj -3678 -4176 *~;
#X obj -3802 -4491 spigot;
#X obj -3414 -4681 t b b b;
#X msg -3083 -4582 1;
#X obj -3395 -4386 bpe ____;
#X obj -3393 -4481 t b b;
#X msg -3349 -4357 0;
#X obj -3590 -4413 t b b;
#X obj -3678 -4149 *~;
#X obj -3802 -4435 t b b f;
#X obj -3516 -3933 env~;
#X obj -3755 -4093 iemmatrix/mtx_mul~ 8 1 0;
#X obj -3590 -4258 pack;
#X obj -3395 -4287 pack;
#X obj -3395 -4239 line~ 0;
#X obj -3590 -4224 line~ 0;
#X obj -3563 -4374 float;
#X obj -3536 -4410 line 0 20;
#X obj -3563 -4349 expr 1 + ($f1 * 5);
#X msg -3563 -4322 1 0 1 \$1 0 0 0 50;
#X obj -3130 -4059 iemmatrix/mtx_mul~ 8 1 0;
#X obj -2981 -4121 *~;
#X obj -2981 -4094 *~;
#X obj -3127 -4253 list-rot;
#X msg -3127 -4285 1 0 0 0 0 0 0 0;
#X obj -3127 -4216 pp matrix 8 1;
#X obj -3126 -4358 t b b f;
#X obj -2859 -4209 bpe ____;
#X obj -2859 -4367 t b b;
#X obj -2859 -4172 pack;
#X obj -2859 -4138 line~ 0;
#X obj -2832 -4338 float;
#X obj -2805 -4364 line 0 20;
#X obj -2832 -4293 expr 1 + ($f1 * 5);
#X obj -3126 -4410 spigot;
#X obj -3126 -4386 counter 1 1 8;
#X obj -2765 -4506 bpe ____;
#X obj -2764 -4672 t b b;
#X msg -2719 -4477 0;
#X obj -2765 -4407 pack;
#X obj -2748 -4133 line~ 0;
#X obj -2832 -4262 pack;
#X obj -2712 -4293 expr 1 + ($f1 * 90);
#X msg -2832 -4234 1 0 1 \$1 0 0 0 \$2;
#X obj -2737 -4647 linear;
#X obj -3367 -4449 float;
#X obj -3340 -4480 expr 50 + ($f1 * 100);
#X obj -3414 -4792 route bang;
#X text -2593 -4572 << sets global envelope time for pink;
#X text -3194 -4482 << sets global envelope time for sine;
#X obj -2737 -4571 expr 300 + ($f1 * 300);
#X obj -2765 -4451 expr pow($f1 \, 0.6);
#X obj -3395 -4331 expr pow($f1 \, 0.1);
#X msg -2739 -4534 1 100 0.3 \$1 0 \$1;
#X msg -3366 -4415 0.1 0 0.4 \$1 0 \$1;
#X obj -3678 -4595 osc~ 12000;
#X obj -2975 -4699 pink~;
#X obj -2981 -4193 lp2~ 1000 0.707;
#X obj -3678 -4664 linear;
#N canvas 1082 308 451 366 double 0;
#X obj -3371 -4566 del 100;
#X obj -3371 -4594 + 10;
#X obj -3371 -4735 inlet;
#X obj -3371 -4511 outlet;
#X obj -3371 -4695 t b b;
#X obj -3371 -4623 random 90;
#X connect 0 0 3 0;
#X connect 1 0 0 0;
#X connect 2 0 4 0;
#X connect 4 0 5 0;
#X connect 4 1 3 0;
#X connect 5 0 1 0;
#X restore -3414 -4712 pd double hit;
#X obj -3465 -4820 route updates_gain updates nonupdates;
#X obj -3324 -4792 route bang;
#X obj -3414 -4758 t b b;
#X obj -3324 -4762 t b b;
#X msg -3584 -4699 8000;
#X obj -3678 -4632 expr $f2 + ($f1 * 1000);
#X msg -3534 -4699 6000;
#X connect 0 0 1 0;
#X connect 1 0 2 0;
#X connect 2 0 4 0;
#X connect 2 0 28 0;
#X connect 2 1 5 0;
#X connect 2 2 6 0;
#X connect 2 3 7 0;
#X connect 2 4 8 0;
#X connect 2 5 9 0;
#X connect 2 6 10 0;
#X connect 2 7 11 0;
#X connect 3 0 78 0;
#X connect 13 0 15 0;
#X connect 14 0 13 0;
#X connect 15 0 29 0;
#X connect 16 0 27 0;
#X connect 17 0 30 0;
#X connect 17 1 30 1;
#X connect 17 2 19 0;
#X connect 18 0 26 0;
#X connect 19 0 16 0;
#X connect 20 0 19 0;
#X connect 20 0 52 0;
#X connect 20 1 23 0;
#X connect 20 1 55 0;
#X connect 20 1 76 0;
#X connect 20 2 21 0;
#X connect 21 0 19 1;
#X connect 21 0 52 1;
#X connect 22 0 70 0;
#X connect 22 1 31 1;
#X connect 22 2 24 0;
#X connect 23 0 22 0;
#X connect 23 1 63 0;
#X connect 24 0 19 1;
#X connect 25 0 17 0;
#X connect 25 1 34 0;
#X connect 26 0 29 1;
#X connect 27 0 25 0;
#X connect 27 1 14 0;
#X connect 27 2 13 1;
#X connect 28 0 12 0;
#X connect 29 0 2 1;
#X connect 29 1 2 2;
#X connect 29 2 2 3;
#X connect 29 3 2 4;
#X connect 29 4 2 5;
#X connect 29 5 2 6;
#X connect 29 6 2 7;
#X connect 29 7 2 8;
#X connect 30 0 33 0;
#X connect 31 0 32 0;
#X connect 31 0 35 0;
#X connect 32 0 26 1;
#X connect 33 0 18 1;
#X connect 34 0 36 0;
#X connect 35 0 34 1;
#X connect 36 0 37 0;
#X connect 37 0 17 0;
#X connect 38 0 2 1;
#X connect 38 1 2 2;
#X connect 38 2 2 3;
#X connect 38 3 2 4;
#X connect 38 4 2 5;
#X connect 38 5 2 6;
#X connect 38 6 2 7;
#X connect 38 7 2 8;
#X connect 39 0 40 0;
#X connect 40 0 38 1;
#X connect 41 0 43 0;
#X connect 42 0 41 0;
#X connect 43 0 38 0;
#X connect 44 0 46 0;
#X connect 44 1 42 0;
#X connect 44 2 41 1;
#X connect 45 0 47 0;
#X connect 45 1 47 1;
#X connect 45 2 52 0;
#X connect 46 0 45 0;
#X connect 46 1 49 0;
#X connect 47 0 48 0;
#X connect 48 0 39 1;
#X connect 49 0 51 0;
#X connect 49 0 60 0;
#X connect 50 0 49 1;
#X connect 51 0 59 0;
#X connect 52 0 53 0;
#X connect 53 0 44 0;
#X connect 54 0 69 0;
#X connect 54 1 57 1;
#X connect 54 2 56 0;
#X connect 55 0 54 0;
#X connect 55 1 62 0;
#X connect 56 0 52 1;
#X connect 57 0 50 0;
#X connect 57 0 58 0;
#X connect 58 0 40 1;
#X connect 59 0 61 0;
#X connect 60 0 59 1;
#X connect 61 0 45 0;
#X connect 62 0 64 0;
#X connect 62 0 68 0;
#X connect 63 0 72 0;
#X connect 64 0 63 1;
#X connect 65 0 80 0;
#X connect 68 0 71 0;
#X connect 69 0 57 0;
#X connect 70 0 31 0;
#X connect 71 0 54 0;
#X connect 72 0 22 0;
#X connect 73 0 18 0;
#X connect 74 0 75 0;
#X connect 75 0 39 0;
#X connect 76 0 83 0;
#X connect 77 0 20 0;
#X connect 78 0 0 0;
#X connect 78 1 65 0;
#X connect 78 2 79 0;
#X connect 79 0 81 0;
#X connect 80 0 77 0;
#X connect 80 1 82 0;
#X connect 81 0 77 0;
#X connect 81 1 84 0;
#X connect 82 0 83 1;
#X connect 83 0 73 0;
#X connect 83 0 75 1;
#X connect 84 0 83 1;
#X restore 442 98 pd data_update;
#X obj 124 342 outlet~;
#X obj 177 342 outlet~;
#X obj 228 342 outlet~;
#X obj 282 342 outlet~;
#X obj 336 343 outlet~;
#X obj 389 343 outlet~;
#X connect 0 0 6 1;
#X connect 0 1 6 2;
#X connect 0 2 6 3;
#X connect 0 3 6 4;
#X connect 0 4 6 5;
#X connect 0 5 6 6;
#X connect 0 6 6 7;
#X connect 0 7 6 8;
#X connect 3 0 6 1;
#X connect 3 1 6 2;
#X connect 3 2 6 3;
#X connect 3 3 6 4;
#X connect 3 4 6 5;
#X connect 3 5 6 6;
#X connect 3 6 6 7;
#X connect 3 7 6 8;
#X connect 4 0 6 1;
#X connect 4 1 6 2;
#X connect 4 2 6 3;
#X connect 4 3 6 4;
#X connect 4 4 6 5;
#X connect 4 5 6 6;
#X connect 4 6 6 7;
#X connect 4 7 6 8;
#X connect 6 0 1 0;
#X connect 6 1 2 0;
#X connect 6 2 9 0;
#X connect 6 3 10 0;
#X connect 6 4 11 0;
#X connect 6 5 12 0;
#X connect 6 6 13 0;
#X connect 6 7 14 0;
#X connect 7 0 0 0;
#X connect 7 0 4 0;
#X connect 7 0 3 0;
#X connect 7 0 6 0;
#X connect 7 0 8 0;
#X connect 8 0 6 1;
#X connect 8 1 6 2;
#X connect 8 2 6 3;
#X connect 8 3 6 4;
#X connect 8 4 6 5;
#X connect 8 5 6 6;
#X connect 8 6 6 7;
#X connect 8 7 6 8;
#X restore 271 148 pd ~~~~~~~dsp~~~~~~~;
#N canvas 328 148 252 586 test 0;
#X msg -20 -68 \; stream ganm clicks bang;
#X msg -20 -31 \; stream kerg clicks bang;
#X msg -21 11 \; stream ve19 clicks bang;
#X msg -20 61 \; stream reyk clicks bang;
#X msg -22 169 \; stream rds clicks bang;
#X msg -22 253 \; stream bp clicks bang;
#X msg -24 209 \; stream xom clicks bang;
#X msg -21 294 \; stream snp clicks bang;
#X msg -21 117 \; stream wave bang;
#X msg -21 354 \; stream updates bang;
#X msg -21 394 \; stream nonupdates bang;
#X text 4 -102 test buttons;
#X restore 536 75 pd test buttons;
#X text 638 73 << test buttons for sounds in subpatcher;
#X text 563 131 quick links;
#X text 308 -302 ~~~~~~~~~~~~~~~~~ polartide ~~~~~~~~~~~~~~~~~;
#X connect 0 0 23 0;
#X connect 0 0 34 0;
#X connect 1 0 0 0;
#X connect 4 0 18 0;
#X connect 6 0 47 0;
#X connect 6 0 49 0;
#X connect 6 0 51 0;
#X connect 6 0 50 0;
#X connect 6 0 48 0;
#X connect 9 0 22 0;
#X connect 9 0 32 0;
#X connect 10 0 9 0;
#X connect 12 0 24 0;
#X connect 12 0 36 0;
#X connect 13 0 12 0;
#X connect 15 0 25 0;
#X connect 15 0 38 0;
#X connect 16 0 15 0;
#X connect 18 0 2 0;
#X connect 18 1 5 0;
#X connect 27 0 29 0;
#X connect 27 0 40 0;
#X connect 28 0 27 0;
#X connect 43 0 44 0;
#X connect 44 0 46 0;
#X connect 45 0 42 0;
#X connect 46 0 45 0;
#X connect 47 0 1 0;
#X connect 48 0 28 0;
#X connect 49 0 13 0;
#X connect 50 0 10 0;
#X connect 51 0 16 0;
#X connect 52 0 53 0;
#X connect 53 0 4 0;
#X connect 59 0 58 0;
#X connect 59 1 58 1;
#X connect 59 2 58 2;
#X connect 59 3 58 3;
#X connect 59 4 58 4;
#X connect 59 5 58 5;
#X connect 59 6 58 6;
#X connect 59 7 58 7;
