#N canvas 855 22 495 484 10;
#X declare -lib cnmat -lib iemmatrix -lib hexloader;
#X declare -lib iemguts;
#X obj 233 273 noise~;
#X obj 275 27 import cnmat iemmatrix hexloader;
#X obj 19 154 opack /channel 1 /amp 0.1;
#X floatatom 19 125 5 0 0 0 - - -;
#X obj 19 180 oexpr /mtx = nfill(8 \, 0);
#X obj 19 209 oexpr assign_to_index(/mtx \, int32((/channel - 1) %
8) \, /amp);
#X obj 19 234 oroute /mtx;
#X obj 19 261 pp matrix 8 1;
#X obj 355 320 toolkit;
#X obj 157 369 dac~ 1 2 3 4 5 6 7 8;
#X obj 157 334 mtx_*~ 8 1 100 .....;
#X obj 74 358 dsp~;
#X obj 71 329 tgl 15 0 empty empty empty 17 7 0 10 -262144 -1 -1 0
1;
#X obj 233 299 *~ 0.1;
#X connect 0 0 13 0;
#X connect 2 0 4 0;
#X connect 3 0 2 0;
#X connect 4 0 5 0;
#X connect 5 0 6 0;
#X connect 6 0 7 0;
#X connect 7 0 10 0;
#X connect 10 0 9 0;
#X connect 10 1 9 1;
#X connect 10 2 9 2;
#X connect 10 3 9 3;
#X connect 10 4 9 4;
#X connect 10 5 9 5;
#X connect 10 6 9 6;
#X connect 10 7 9 7;
#X connect 12 0 11 0;
#X connect 13 0 10 1;
